<svg width="11" height="13" viewBox="0 0 11 13" fill="none" xmlns="http://www.w3.org/2000/svg">
<g id="shopping bag 2">
<path id="Path 3" d="M10.9995 11.793L10.625 3.01946C10.6205 2.70668 10.4975 2.4083 10.2824 2.18898C10.0674 1.96967 9.77768 1.84708 9.47609 1.84777H7.57185C7.49632 1.33353 7.24564 0.86438 6.86526 0.525388C6.48488 0.186395 5.99997 0 5.49847 0C4.99696 0 4.51206 0.186395 4.13168 0.525388C3.7513 0.86438 3.50061 1.33353 3.42509 1.84777H1.52346C1.22193 1.84713 0.932286 1.96976 0.717314 2.18909C0.502341 2.40841 0.37935 2.70676 0.374987 3.0195L0.000481735 11.7935C0.000159582 11.8009 0 11.8063 0 11.8138C0.000842695 12.1291 0.122321 12.4311 0.337746 12.6535C0.55317 12.8759 0.844917 13.0006 1.14888 13H9.85104C10.155 13.0005 10.4467 12.8759 10.6621 12.6534C10.8775 12.431 10.9989 12.129 10.9998 11.8138C11.0002 11.806 11 11.8005 10.9995 11.793ZM5.49871 1.01194C5.74164 1.00905 5.9787 1.0894 6.17311 1.24053C6.36751 1.39166 6.5084 1.60511 6.5739 1.84777H4.42312C4.48869 1.60507 4.62965 1.3916 4.82413 1.24048C5.0186 1.08935 5.25572 1.00902 5.49871 1.01194ZM9.8512 11.9975H1.14904C1.10436 11.9978 1.06132 11.9801 1.02901 11.9481C0.996699 11.9161 0.977648 11.8723 0.975883 11.826L1.35002 3.05508C1.35039 3.04765 1.35051 3.03562 1.35051 3.02814C1.35056 3.00468 1.35507 2.98145 1.3638 2.9598C1.37252 2.93814 1.38528 2.91849 1.40134 2.90196C1.4174 2.88543 1.43644 2.87235 1.45739 2.86347C1.47833 2.85459 1.50075 2.85008 1.52338 2.85021H3.39992V4.70473C3.39992 4.83766 3.45083 4.96514 3.54146 5.05914C3.63208 5.15314 3.75499 5.20595 3.88315 5.20595C4.01131 5.20595 4.13422 5.15314 4.22485 5.05914C4.31547 4.96514 4.36638 4.83766 4.36638 4.70473V2.85021H6.62145V4.70473C6.62145 4.83766 6.67236 4.96514 6.76299 5.05914C6.85361 5.15314 6.97652 5.20595 7.10468 5.20595C7.23284 5.20595 7.35575 5.15314 7.44638 5.05914C7.537 4.96514 7.58791 4.83766 7.58791 4.70473V2.85021H9.47617C9.49877 2.84998 9.5212 2.8544 9.54215 2.86319C9.56311 2.87199 9.58218 2.88499 9.59827 2.90145C9.61436 2.91792 9.62716 2.93752 9.63592 2.95913C9.64468 2.98075 9.64924 3.00394 9.64933 3.02739C9.64933 3.03487 9.64933 3.0441 9.64981 3.0517L10.0243 11.825C10.0225 11.8714 10.0035 11.9152 9.9713 11.9473C9.93906 11.9795 9.89608 11.9975 9.85136 11.9975H9.8512Z" fill="white"/>
</g>
</svg>
