<svg width="18" height="20" viewBox="0 0 18 20" fill="none" xmlns="http://www.w3.org/2000/svg">
<path id="Path 3" d="M17.5523 18.143L16.9547 4.64532C16.9476 4.16412 16.7512 3.70508 16.4081 3.36767C16.0649 3.03026 15.6026 2.84166 15.1214 2.84272H12.0827C11.9622 2.05158 11.5621 1.32982 10.9552 0.808289C10.3482 0.286762 9.57438 0 8.77411 0C7.97384 0 7.20007 0.286762 6.59308 0.808289C5.98609 1.32982 5.58606 2.05158 5.46554 2.84272H2.43105C1.94987 2.84174 1.48768 3.0304 1.14464 3.36782C0.801604 3.70525 0.605344 4.16425 0.59838 4.64538L0.000768723 18.1438C0.000254651 18.1552 0 18.1635 0 18.175C0.00134472 18.6601 0.195193 19.1248 0.538953 19.4669C0.882714 19.8091 1.34827 20.0009 1.83331 20H15.7197C16.2047 20.0008 16.6701 19.809 17.0139 19.4668C17.3576 19.1247 17.5514 18.66 17.5528 18.175C17.5534 18.1632 17.5531 18.1546 17.5523 18.143ZM8.7745 1.55684C9.16215 1.55239 9.54044 1.676 9.85066 1.9085C10.1609 2.14101 10.3857 2.4694 10.4902 2.84272H7.05814C7.16278 2.46934 7.38771 2.14093 7.69804 1.90843C8.00837 1.67593 8.38675 1.55234 8.7745 1.55684ZM15.7199 18.4577H1.83356C1.76227 18.4581 1.69359 18.4309 1.64203 18.3816C1.59047 18.3324 1.56007 18.265 1.55725 18.1938L2.15428 4.70013C2.15486 4.68869 2.15505 4.67018 2.15505 4.65868C2.15514 4.62258 2.16234 4.58684 2.17626 4.55353C2.19018 4.52022 2.21054 4.48998 2.23617 4.46455C2.2618 4.43912 2.29219 4.41899 2.32561 4.40533C2.35903 4.39167 2.39481 4.38474 2.43091 4.38494H5.42538V7.23804C5.42538 7.44255 5.50663 7.63868 5.65124 7.78329C5.79585 7.9279 5.99198 8.00915 6.19649 8.00915C6.401 8.00915 6.59714 7.9279 6.74175 7.78329C6.88636 7.63868 6.9676 7.44255 6.9676 7.23804V4.38494H10.5661V7.23804C10.5661 7.44255 10.6473 7.63868 10.792 7.78329C10.9366 7.9279 11.1327 8.00915 11.3372 8.00915C11.5417 8.00915 11.7379 7.9279 11.8825 7.78329C12.0271 7.63868 12.1083 7.44255 12.1083 7.23804V4.38494H15.1215C15.1575 4.38459 15.1933 4.39138 15.2268 4.40491C15.2602 4.41844 15.2906 4.43844 15.3163 4.46377C15.342 4.4891 15.3624 4.51926 15.3764 4.55251C15.3904 4.58576 15.3977 4.62145 15.3978 4.65752C15.3978 4.66902 15.3978 4.68323 15.3986 4.69492L15.9962 18.1923C15.9933 18.2636 15.963 18.3311 15.9116 18.3805C15.8601 18.43 15.7915 18.4576 15.7202 18.4577H15.7199Z" fill="#303030"/>
</svg>
