<svg width="11" height="11" viewBox="0 0 11 11" fill="none" xmlns="http://www.w3.org/2000/svg">
<path fill-rule="evenodd" clip-rule="evenodd" d="M2.35906 1.01796C2.07212 0.719234 1.60689 0.719234 1.31994 1.01796C1.033 1.31668 1.033 1.80101 1.31994 2.09973L4.51097 5.42175L1.01312 9.06107C0.726094 9.35971 0.726094 9.84391 1.01312 10.1425C1.30016 10.4412 1.76552 10.4412 2.05256 10.1425L5.5501 6.50354L9.04541 10.1423C9.33235 10.4411 9.79758 10.4411 10.0845 10.1423C10.3715 9.84361 10.3715 9.35928 10.0845 9.06056L6.58952 5.42208L9.78035 2.10218C10.0674 1.80354 10.0674 1.31935 9.78035 1.02071C9.49332 0.722071 9.02795 0.722072 8.74092 1.02071L5.55039 4.34029L2.35906 1.01796Z" fill="#929292"/>
</svg>
