<svg width="18" height="16" viewBox="0 0 18 16" fill="none" xmlns="http://www.w3.org/2000/svg">
<path d="M5.53386e-05 7.38495C-0.0121704 10.554 2.00242 13.4032 4.97577 14.4667C5.12407 14.5197 5.28076 14.5413 5.43691 14.5301C5.59306 14.5189 5.74559 14.4752 5.88581 14.4014C6.02603 14.3277 6.15119 14.2254 6.25414 14.1003C6.35708 13.9753 6.43581 13.83 6.48581 13.6727C6.53581 13.5154 6.55611 13.3491 6.54555 13.1835C6.53499 13.0179 6.49378 12.8561 6.42427 12.7073C6.35476 12.5586 6.25832 12.4258 6.14044 12.3166C6.02256 12.2074 5.88556 12.1239 5.73726 12.0709C3.52055 11.278 2.20495 9.19275 2.40264 6.98656C2.60034 4.78038 4.29128 2.91841 6.62538 2.51165C6.77982 2.48474 6.92775 2.42583 7.06072 2.33828C7.1937 2.25073 7.30911 2.13625 7.40038 2.00139C7.49164 1.86652 7.55697 1.71391 7.59263 1.55226C7.6283 1.39061 7.63359 1.22309 7.60822 1.05927C7.58286 0.89545 7.52732 0.738531 7.44479 0.597478C7.36225 0.456424 7.25433 0.333996 7.12719 0.237185C7.00005 0.140372 6.85618 0.0710735 6.70379 0.0332432C6.55141 -0.00458622 6.39349 -0.0102062 6.23905 0.0167046C2.92396 0.594422 0.336241 3.32841 0.0298847 6.74725C0.0107374 6.96092 0.00087039 7.17368 5.53386e-05 7.38495Z" fill="#929292"/>
<path d="M3.19024 14.9239C3.21377 15.0884 3.26767 15.2464 3.34884 15.3887C3.43002 15.5311 3.53688 15.6551 3.6633 15.7537C3.78972 15.8522 3.93322 15.9233 4.08559 15.9629C4.23795 16.0025 4.39618 16.0098 4.55122 15.9844L7.98875 15.4214C8.2044 15.3861 8.40677 15.2886 8.57383 15.1397C8.74089 14.9908 8.86623 14.7961 8.9362 14.5769C9.00617 14.3576 9.0181 14.1222 8.97068 13.8962C8.92326 13.6703 8.81831 13.4625 8.66727 13.2954L6.37555 10.7619C6.23702 10.6088 6.0644 10.4951 5.87359 10.4313C5.68278 10.3675 5.47991 10.3557 5.28365 10.3969C5.0874 10.4381 4.90406 10.531 4.75052 10.667C4.59699 10.8031 4.47818 10.9779 4.40505 11.1754L3.25915 14.2721C3.18257 14.4791 3.1588 14.7039 3.19024 14.9239Z" fill="#929292"/>
<path d="M17.999 8.61508C18.0112 5.44655 15.9971 2.59723 13.0232 1.53346C12.7236 1.42629 12.3961 1.44964 12.1127 1.59839C11.8293 1.74713 11.6133 2.00909 11.5122 2.32662C11.4111 2.64416 11.4331 2.99127 11.5735 3.29158C11.7138 3.5919 11.961 3.82083 12.2606 3.92801C14.4767 4.72072 15.793 6.80645 15.5952 9.01373C15.3974 11.221 13.7062 13.0828 11.3728 13.4895C11.2183 13.5164 11.0703 13.5753 10.9372 13.6629C10.8042 13.7504 10.6888 13.8649 10.5975 13.9997C10.5062 14.1345 10.4408 14.2871 10.4052 14.4487C10.3695 14.6102 10.3643 14.7777 10.3897 14.9414C10.441 15.2721 10.6142 15.5677 10.8711 15.763C11.128 15.9584 11.4477 16.0376 11.7597 15.9832C15.0755 15.4053 17.663 12.6709 17.9693 9.25264C17.9884 9.039 17.9982 8.82632 17.999 8.61508Z" fill="#929292"/>
<path d="M14.821 1.20724C14.8133 1.02995 14.7705 0.856364 14.6953 0.69777C14.6201 0.539176 14.5143 0.399125 14.3847 0.286726C14.2551 0.174327 14.1047 0.0920967 13.9431 0.0453836C13.7815 -0.00132959 13.6125 -0.0114797 13.447 0.0155934L10.0094 0.578668C9.7937 0.614052 9.59131 0.711447 9.42423 0.860254C9.25715 1.00906 9.13177 1.20358 9.06176 1.42265C8.99174 1.64171 8.97975 1.87694 9.0271 2.10272C9.07445 2.3285 9.17933 2.5362 9.33032 2.70321L11.622 5.23701C11.7606 5.39018 11.9334 5.50394 12.1244 5.56778C12.3153 5.63162 12.5184 5.6435 12.7148 5.60232C12.9113 5.56114 13.0948 5.46823 13.2485 5.33215C13.4021 5.19606 13.521 5.02119 13.5941 4.82363L14.74 1.72676C14.8011 1.56152 14.8287 1.38451 14.821 1.20724Z" fill="#929292"/>
</svg>
