<svg width="15" height="15" viewBox="0 0 15 15" fill="none" xmlns="http://www.w3.org/2000/svg">
<g id="day-forecast-hot-svgrepo-com 1" clip-path="url(#clip0_405_348)">
<g id="Layer_21">
<g id="Group">
<path id="Vector" d="M12.1875 7.5C12.1875 10.0781 10.0781 12.1875 7.5 12.1875C4.92188 12.1875 2.8125 10.0781 2.8125 7.5C2.8125 4.92188 4.92188 2.8125 7.5 2.8125C10.0781 2.8125 12.1875 4.92188 12.1875 7.5Z" fill="#FFC10A"/>
</g>
<g id="Group_2">
<path id="Vector_2" d="M7.5 0.46875C7.21875 0.46875 7.03125 0.65625 7.03125 0.9375V1.875C7.03125 2.15625 7.21875 2.34375 7.5 2.34375C7.78125 2.34375 7.96875 2.15625 7.96875 1.875V0.9375C7.96875 0.65625 7.78125 0.46875 7.5 0.46875Z" fill="#FFC10A"/>
<path id="Vector_3" d="M7.5 12.6562C7.21875 12.6562 7.03125 12.8437 7.03125 13.125V14.0625C7.03125 14.3438 7.21875 14.5312 7.5 14.5312C7.78125 14.5312 7.96875 14.3438 7.96875 14.0625V13.125C7.96875 12.8437 7.78125 12.6562 7.5 12.6562Z" fill="#FFC10A"/>
<path id="Vector_4" d="M14.0625 7.03125H13.125C12.8437 7.03125 12.6562 7.21875 12.6562 7.5C12.6562 7.78125 12.8437 7.96875 13.125 7.96875H14.0625C14.3438 7.96875 14.5312 7.78125 14.5312 7.5C14.5312 7.21875 14.3438 7.03125 14.0625 7.03125Z" fill="#FFC10A"/>
<path id="Vector_5" d="M1.875 7.03125H0.9375C0.65625 7.03125 0.46875 7.21875 0.46875 7.5C0.46875 7.78125 0.65625 7.96875 0.9375 7.96875H1.875C2.15625 7.96875 2.34375 7.78125 2.34375 7.5C2.34375 7.21875 2.15625 7.03125 1.875 7.03125Z" fill="#FFC10A"/>
<path id="Vector_6" d="M11.8125 2.53125L11.1562 3.1875C10.9688 3.375 10.9688 3.65625 11.1562 3.84375C11.25 3.9375 11.3906 3.98438 11.4844 3.98438C11.5781 3.98438 11.7188 3.9375 11.8125 3.84375L12.4688 3.1875C12.6563 3 12.6563 2.71875 12.4688 2.53125C12.2813 2.34375 12 2.34375 11.8125 2.53125Z" fill="#FFC10A"/>
<path id="Vector_7" d="M3.1875 11.1562L2.53125 11.8125C2.34375 12 2.34375 12.2813 2.53125 12.4688C2.625 12.5625 2.76562 12.6094 2.85937 12.6094C2.95312 12.6094 3.09375 12.5625 3.1875 12.4688L3.84375 11.8125C4.03125 11.625 4.03125 11.3438 3.84375 11.1562C3.65625 10.9688 3.375 10.9688 3.1875 11.1562Z" fill="#FFC10A"/>
<path id="Vector_8" d="M3.1875 2.53125C3 2.34375 2.71875 2.34375 2.53125 2.53125C2.34375 2.71875 2.34375 3 2.53125 3.1875L3.1875 3.84375C3.28125 3.9375 3.42188 3.98438 3.51562 3.98438C3.60938 3.98438 3.75 3.9375 3.84375 3.84375C4.03125 3.65625 4.03125 3.375 3.84375 3.1875L3.1875 2.53125Z" fill="#FFC10A"/>
<path id="Vector_9" d="M11.8125 11.1562C11.625 10.9688 11.3438 10.9688 11.1562 11.1562C10.9688 11.3438 10.9688 11.625 11.1562 11.8125L11.8125 12.4688C11.9063 12.5625 12.0469 12.6094 12.1406 12.6094C12.2344 12.6094 12.375 12.5625 12.4688 12.4688C12.6563 12.2813 12.6563 12 12.4688 11.8125L11.8125 11.1562Z" fill="#FFC10A"/>
</g>
</g>
</g>
<defs>
<clipPath id="clip0_405_348">
<rect width="15" height="15" fill="white"/>
</clipPath>
</defs>
</svg>
