<svg width="30" height="30" viewBox="0 0 30 30" fill="none" xmlns="http://www.w3.org/2000/svg">
<g clip-path="url(#clip0_1261_863)">
<path d="M4.9123 0C3.85293 0 2.9998 0.853125 2.9998 1.9125V6.54375H3.4873C4.21855 6.54375 4.87012 6.88594 5.34355 7.40625C5.80527 5.33203 8.77949 4.3125 14.3998 4.3125C20.735 4.3125 24.1756 5.39531 24.6561 7.5C25.1271 6.96328 25.8186 6.61875 26.5873 6.61875H26.9998V1.9125C26.9998 0.853125 26.1045 0 25.0123 0H4.9123ZM14.3998 5.5125C11.4959 5.5125 6.60684 5.82656 6.4873 7.89375L6.05606 11.2125L5.71855 13.6688L5.4748 15.6H4.9123C4.71309 15.6 4.5373 15.6234 4.3498 15.6563C4.25137 15.675 4.14355 15.7031 4.0498 15.7313C3.9748 15.7523 3.89746 15.7805 3.8248 15.8063C3.69824 15.8531 3.58574 15.8953 3.46855 15.9563C3.44043 15.9703 3.42168 15.9984 3.39355 16.0125C3.25996 16.0898 3.12168 16.1625 2.9998 16.2563C2.8334 16.3875 2.68809 16.5469 2.5498 16.7063C2.52402 16.7367 2.49824 16.7508 2.4748 16.7812C2.39277 16.8867 2.31777 17.0016 2.2498 17.1188C2.19824 17.2055 2.14199 17.3063 2.0998 17.4C2.07168 17.4609 2.05059 17.5242 2.0248 17.5875C1.96855 17.7352 1.90996 17.8781 1.8748 18.0375C1.86543 18.075 1.86309 18.1125 1.85605 18.15C1.82324 18.3328 1.7998 18.518 1.7998 18.7125V22.8H16.8373C16.8186 22.9969 16.7998 23.1984 16.7998 23.4C16.7998 23.6016 16.8186 23.8031 16.8373 24H1.7998V27H17.8686C19.0475 28.807 21.0865 30 23.3998 30C23.5264 30 23.6506 29.9883 23.7748 29.9813C23.8475 29.9906 23.9248 30 23.9998 30H26.3998C27.3912 30 28.1998 29.1914 28.1998 28.2H27.9186C29.1982 26.9953 29.9998 25.2914 29.9998 23.4C29.9998 21.6539 29.3131 20.0625 28.1998 18.8813V18.7125C28.1998 18.518 28.1764 18.3328 28.1436 18.15C28.1365 18.1125 28.1318 18.075 28.1248 18.0375C28.0896 17.8781 28.0498 17.7352 27.9936 17.5875C27.9701 17.5242 27.9279 17.4609 27.8998 17.4C27.8576 17.3063 27.8201 17.2055 27.7686 17.1188C27.7006 17.0039 27.6092 16.8867 27.5248 16.7812C27.5014 16.7484 27.4732 16.7344 27.4498 16.7063C27.3115 16.5445 27.1686 16.3852 26.9998 16.2563C26.8779 16.1625 26.742 16.0898 26.6061 16.0125C26.5779 15.9984 26.5592 15.9703 26.5311 15.9563C26.4139 15.893 26.3014 15.8531 26.1748 15.8063C26.1021 15.7805 26.0271 15.7523 25.9498 15.7313C25.8561 15.7031 25.7482 15.675 25.6498 15.6563C25.4623 15.6211 25.2842 15.6 25.0873 15.6H24.5248L24.2623 13.5563L24.0186 11.6813L23.5123 7.95C23.374 5.64141 15.8975 5.5125 14.3998 5.5125ZM14.3998 6.7125C19.4576 6.7125 22.1037 7.61016 22.3311 8.0625L22.9311 12.675C22.0428 12.825 19.4061 13.2 14.9998 13.2C10.5936 13.2 7.95684 12.8273 7.06855 12.675L7.6873 8.00625C7.70137 7.74844 8.93652 6.7125 14.3998 6.7125ZM2.5123 7.74375C1.79512 7.74375 1.14355 8.39531 1.14355 9.1125V12.4125C1.14355 13.1742 1.7834 13.8563 2.5123 13.8563H3.4123C4.17402 13.8563 4.85605 13.2188 4.85605 12.4875V9.1875C4.85605 8.42578 4.21621 7.74375 3.4873 7.74375H2.5123ZM26.5873 7.81875C25.8326 7.81875 25.2186 8.43281 25.2186 9.1875V12.4875C25.2186 13.2445 25.8326 13.8563 26.5873 13.8563H27.4873C28.2045 13.8563 28.8561 13.2047 28.8561 12.4875V9.1875C28.8561 8.43281 28.242 7.81875 27.4873 7.81875H26.5873ZM11.7561 16.2H18.2436C18.6561 16.2 18.9865 16.4438 19.1248 16.8C19.1693 16.9125 19.1998 17.0273 19.1998 17.1562V18.3188C18.3396 19.0289 17.6834 19.9453 17.2686 21H11.7561C11.217 21 10.7998 20.5828 10.7998 20.0438V17.1562C10.7998 17.0273 10.8326 16.9125 10.8748 16.8C11.0131 16.4438 11.3436 16.2 11.7561 16.2ZM23.3998 18C26.3881 18 28.7998 20.4117 28.7998 23.4C28.7998 26.3883 26.3881 28.8 23.3998 28.8C20.4115 28.8 17.9998 26.3883 17.9998 23.4C17.9998 20.4117 20.4115 18 23.3998 18ZM5.21231 18.6H7.98731C8.22637 18.6 8.39981 18.7734 8.39981 19.0125V20.5875C8.39981 20.8266 8.22637 21 7.98731 21H5.21231C4.97324 21 4.7998 20.8266 4.7998 20.5875V19.0125C4.7998 18.7734 4.97324 18.6 5.21231 18.6ZM26.3998 21.2063L22.9873 24.6188L20.8498 22.4813L19.9873 23.325L22.5748 25.8938L22.9873 26.325L23.4186 25.8938L27.2623 22.0688L26.3998 21.2063ZM1.7998 28.2C1.7998 29.1914 2.6084 30 3.5998 30H5.9998C6.99121 30 7.79981 29.1914 7.79981 28.2H1.7998Z" fill="#929292"/>
</g>
<defs>
<clipPath id="clip0_1261_863">
<rect width="30" height="30" fill="white"/>
</clipPath>
</defs>
</svg>
