<svg width="30" height="30" viewBox="0 0 30 30" fill="none" xmlns="http://www.w3.org/2000/svg">
<path d="M6 1.80005V7.80005H12V1.80005H6ZM19.8 7.80005V16.2H0.6C0.2682 16.2 0 16.4688 0 16.8V20.4C0 21.7236 1.0764 22.8 2.4 22.8H4.85391C5.14071 24.4998 6.6192 25.8 8.4 25.8C10.1808 25.8 11.6587 24.4998 11.9461 22.8H19.8C20.088 24.4993 21.6186 25.8 23.4 25.8C25.1814 25.8 26.6582 24.4993 26.9438 22.8H28.2C29.142 22.8 30 21.942 30 21V15.225C30 14.0178 29.1306 12.7851 29.025 12.6375L26.5313 9.30005C25.9595 8.61125 25.062 7.80005 24 7.80005H19.8ZM2.4 9.00005V15H8.4V9.00005H2.4ZM9.6 9.00005V15H15.6V9.00005H9.6ZM22.8 10.8H26.1563L28.0688 13.35C28.2722 13.638 28.8 14.5218 28.8 15.225V15.6H22.8C22.2 15.6 21.6 15 21.6 14.4V12C21.6 11.337 22.2 10.8 22.8 10.8ZM8.4 19.8C9.7236 19.8 10.8 20.8764 10.8 22.2001C10.8 23.5236 9.7236 24.6 8.4 24.6C7.0764 24.6 6 23.5236 6 22.2001C6 20.8764 7.0764 19.8 8.4 19.8ZM23.4 19.8C24.7242 19.8 25.8 20.8758 25.8 22.2001C25.8 23.5243 24.7242 24.6 23.4 24.6C22.0758 24.6 21 23.5243 21 22.2001C21 20.8758 22.0758 19.8 23.4 19.8Z" fill="#929292"/>
</svg>
