<svg width="28" height="27" viewBox="0 0 28 27" fill="none" xmlns="http://www.w3.org/2000/svg">
<path fill-rule="evenodd" clip-rule="evenodd" d="M12.3482 20.3957H15.3356V13.209H17.3283L17.5926 10.7324H15.3356V9.4922C15.3356 8.84636 15.3973 8.50035 16.3297 8.50035H17.5781V6.02377H15.5847C13.1906 6.02377 12.3482 7.22534 12.3482 9.24537V10.7324H10.856V13.209H12.3482V20.3957ZM14.2243 26.4195C11.5958 26.4195 9.0264 25.6447 6.84092 24.1932C4.65544 22.7417 2.95206 20.6786 1.9462 18.2649C0.940328 15.8511 0.677148 13.1951 1.18993 10.6326C1.70272 8.0702 2.96844 5.71646 4.82704 3.86904C6.68564 2.02163 9.05364 0.763527 11.6316 0.253827C14.2095 -0.255873 16.8817 0.0057235 19.31 1.00554C21.7384 2.00535 23.814 3.69847 25.2743 5.8708C26.7346 8.04313 27.514 10.5971 27.514 13.2097C27.514 16.7132 26.1138 20.0731 23.6215 22.5504C21.1292 25.0277 17.7489 26.4195 14.2243 26.4195Z" fill="#3A589B"/>
</svg>
