<svg width="87" height="61" viewBox="0 0 87 61" fill="none" xmlns="http://www.w3.org/2000/svg">
<path d="M52.9309 5.27424C53.8525 5.27424 54.7825 5.63103 55.5469 6.36174C57.2629 7.99781 57.4983 10.895 56.074 12.831L27.3636 51.8128C26.5794 52.8767 24.3203 55.7257 24.3203 55.7257C24.3203 55.7257 22.3877 53.5485 21.3165 52.1803L5.68765 35.2989C4.08457 33.5525 4.0375 30.6446 5.5841 28.8017C6.38611 27.846 7.45828 27.3639 8.52857 27.3639C9.52449 27.3639 10.5176 27.7807 11.2904 28.6217L23.8675 42.1871L49.8585 6.8996C50.6473 5.8271 51.7825 5.27424 52.9309 5.27424ZM52.9309 0.988525C50.6219 0.988525 48.4493 2.14031 46.9714 4.1471L23.5531 35.9439L13.88 25.5114C12.4445 23.9471 10.5392 23.0782 8.52951 23.0782C6.40117 23.0782 4.33496 24.0842 2.86178 25.8414C-0.11469 29.39 -0.0139686 35.0214 3.08394 38.3953L18.613 55.1707C19.7614 56.6182 21.5904 58.6807 21.6695 58.7707C22.3755 59.5657 23.3281 60.0103 24.3184 60.0103C24.3532 60.0103 24.388 60.0092 24.4238 60.0082C25.4527 59.976 26.4241 59.465 27.1122 58.5971C27.2073 58.4782 29.4279 55.6764 30.2459 54.5653L58.9573 15.5825C60.2968 13.7632 60.9285 11.4564 60.7355 9.08745C60.5444 6.73245 59.5598 4.5971 57.9633 3.0746C56.556 1.72995 54.7675 0.988525 52.9309 0.988525Z" fill="white"/>
<path d="M49.0801 15.2459C48.8683 15.2459 48.6565 15.1656 48.4805 14.9995C48.0795 14.6213 48.0249 13.9474 48.3562 13.492L50.2982 10.8263C50.6295 10.3709 51.2226 10.3066 51.6226 10.6849C52.0236 11.0631 52.0782 11.737 51.7469 12.1924L49.8059 14.857C49.6195 15.1141 49.3512 15.2459 49.0801 15.2459Z" fill="white"/>
<path d="M37.5963 30.3831C37.3742 30.3831 37.1502 30.2941 36.9713 30.112C36.5825 29.7198 36.5477 29.0416 36.8932 28.6002L46.1502 16.747C46.4947 16.3034 47.0906 16.2638 47.4784 16.6581C47.8672 17.0502 47.902 17.7284 47.5565 18.1698L38.2995 30.0231C38.1141 30.2609 37.8552 30.3831 37.5963 30.3831Z" fill="white"/>
<path d="M80.6369 21.9771C81.2771 21.9771 81.9231 22.225 82.4541 22.7326C83.6462 23.8691 83.8096 25.8816 82.8203 27.2265L62.8763 54.3055C62.3316 55.0446 60.7622 57.0236 60.7622 57.0236C60.7622 57.0236 59.4198 55.5113 58.6756 54.5608L47.8189 42.834C46.7053 41.6208 46.6726 39.6009 47.747 38.3207C48.3041 37.6568 49.0489 37.3219 49.7924 37.3219C50.4842 37.3219 51.1741 37.6114 51.711 38.1957L60.4477 47.6189L78.5026 23.1062C79.0505 22.3612 79.8391 21.9771 80.6369 21.9771ZM80.6369 19C79.0329 19 77.5237 19.8001 76.4971 21.1941L60.2293 43.282L53.5098 36.035C52.5126 34.9484 51.1891 34.3448 49.7931 34.3448C48.3146 34.3448 46.8793 35.0436 45.8559 36.2643C43.7883 38.7293 43.8583 42.6412 46.0102 44.9849L56.7976 56.6381C57.5954 57.6436 58.8659 59.0764 58.9209 59.1389C59.4113 59.6911 60.073 60 60.7609 60C60.7851 60 60.8093 59.9993 60.8342 59.9985C61.5489 59.9762 62.2237 59.6212 62.7017 59.0183C62.7678 58.9357 64.3103 56.9894 64.8786 56.2176L84.8232 29.1378C85.7537 27.874 86.1924 26.2716 86.0584 24.626C85.9257 22.9901 85.2417 21.5067 84.1327 20.4491C83.1551 19.515 81.9127 19 80.6369 19Z" fill="white"/>
<path d="M77.9609 28.9042C77.8138 28.9042 77.6667 28.8483 77.5444 28.733C77.2658 28.4702 77.2279 28.0021 77.4581 27.6858L78.8071 25.834C79.0372 25.5177 79.4492 25.473 79.7271 25.7358C80.0057 25.9985 80.0436 26.4667 79.8134 26.783L78.4651 28.634C78.3356 28.8126 78.1492 28.9042 77.9609 28.9042Z" fill="white"/>
<path d="M69.9858 39.4191C69.8314 39.4191 69.6758 39.3574 69.5516 39.2308C69.2815 38.9584 69.2573 38.4873 69.4973 38.1807L75.9278 29.9467C76.1671 29.6386 76.581 29.6111 76.8504 29.8849C77.1205 30.1573 77.1447 30.6285 76.9047 30.9351L70.4742 39.1691C70.3454 39.3343 70.1656 39.4191 69.9858 39.4191Z" fill="white"/>
</svg>
