<svg width="12" height="12" viewBox="0 0 12 12" fill="none" xmlns="http://www.w3.org/2000/svg">
<path d="M11 3.49995H10.447C10.4847 3.33601 10.5025 3.16814 10.5 2.99995C10.5212 2.7319 10.4841 2.46244 10.3911 2.21016C10.2981 1.95787 10.1514 1.72876 9.96132 1.53863C9.77119 1.3485 9.54208 1.20188 9.28979 1.10888C9.0375 1.01588 8.76804 0.978713 8.5 0.999947C7.418 0.999947 6.5155 2.13545 6 2.96395C5.4845 2.13545 4.582 0.999947 3.5 0.999947C3.23196 0.978713 2.9625 1.01588 2.71021 1.10888C2.45792 1.20188 2.22881 1.3485 2.03868 1.53863C1.84855 1.72876 1.70193 1.95787 1.60893 2.21016C1.51593 2.46244 1.47877 2.7319 1.5 2.99995C1.49754 3.16814 1.51533 3.33601 1.553 3.49995H1C0.867392 3.49995 0.740215 3.55262 0.646447 3.64639C0.552678 3.74016 0.5 3.86734 0.5 3.99995V6.49995C0.5 6.63255 0.552678 6.75973 0.646447 6.8535C0.740215 6.94727 0.867392 6.99995 1 6.99995H1.5V10.4999C1.5 10.6326 1.55268 10.7597 1.64645 10.8535C1.74021 10.9473 1.86739 10.9999 2 10.9999H10C10.1326 10.9999 10.2598 10.9473 10.3536 10.8535C10.4473 10.7597 10.5 10.6326 10.5 10.4999V6.99995H11C11.1326 6.99995 11.2598 6.94727 11.3536 6.8535C11.4473 6.75973 11.5 6.63255 11.5 6.49995V3.99995C11.5 3.86734 11.4473 3.74016 11.3536 3.64639C11.2598 3.55262 11.1326 3.49995 11 3.49995ZM3.5 1.99995C4.0565 1.99995 4.7095 2.79145 5.154 3.49995H3.778C2.5 3.49995 2.5 3.29995 2.5 2.99995C2.5 2.10395 3.071 1.99995 3.5 1.99995ZM5.5 9.99995H2.5V6.99995H5.5V9.99995ZM5.5 5.99995H1.5V4.49995H5.5V5.99995ZM8.5 1.99995C8.929 1.99995 9.5 2.10395 9.5 2.99995C9.5 3.29995 9.5 3.49995 8.222 3.49995H6.846C7.2905 2.79145 7.9435 1.99995 8.5 1.99995ZM9.5 9.99995H6.5V6.99995H9.5V9.99995ZM10.5 5.99995H6.5V4.49995H10.5V5.99995Z" fill="#DD062A"/>
</svg>
