<svg width="22" height="22" viewBox="0 0 22 22" fill="none" xmlns="http://www.w3.org/2000/svg">
<path d="M11.9317 1.25409C11.8527 1.08339 11.7314 0.939897 11.5816 0.839635C11.4318 0.739372 11.2593 0.686279 11.0833 0.686279C10.9073 0.686279 10.7348 0.739372 10.5849 0.839635C10.4351 0.939897 10.3139 1.08339 10.2348 1.25409L7.62102 6.88334L1.76786 7.79359C1.59136 7.82092 1.42551 7.90162 1.28928 8.02649C1.15305 8.15135 1.05193 8.31533 0.997499 8.49966C0.943067 8.68399 0.937517 8.88124 0.981483 9.06884C1.02545 9.25643 1.11716 9.42681 1.24612 9.56047L5.46946 13.933L4.47409 20.104C4.44366 20.293 4.46242 20.4876 4.52828 20.6657C4.59413 20.8438 4.70447 20.9985 4.84686 21.1122C4.98925 21.2259 5.15805 21.2943 5.33427 21.3095C5.51049 21.3248 5.68712 21.2863 5.8443 21.1985L11.0833 18.2697L16.3222 21.1985C16.4794 21.2863 16.6561 21.3248 16.8323 21.3095C17.0085 21.2943 17.1773 21.2259 17.3197 21.1122C17.4621 20.9985 17.5724 20.8438 17.6383 20.6657C17.7041 20.4876 17.7229 20.293 17.6925 20.104L16.6971 13.9316L20.9204 9.55909C21.049 9.42537 21.1404 9.2551 21.1841 9.06771C21.2279 8.88031 21.2222 8.68334 21.1678 8.49926C21.1134 8.31518 21.0125 8.15142 20.8765 8.02664C20.7405 7.90187 20.5749 7.82111 20.3987 7.79359L14.5455 6.88334L11.9317 1.25409Z" fill="#FFC24D"/>
</svg>
