<svg width="61" height="61" viewBox="0 0 61 61" fill="none" xmlns="http://www.w3.org/2000/svg">
<path d="M52.9309 5.27424C53.8525 5.27424 54.7825 5.63103 55.5469 6.36174C57.2629 7.99781 57.4983 10.895 56.074 12.831L27.3636 51.8128C26.5794 52.8767 24.3203 55.7257 24.3203 55.7257C24.3203 55.7257 22.3877 53.5485 21.3165 52.1803L5.68765 35.2989C4.08457 33.5525 4.0375 30.6446 5.5841 28.8017C6.38611 27.846 7.45828 27.3639 8.52857 27.3639C9.52449 27.3639 10.5176 27.7807 11.2904 28.6217L23.8675 42.1871L49.8585 6.8996C50.6473 5.8271 51.7825 5.27424 52.9309 5.27424ZM52.9309 0.988525C50.6219 0.988525 48.4493 2.14031 46.9714 4.1471L23.5531 35.9439L13.88 25.5114C12.4445 23.9471 10.5392 23.0782 8.52951 23.0782C6.40117 23.0782 4.33496 24.0842 2.86178 25.8414C-0.11469 29.39 -0.0139686 35.0214 3.08394 38.3953L18.613 55.1707C19.7614 56.6182 21.5904 58.6807 21.6695 58.7707C22.3755 59.5657 23.3281 60.0103 24.3184 60.0103C24.3532 60.0103 24.388 60.0092 24.4238 60.0082C25.4527 59.976 26.4241 59.465 27.1122 58.5971C27.2073 58.4782 29.4279 55.6764 30.2459 54.5653L58.9573 15.5825C60.2968 13.7632 60.9285 11.4564 60.7355 9.08745C60.5444 6.73245 59.5598 4.5971 57.9633 3.0746C56.556 1.72995 54.7675 0.988525 52.9309 0.988525Z" fill="white"/>
<path d="M49.0801 15.2459C48.8683 15.2459 48.6565 15.1656 48.4805 14.9995C48.0795 14.6213 48.0249 13.9474 48.3562 13.492L50.2982 10.8263C50.6295 10.3709 51.2226 10.3066 51.6226 10.6849C52.0236 11.0631 52.0782 11.737 51.7469 12.1924L49.8059 14.857C49.6195 15.1141 49.3512 15.2459 49.0801 15.2459Z" fill="white"/>
<path d="M37.5963 30.3831C37.3742 30.3831 37.1502 30.2941 36.9713 30.112C36.5825 29.7198 36.5477 29.0416 36.8932 28.6002L46.1502 16.747C46.4947 16.3034 47.0906 16.2638 47.4784 16.6581C47.8672 17.0502 47.902 17.7284 47.5565 18.1698L38.2995 30.0231C38.1141 30.2609 37.8552 30.3831 37.5963 30.3831Z" fill="white"/>
</svg>
