<svg width="43" height="41" viewBox="0 0 43 41" fill="none" xmlns="http://www.w3.org/2000/svg">
<path d="M36.6369 2.97711C37.2771 2.97711 37.9231 3.22495 38.4541 3.73255C39.6462 4.86906 39.8096 6.88159 38.8203 8.2265L18.8763 35.3055C18.3316 36.0446 16.7622 38.0236 16.7622 38.0236C16.7622 38.0236 15.4198 36.5113 14.6756 35.5608L3.81893 23.834C2.70534 22.6208 2.67265 20.6009 3.74701 19.3207C4.30413 18.6568 5.04892 18.3219 5.79241 18.3219C6.48423 18.3219 7.1741 18.6114 7.71095 19.1957L16.4477 28.6189L34.5026 4.10618C35.0505 3.36116 35.8391 2.97711 36.6369 2.97711ZM36.6369 0C35.0329 0 33.5237 0.800098 32.4971 2.19413L16.2293 24.282L9.50983 17.035C8.51263 15.9484 7.18914 15.3448 5.79306 15.3448C4.31459 15.3448 2.87928 16.0436 1.85592 17.2643C-0.211709 19.7293 -0.141742 23.6412 2.01024 25.9849L12.7976 37.6381C13.5954 38.6436 14.8659 40.0764 14.9209 40.1389C15.4113 40.6911 16.073 41 16.7609 41C16.7851 41 16.8093 40.9993 16.8342 40.9985C17.5489 40.9762 18.2237 40.6212 18.7017 40.0183C18.7678 39.9357 20.3103 37.9894 20.8786 37.2176L40.8232 10.1378C41.7537 8.87402 42.1924 7.27159 42.0584 5.62599C41.9257 3.99007 41.2417 2.50673 40.1327 1.44911C39.1551 0.51504 37.9127 0 36.6369 0Z" fill="white"/>
<path d="M33.9609 9.90416C33.8138 9.90416 33.6667 9.84834 33.5444 9.73298C33.2658 9.47025 33.2279 9.00209 33.4581 8.68578L34.8071 6.83402C35.0372 6.5177 35.4492 6.47304 35.7271 6.73577C36.0057 6.9985 36.0436 7.46665 35.8134 7.78297L34.4651 9.63399C34.3356 9.81261 34.1492 9.90416 33.9609 9.90416Z" fill="white"/>
<path d="M25.9858 20.4191C25.8314 20.4191 25.6758 20.3574 25.5516 20.2308C25.2815 19.9584 25.2573 19.4873 25.4973 19.1807L31.9278 10.9467C32.1671 10.6386 32.581 10.6111 32.8504 10.8849C33.1205 11.1573 33.1447 11.6285 32.9047 11.9351L26.4742 20.1691C26.3454 20.3343 26.1656 20.4191 25.9858 20.4191Z" fill="white"/>
</svg>
