<svg width="91" height="70" viewBox="0 0 91 70" fill="none" xmlns="http://www.w3.org/2000/svg">
<path d="M68.7328 56.2297C68.6338 56.4445 68.6037 56.6958 68.665 56.9386C68.7236 57.1707 68.8687 57.3746 69.0528 57.4973C69.2428 57.6093 69.4723 57.6419 69.6767 57.5754C69.882 57.5086 70.0614 57.343 70.1703 57.1337C70.2692 56.919 70.2963 56.659 70.2377 56.4269C70.1791 56.1948 70.0346 55.9898 69.8502 55.8662C69.4761 55.6315 68.9406 55.8057 68.7328 56.2297Z" fill="white"/>
<path d="M73.3842 44.4233C73.1011 44.3435 72.9494 44.3929 72.7465 44.6308L67.7995 50.4402L60.8582 48.4984C60.5751 48.4186 60.2196 48.5342 60.0167 48.7722C59.8123 49.0106 59.5997 49.3986 59.6801 49.7172L61.8489 58.307C61.9293 58.6257 62.2894 58.8283 62.5735 58.9088C62.7144 58.9479 63.01 58.8952 63.1461 58.851C63.2821 58.8067 63.3954 58.7264 63.4967 58.6085L68.4153 52.8218L75.2922 54.771C75.4332 54.8102 75.5786 54.8064 75.7146 54.7621C75.8506 54.7178 75.8405 54.6777 75.9418 54.5597C76.1442 54.32 76.0832 54.0211 76.0027 53.7024L73.834 45.1126C73.7551 44.7934 73.6666 44.5034 73.3842 44.4233ZM63.032 56.2491L61.6442 50.7522L66.5321 52.1372L63.032 56.2491ZM74.0412 52.6675L69.1742 51.3076C69.1719 51.2987 69.1586 51.2934 69.1562 51.2835C69.1539 51.2746 69.1697 51.2598 69.1669 51.252L72.6534 47.1707L74.0412 52.6675Z" fill="white"/>
<path d="M64.1423 35.709C70.7282 33.5665 72.0588 21.5634 70.5889 15.7416C68.9113 9.09684 62.7842 5.24034 56.9304 7.14472C51.0767 9.0491 47.6793 16.0042 49.357 22.649C50.8269 28.4707 57.5565 37.8516 64.1423 35.709ZM63.2408 32.1385C60.0144 33.1882 55.9982 29.0303 53.8322 24.9274C53.8745 24.8084 53.9061 24.6774 53.9223 24.5629L54.8355 17.6645L63.6185 14.8071L67.5855 20.0068C67.6608 20.1031 67.7538 20.1916 67.8535 20.2596C67.9536 25.0578 66.4901 31.0814 63.2408 32.1385ZM57.8319 10.7153C61.9572 9.37318 66.2612 12.0822 67.4435 16.7649C67.4784 16.9033 67.5041 17.0591 67.5349 17.2046L64.5512 13.3311C64.3425 13.0638 63.9667 12.762 63.6647 12.8602L53.887 16.0412C53.5827 16.1402 53.4053 16.6239 53.3544 16.9785L52.6628 22.1598C52.607 21.979 52.5465 21.7968 52.5026 21.6227C51.3195 16.9402 53.7066 12.0573 57.8319 10.7153Z" fill="white"/>
<path d="M75.7716 37.5894C75.1693 37.3913 74.5449 37.4089 73.9629 37.5982C73.4353 37.7699 72.9455 38.0915 72.5448 38.5503C70.7453 40.604 68.4757 42.117 65.9814 42.9285C63.4878 43.7398 60.8557 43.8204 58.3697 43.1619C57.817 43.0152 57.2515 43.0369 56.7246 43.2083C56.1435 43.3973 55.6078 43.7696 55.1902 44.2996C51.1129 49.4619 49.5225 58.6294 51.4201 66.1454C51.9179 68.1172 53.7212 69.2229 55.4583 68.6578L86.913 58.4247C88.6501 57.8596 89.6636 55.8375 89.1658 53.8657C87.2682 46.3497 81.6382 39.5176 75.7716 37.5894ZM54.5568 65.0873C52.9792 58.8388 54.1082 51.1873 57.6173 46.744C60.5548 47.5223 63.7321 47.4913 66.8752 46.4687C70.0183 45.4462 72.7273 43.5603 74.8552 41.1322C79.9054 42.7928 84.4339 48.6057 86.0115 54.8542L54.5568 65.0873Z" fill="white"/>
<path d="M19.392 51.8796C19.2444 52.0548 19.154 52.2867 19.1535 52.5393C19.153 52.7807 19.2425 53.0223 19.3894 53.1982C19.5445 53.3657 19.757 53.4693 19.9697 53.4699C20.1832 53.4704 20.3961 53.3679 20.5519 53.2011C20.6994 53.026 20.7891 52.7848 20.7895 52.5434C20.79 52.3019 20.7013 52.0594 20.5544 51.8826C20.2524 51.5392 19.6953 51.5378 19.392 51.8796Z" fill="white"/>
<path d="M26.7484 42.0032C26.4959 41.8373 26.3381 41.8369 26.085 42.0015L19.9117 46.0235L13.7181 41.9706C13.4656 41.8046 13.0959 41.8037 12.8428 41.9684C12.5881 42.133 12.2889 42.4387 12.2882 42.7702L12.2709 51.7058C12.2702 52.0373 12.5666 52.3454 12.8198 52.5123C12.9457 52.5943 13.2425 52.6368 13.384 52.6372C13.5255 52.6375 13.6541 52.5961 13.7802 52.5147L19.9208 48.5056L26.0506 52.5454C26.1764 52.6274 26.317 52.6696 26.4585 52.6699C26.6 52.6703 26.6001 52.6285 26.7263 52.5471C26.9794 52.3806 26.9939 52.0742 26.9945 51.7427L27.0119 42.8071C27.0142 42.4756 27 42.1691 26.7484 42.0032ZM13.9109 50.1016L13.922 44.3835L18.2789 47.2544L13.9109 50.1016ZM25.3632 50.1303L21.0201 47.2901C21.0201 47.2808 21.0087 47.2715 21.0087 47.2613C21.0087 47.252 21.0275 47.2427 21.0267 47.2344L25.3743 44.4122L25.3632 50.1303Z" fill="white"/>
<path d="M20.0012 30.7189C26.8522 30.7361 31.0662 19.6242 31.0779 13.5681C31.0914 6.65578 26.1483 1.01996 20.059 1.00471C13.9696 0.989458 9.00469 6.60047 8.99126 13.5127C8.97949 19.5689 13.1502 30.7018 20.0012 30.7189ZM20.0084 27.0046C16.6521 26.9962 13.8106 21.7362 12.7333 17.112C12.803 17.0109 12.8654 16.895 12.909 16.7902L15.4735 10.4507L24.6101 10.4736L27.1494 16.7191C27.1982 16.8353 27.2659 16.9497 27.3451 17.0464C26.2677 21.6875 23.3885 27.0131 20.0084 27.0046ZM20.0517 4.71899C24.3431 4.72973 27.8153 8.68858 27.8058 13.5599C27.8056 13.7038 27.7922 13.8616 27.7861 14.0111L25.8671 9.34949C25.7319 9.02694 25.4448 8.61857 25.1307 8.61779L14.9593 8.59231C14.6428 8.59152 14.354 9.0003 14.2184 9.32496L12.2868 14.0846C12.2774 13.8933 12.2638 13.6992 12.2642 13.5181C12.2728 8.64687 15.7604 4.70824 20.0517 4.71899Z" fill="white"/>
<path d="M30.7127 36.19C30.1825 35.8098 29.5783 35.63 28.973 35.6285C28.4241 35.6271 27.8749 35.7818 27.3778 36.0962C25.1467 37.5021 22.5963 38.2404 20.0015 38.2339C17.4076 38.2274 14.8592 37.4754 12.632 36.0593C12.1369 35.7442 11.5883 35.5868 11.0403 35.5855C10.4357 35.5839 9.83002 35.7728 9.2992 36.1503C4.11966 39.8247 0.349584 48.1306 0.334387 55.9492C0.3304 58.0004 1.79232 59.6309 3.59934 59.6355L36.3203 59.7174C38.1274 59.7219 39.5956 58.0987 39.5996 56.0475C39.6148 48.229 35.8771 39.8912 30.7127 36.19ZM3.60656 55.9212C3.61919 49.4212 6.57524 42.4262 11.0331 39.2635C13.6647 40.9369 16.7247 41.9084 19.9944 41.9166C23.264 41.9248 26.3278 40.9668 28.9659 39.3047C33.4114 42.4916 36.3402 49.5031 36.3276 56.0031L3.60656 55.9212Z" fill="white"/>
</svg>
