<svg width="27" height="27" viewBox="0 0 27 27" fill="none" xmlns="http://www.w3.org/2000/svg">
<path d="M13.499 26.4996C20.861 26.4996 26.8291 20.5675 26.8291 13.2498C26.8291 5.9321 20.861 -6.10352e-05 13.499 -6.10352e-05C6.13702 -6.10352e-05 0.168945 5.9321 0.168945 13.2498C0.168945 20.5675 6.13702 26.4996 13.499 26.4996Z" fill="url(#paint0_linear_2_3501)"/>
<path d="M13.6685 16.4076C13.0319 16.4076 12.4097 16.22 11.8805 15.8685C11.3512 15.517 10.9388 15.0174 10.6952 14.4329C10.4516 13.8484 10.3879 13.2052 10.512 12.5846C10.6362 11.9641 10.9427 11.3941 11.3928 10.9468C11.8429 10.4994 12.4163 10.1947 13.0406 10.0713C13.6649 9.94786 14.312 10.0112 14.9 10.2533C15.4881 10.4954 15.9907 10.9055 16.3443 11.4315C16.698 11.9576 16.8867 12.576 16.8867 13.2087C16.8857 14.0568 16.5463 14.8699 15.943 15.4696C15.3397 16.0693 14.5217 16.4066 13.6685 16.4076ZM13.6685 10.8714C13.2035 10.872 12.7492 11.0096 12.3629 11.2668C11.9766 11.524 11.6757 11.8892 11.4982 12.3164C11.3207 12.7435 11.2746 13.2134 11.3656 13.6666C11.4567 14.1197 11.6809 14.5359 12.0099 14.8625C12.3388 15.1891 12.7578 15.4114 13.2139 15.5013C13.6699 15.5912 14.1426 15.5448 14.5721 15.3678C15.0016 15.1908 15.3686 14.8912 15.6269 14.5069C15.8851 14.1226 16.0229 13.6709 16.0229 13.2087C16.0221 12.5886 15.7737 11.9941 15.3322 11.5558C14.8908 11.1176 14.2924 10.8714 13.6685 10.8714Z" fill="white"/>
<path d="M17.3482 10.0691C17.569 10.0691 17.7481 9.89114 17.7481 9.6716C17.7481 9.45207 17.569 9.27411 17.3482 9.27411C17.1273 9.27411 16.9482 9.45207 16.9482 9.6716C16.9482 9.89114 17.1273 10.0691 17.3482 10.0691Z" fill="white"/>
<path d="M16.4403 19.4634H10.9011C9.96726 19.4624 9.07197 19.0932 8.41165 18.4369C7.75133 17.7805 7.37991 16.8906 7.37891 15.9624V10.4565C7.37971 9.52818 7.75103 8.63807 8.41138 7.98156C9.07172 7.32505 9.96713 6.95578 10.9011 6.95477H16.4403C17.3743 6.95578 18.2697 7.32505 18.93 7.98156C19.5904 8.63807 19.9617 9.52818 19.9625 10.4565V15.9624C19.9615 16.8906 19.5901 17.7805 18.9298 18.4369C18.2695 19.0932 17.3742 19.4624 16.4403 19.4634ZM10.9011 7.81563C10.1968 7.81664 9.52171 8.09522 9.02378 8.59028C8.52586 9.08535 8.24579 9.75649 8.24498 10.4565V15.9624C8.24579 16.6624 8.52589 17.3334 9.02383 17.8284C9.52177 18.3233 10.1969 18.6017 10.9011 18.6025H16.4403C17.1445 18.6017 17.8196 18.3233 18.3176 17.8284C18.8155 17.3334 19.0956 16.6624 19.0964 15.9624V10.4565C19.0956 9.75649 18.8156 9.08535 18.3176 8.59028C17.8197 8.09522 17.1446 7.81664 16.4403 7.81563H10.9011Z" fill="white"/>
<defs>
<linearGradient id="paint0_linear_2_3501" x1="13.499" y1="0.0529384" x2="13.499" y2="30.4216" gradientUnits="userSpaceOnUse">
<stop offset="0.097" stop-color="#FFD879"/>
<stop offset="0.154" stop-color="#FCCB76"/>
<stop offset="0.258" stop-color="#F5AA6C"/>
<stop offset="0.398" stop-color="#E9755E"/>
<stop offset="0.449" stop-color="#E45F58"/>
<stop offset="0.679" stop-color="#D22A9C"/>
<stop offset="1" stop-color="#6968DF"/>
</linearGradient>
</defs>
</svg>
