<svg width="54" height="60" viewBox="0 0 54 60" fill="none" xmlns="http://www.w3.org/2000/svg">
<path d="M47.5624 54.2556H6.78456C5.96735 54.2556 5.27611 53.7663 5.16404 52.8461L1.14753 20.0759C1.06409 19.398 1.31768 18.7712 1.80522 18.3682C2.29277 17.9652 2.93737 17.9234 3.47973 18.2224L17.6251 25.9871L25.393 7.42035C25.6663 6.78057 26.2381 5.96899 26.8639 5.96899H26.8647C27.4905 5.96899 28.0614 6.78428 28.3355 7.42314L36.2785 26.1385L50.8599 18.1463C51.4047 17.8464 52.0501 17.9615 52.5385 18.3617C53.0285 18.7656 53.2829 19.4667 53.2002 20.1464L49.1846 52.834C49.0708 53.7523 48.3788 54.2556 47.5624 54.2556ZM8.20956 50.5414H46.1374L49.5355 22.9256L36.2434 30.4006C35.8523 30.6161 35.4024 30.6969 34.9926 30.5371C34.5819 30.3765 34.2441 30.0617 34.0543 29.6188L26.8671 12.8822L19.8558 29.2826C19.4623 30.2047 18.4856 30.5956 17.6725 30.1471L4.8082 22.9043L8.20956 50.5414Z" fill="white"/>
<path d="M22.961 48.6842H11.0734C10.6685 48.6842 10.3241 48.5412 10.2644 48.0872L9.15762 39.8266C9.09054 39.3196 9.39812 38.8952 9.84476 38.8191C10.2849 38.7513 10.7078 38.9222 10.7749 39.4301L11.7769 46.8271H22.9602C23.4117 46.8271 23.7782 47.2422 23.7782 47.7557C23.7782 48.2692 23.4126 48.6842 22.961 48.6842Z" fill="white"/>
<path d="M9.46322 36.2368C9.06565 36.2368 8.71636 35.9071 8.65582 35.4466L8.16173 31.7323C8.09384 31.2253 8.40142 30.7517 8.84806 30.6746C9.29388 30.6078 9.7119 30.9476 9.77897 31.4546L10.2731 35.1689C10.341 35.6759 10.0334 36.1495 9.58674 36.2266C9.54502 36.2331 9.50412 36.2368 9.46322 36.2368Z" fill="white"/>
<path d="M47.5013 59.8271H6.59992C5.69682 59.8271 4.96387 58.9951 4.96387 57.9699C4.96387 56.9448 5.69682 56.1128 6.59992 56.1128H47.5013C48.4044 56.1128 49.1373 56.9448 49.1373 57.9699C49.1373 58.9951 48.4044 59.8271 47.5013 59.8271Z" fill="white"/>
<path d="M2.49348 15.81C2.0681 15.81 1.64273 15.6057 1.34006 15.2621C1.03739 14.9185 0.857422 14.4357 0.857422 13.9528C0.857422 13.4607 1.03739 12.9871 1.34006 12.6343C1.9454 11.9471 3.04156 11.9471 3.65508 12.6343C3.95775 12.9871 4.12953 13.4607 4.12953 13.9528C4.12953 14.4366 3.95775 14.9185 3.65508 15.2621C3.34423 15.6057 2.92703 15.81 2.49348 15.81Z" fill="white"/>
<path d="M51.5755 15.81C51.1501 15.81 50.7248 15.6057 50.4221 15.2621C50.1202 14.9185 49.9395 14.4357 49.9395 13.9528C49.9395 13.4607 50.1202 12.9871 50.4221 12.6343C51.0356 11.9471 52.1236 11.9471 52.7371 12.6343C53.0398 12.9871 53.2116 13.4607 53.2116 13.9528C53.2116 14.4366 53.0398 14.9185 52.7371 15.2621C52.4263 15.6057 52.0091 15.81 51.5755 15.81Z" fill="white"/>
<path d="M27.0345 4.66715C26.6091 4.66715 26.1837 4.46286 25.8811 4.11929C25.5784 3.77572 25.3984 3.30215 25.3984 2.81C25.3984 2.31786 25.5784 1.835 25.8811 1.49143C26.4864 0.804289 27.5826 0.804289 28.1961 1.49143C28.4988 1.835 28.6705 2.31786 28.6705 2.81C28.6705 3.30215 28.4988 3.77572 28.1961 4.11929C27.8852 4.46286 27.468 4.66715 27.0345 4.66715Z" fill="white"/>
</svg>
