<svg width="15" height="20" viewBox="0 0 15 20" fill="none" xmlns="http://www.w3.org/2000/svg">
<g id="Group 3">
<path id="Path 19" d="M14.0049 8.32923H12.7549V5.37162C12.7564 3.94903 12.193 2.58407 11.1884 1.57679C10.1839 0.569507 8.82045 0.00234935 7.39786 0C4.43693 0 2.04079 2.41132 2.04079 5.37506V8.32923H0.793097C0.585863 8.32885 0.386741 8.40972 0.238462 8.5545C0.0901837 8.69927 0.00457294 8.89641 0 9.10359V18.066C0.00512288 18.5804 0.213003 19.0721 0.578495 19.4342C0.943988 19.7963 1.43758 19.9997 1.95208 20H12.8461C13.3603 19.9995 13.8536 19.7961 14.2187 19.434C14.5837 19.0718 14.7911 18.5802 14.7957 18.066V9.10359C14.7917 8.89663 14.7066 8.69954 14.5587 8.55472C14.4108 8.40989 14.2119 8.32892 14.0049 8.32923ZM3.57138 5.37506C3.57116 4.87256 3.66991 4.37493 3.862 3.91059C4.05409 3.44625 4.33575 3.0243 4.69091 2.66882C5.04607 2.31334 5.46778 2.03129 5.93194 1.83879C6.39611 1.64628 6.89364 1.54707 7.39614 1.54685C7.89865 1.54662 8.39627 1.64537 8.8606 1.83746C9.32494 2.02955 9.74689 2.31123 10.1024 2.66639C10.4579 3.02155 10.7399 3.44325 10.9324 3.90741C11.1249 4.37158 11.2241 4.86912 11.2243 5.37162V8.32923H3.57138V5.37506ZM13.2014 18.0662C13.2014 18.2793 13.0591 18.4697 12.8461 18.4697H1.95208C1.73901 18.4697 1.59437 18.2793 1.59437 18.0662V9.85982H13.2014V18.0662Z" fill="#303030"/>
<path id="Path 20" d="M7.39813 16.4822C7.49921 16.482 7.59927 16.4619 7.69253 16.4229C7.7858 16.384 7.87043 16.3269 7.94157 16.2551C8.0127 16.1833 8.06892 16.0981 8.107 16.0045C8.14507 15.9109 8.16426 15.8106 8.16343 15.7095V12.9281C8.16343 12.7252 8.0828 12.5305 7.93928 12.387C7.79576 12.2435 7.6011 12.1628 7.39813 12.1628C7.19517 12.1628 7.00051 12.2435 6.85698 12.387C6.71346 12.5305 6.63284 12.7252 6.63284 12.9281V15.7095C6.63201 15.8106 6.65117 15.9109 6.68925 16.0045C6.72732 16.0981 6.78355 16.1833 6.85468 16.2551C6.92581 16.327 7.01045 16.384 7.10372 16.4229C7.19699 16.4619 7.29705 16.482 7.39813 16.4822Z" fill="#303030"/>
</g>
</svg>
