<svg width="179" height="14" viewBox="0 0 179 14" fill="none" xmlns="http://www.w3.org/2000/svg">
<path d="M7.46055 11.3934V3.27357H5.66835V6.52201H1.7922V3.27357H0V11.3934H1.7922V7.9012H5.66835V11.3934H7.46055ZM9.06961 3.27357V4.65276H13.0683C13.3436 4.65276 13.696 4.69823 13.941 5.00514C14.1406 5.25016 14.1709 5.52676 14.1709 5.77178V6.33761H10.6471C10.2189 6.33761 9.66701 6.36918 9.16181 6.81249C8.54799 7.34927 8.47221 8.06918 8.47221 8.78909C8.47221 9.38649 8.51768 10.4285 9.17571 10.9956C9.6367 11.3934 10.2025 11.3934 10.6471 11.3934H14.5233C14.9059 11.3934 15.3505 11.3631 15.641 11.0713C15.9328 10.7808 15.9631 10.3211 15.9631 10.0306V5.81725C15.9631 4.91294 15.7029 4.25492 15.3657 3.90254C14.9981 3.51985 14.3692 3.27357 13.6808 3.27357H9.06961V3.27357ZM14.1709 7.7168V9.58605C14.1709 9.70856 14.1709 9.81591 14.0484 9.92327C13.9259 10.0142 13.7566 10.0142 13.6493 10.0142H11.1523C10.9224 10.0142 10.6938 9.89169 10.5701 9.77045C10.3566 9.53932 10.3263 9.11116 10.3263 8.86614C10.3263 8.28389 10.4627 8.06918 10.5246 7.99214C10.7241 7.73196 11.0614 7.7168 11.1839 7.7168H14.1709V7.7168ZM24.0362 11.3934V10.0142H21.1262C20.3747 10.0142 19.4869 9.93843 19.0877 9.15663C18.873 8.72721 18.8276 7.94667 18.8276 7.47178C18.8276 7.22676 18.8427 6.36918 18.9652 5.93976C19.1648 5.25016 19.747 4.65276 20.957 4.65276H23.853V3.27357H20.3747C18.9198 3.27357 18.2302 3.81034 17.8929 4.14756C16.9899 5.08218 16.9735 6.47654 16.9735 7.44147C16.9735 8.58954 17.0354 9.6012 17.7098 10.3982C18.4449 11.2709 19.5172 11.3934 20.1297 11.3934H24.0362V11.3934ZM24.2787 11.3934H26.1201L28.6171 5.12765C28.6474 5.05187 28.6929 4.89779 28.7699 4.89779C28.847 4.89779 28.8924 5.05187 28.924 5.12765L31.421 11.3934H33.2586L29.9647 3.85581C29.75 3.38092 29.2612 3.18263 28.7699 3.18263C28.2799 3.18263 27.7898 3.38092 27.5751 3.85581L24.2787 11.3934V11.3934ZM34.101 3.27357V4.65276H38.0997C38.3763 4.65276 38.7274 4.69823 38.9724 5.00514C39.172 5.25016 39.2023 5.52676 39.2023 5.77178V6.33761H35.6785C35.2504 6.33761 34.6984 6.36918 34.1932 6.81249C33.5807 7.34927 33.5036 8.06918 33.5036 8.78909C33.5036 9.38649 33.5504 10.4285 34.2084 10.9956C34.6681 11.3934 35.2352 11.3934 35.6785 11.3934H39.5547C39.9374 11.3934 40.3819 11.3631 40.6737 11.0713C40.9642 10.7808 40.9945 10.3211 40.9945 10.0306V5.81725C40.9945 4.91294 40.7343 4.25492 40.3984 3.90254C40.0308 3.51985 39.4019 3.27357 38.7123 3.27357H34.101V3.27357ZM39.2023 7.7168V9.58605C39.2023 9.70856 39.2023 9.81591 39.0798 9.92327C38.9573 10.0142 38.7893 10.0142 38.6819 10.0142H36.185C35.9551 10.0142 35.7253 9.89169 35.6028 9.77045C35.388 9.53932 35.3577 9.11116 35.3577 8.86614C35.3577 8.28389 35.4954 8.06918 35.5573 7.99214C35.7556 7.73196 36.0928 7.7168 36.2153 7.7168H39.2023V7.7168ZM48.6395 11.3934V3.27357H46.9091V11.3934H48.6395ZM54.2459 11.3934L51.1819 7.82416C51.0606 7.68649 50.8459 7.36443 50.8459 7.19645C50.8459 7.11941 50.8762 6.95143 51.1819 6.59779L53.9554 3.27357H51.8715L49.5741 6.15447C49.2987 6.50685 49.007 6.90469 49.007 7.25707C49.007 7.62461 49.2836 7.94667 49.4819 8.17654L52.1317 11.3934H54.2459ZM41.2989 11.3934H43.4157L46.0655 8.17654C46.265 7.94667 46.5403 7.62461 46.5403 7.25707C46.5403 6.90469 46.2499 6.50685 45.9745 6.15447L43.6607 3.27357H41.5742L44.3655 6.59779C44.488 6.73672 44.7027 7.05878 44.7027 7.19645C44.7027 7.34927 44.4728 7.68649 44.3655 7.82416L41.2989 11.3934ZM54.5225 10.0142H53.7837V11.3934H62.9328V10.0142H62.2129L59.6692 3.97958C59.5013 3.58047 59.2259 3.18263 58.3671 3.18263C57.5398 3.18263 57.2342 3.53501 57.0498 3.97958L54.5225 10.0142ZM58.1991 4.97483C58.2294 4.88263 58.3065 4.76012 58.3671 4.76012C58.4593 4.76012 58.4896 4.89779 58.5212 4.97483L60.4662 10.0142H56.268L58.1991 4.97483ZM63.7753 3.27357V4.65276H67.7739C68.0493 4.65276 68.4016 4.69823 68.6467 5.00514C68.8462 5.25016 68.8765 5.52676 68.8765 5.77178V6.33761H65.3528C64.9246 6.33761 64.3727 6.36918 63.8675 6.81249C63.2549 7.34927 63.1779 8.06918 63.1779 8.78909C63.1779 9.38649 63.2233 10.4285 63.8826 10.9956C64.3424 11.3934 64.9082 11.3934 65.3528 11.3934H69.2289C69.6116 11.3934 70.0562 11.3631 70.3479 11.0713C70.6384 10.7808 70.6687 10.3211 70.6687 10.0306V5.81725C70.6687 4.91294 70.4085 4.25492 70.0713 3.90254C69.7038 3.51985 69.0761 3.27357 68.3865 3.27357H63.7753V3.27357ZM68.8765 7.7168V9.58605C68.8765 9.70856 68.8765 9.81591 68.754 9.92327C68.6315 10.0142 68.4623 10.0142 68.3549 10.0142H65.8592C65.6293 10.0142 65.3995 9.89169 65.277 9.77045C65.0623 9.53932 65.032 9.11116 65.032 8.86614C65.032 8.28389 65.1684 8.06918 65.2302 7.99214C65.4298 7.73196 65.767 7.7168 65.8895 7.7168H68.8765ZM79.8457 11.3934V4.4229C79.8457 3.21294 78.9111 3.18263 78.666 3.18263C78.2985 3.18263 77.8843 3.27357 77.5635 3.7333L73.9475 9.04927C73.8856 9.14147 73.825 9.26398 73.7328 9.26398C73.6103 9.26398 73.6103 9.1882 73.6103 9.04927L73.6873 3.27357H71.8951V10.3363C71.8951 10.7657 72.0163 11.4881 73.0735 11.4881C73.6873 11.4881 73.9475 11.2709 74.238 10.8415L77.8072 5.6177C77.931 5.43456 77.9916 5.40299 78.0219 5.40299C78.1457 5.40299 78.1141 5.49519 78.1141 5.6177L78.0535 11.3934H79.8457V11.3934ZM75.8925 1.80343C75.5401 1.80343 75.1423 1.74281 74.8354 1.4359C74.6674 1.26792 74.5146 0.976166 74.4527 0.776611H73.0596C73.2276 1.35886 73.5648 2.00299 73.9323 2.32379C74.5297 2.86056 75.3418 2.92245 75.8925 2.92245C76.4444 2.92245 77.2565 2.86056 77.8539 2.32379C78.2215 2.00299 78.5587 1.35886 78.7267 0.776611H77.3323C77.2717 0.976166 77.1189 1.26792 76.9496 1.4359C76.644 1.74281 76.2461 1.80343 75.8925 1.80343ZM85.2993 11.3934V4.65276H88.347V3.27357H80.4583V4.65276H83.5071V11.3934H85.2993ZM96.314 11.3934V10.0142H92.3456C91.6876 10.0142 90.9374 9.92327 90.7062 9.04927C90.6456 8.80425 90.6002 8.28389 90.6002 7.93151H95.3175C95.6395 7.93151 95.9464 7.86963 96.1915 7.62461C96.5287 7.28738 96.5742 6.8125 96.5742 6.39949C96.5742 5.37267 96.3746 4.36227 95.4248 3.76487C94.6746 3.28998 93.6945 3.24325 92.7435 3.24325C91.9781 3.24325 90.6002 3.24325 89.711 4.0099C88.8218 4.77528 88.7461 5.89429 88.7461 7.4099C88.7461 8.48345 88.7915 9.6012 89.3283 10.3666C90.0015 11.3176 90.9828 11.3934 91.8101 11.3934H96.314V11.3934ZM90.6002 6.55232C90.6153 6.01554 90.6002 5.57223 90.9677 5.15923C91.4577 4.60729 92.1928 4.62245 92.6677 4.62245C93.1729 4.62245 93.7551 4.65276 94.1997 4.98998C94.4599 5.18954 94.7201 5.57223 94.7201 6.07743C94.7201 6.29214 94.6746 6.55232 94.3222 6.55232H90.6002ZM104.434 11.3934V10.0142H101.523C100.772 10.0142 99.8832 9.93843 99.4854 9.15663C99.2707 8.72721 99.2252 7.94667 99.2252 7.47178C99.2252 7.22676 99.2403 6.36918 99.3629 5.93976C99.5624 5.25016 100.143 4.65276 101.355 4.65276H104.249V3.27357H100.772C99.3174 3.27357 98.6265 3.81034 98.2906 4.14756C97.3863 5.08218 97.3711 6.47654 97.3711 7.44147C97.3711 8.58954 97.4317 9.6012 98.1062 10.3982C98.8412 11.2709 99.9135 11.3934 100.527 11.3934H104.434V11.3934ZM105.444 3.27357V10.1519C105.444 10.4739 105.444 10.8112 105.751 11.1016C106.042 11.3782 106.379 11.3934 106.654 11.3934H110.775C111.282 11.3934 111.879 11.3782 112.339 10.964C112.92 10.4436 112.95 9.49385 112.95 8.95833C112.95 8.3142 112.905 7.53367 112.415 6.96532C111.97 6.46012 111.404 6.35276 110.898 6.35276H107.236V3.27357H105.444V3.27357ZM107.236 7.73196H110.148C110.347 7.73196 110.669 7.74712 110.883 7.99214C111.113 8.23716 111.097 8.62111 111.097 8.85098C111.097 9.14147 111.082 9.52416 110.883 9.75403C110.669 9.99905 110.347 10.0142 110.087 10.0142H107.743C107.604 10.0142 107.451 9.99905 107.344 9.89169C107.221 9.77045 107.236 9.57089 107.236 9.44838V7.73196V7.73196ZM117.502 10.0142H116.763V11.3934H125.912V10.0142H125.193L122.649 3.97958C122.481 3.58047 122.204 3.18263 121.347 3.18263C120.519 3.18263 120.212 3.53501 120.029 3.97958L117.502 10.0142ZM121.177 4.97483C121.209 4.88263 121.285 4.76012 121.347 4.76012C121.439 4.76012 121.469 4.89779 121.499 4.97483L123.446 10.0142H119.248L121.177 4.97483ZM130.477 3.18263C129.512 3.18263 128.087 3.21294 127.199 4.04021C126.264 4.91294 126.156 6.44496 126.156 7.36443C126.156 8.19169 126.233 9.72372 127.199 10.6129C128.087 11.4262 129.512 11.4881 130.477 11.4881C131.412 11.4881 132.883 11.4262 133.756 10.6129C134.353 10.0458 134.796 9.01896 134.796 7.30254C134.796 6.44496 134.69 4.91294 133.756 4.04021C132.867 3.21294 131.442 3.18263 130.477 3.18263ZM128.01 7.34927C128.01 6.82765 128.01 5.78694 128.517 5.20469C129.022 4.62245 129.895 4.56056 130.477 4.56056C131.121 4.56056 131.902 4.62245 132.422 5.20469C132.989 5.83241 132.944 6.75187 132.944 7.34927C132.944 8.05403 132.944 8.83456 132.407 9.43322C131.871 10.0306 131.151 10.1064 130.477 10.1064C129.834 10.1064 129.052 10.0306 128.532 9.43322C128.025 8.85098 128.01 8.02371 128.01 7.34927V7.34927ZM137.601 11.3934H139.869C140.696 11.3934 141.951 11.3328 142.718 10.2289C143.3 9.40291 143.361 8.23716 143.361 7.16487C143.361 6.27698 143.33 5.0203 142.503 4.16272C141.721 3.35061 140.634 3.27357 140.114 3.27357H137.279C136.973 3.27357 136.575 3.30514 136.268 3.53501C136.068 3.68783 135.808 3.99348 135.808 4.53025V14.0002H137.601V11.3934V11.3934ZM137.601 10.0142V5.03545C137.601 4.94452 137.632 4.85232 137.723 4.76012C137.785 4.71465 137.892 4.65276 137.969 4.65276H139.73C140.527 4.65276 141.063 5.05187 141.293 5.57223C141.384 5.78694 141.508 6.21636 141.508 7.31896C141.508 8.52892 141.339 9.01896 141.171 9.26398C140.971 9.58605 140.527 10.0142 139.639 10.0142H137.601V10.0142ZM148.477 3.18263C147.512 3.18263 146.088 3.21294 145.2 4.04021C144.265 4.91294 144.158 6.44496 144.158 7.36443C144.158 8.19169 144.234 9.72372 145.2 10.6129C146.088 11.4262 147.512 11.4881 148.477 11.4881C149.412 11.4881 150.883 11.4262 151.756 10.6129C152.353 10.0458 152.798 9.01896 152.798 7.30254C152.798 6.44496 152.691 4.91294 151.756 4.04021C150.867 3.21294 149.442 3.18263 148.477 3.18263V3.18263ZM146.012 7.34927C146.012 6.82765 146.012 5.78694 146.517 5.20469C147.022 4.62245 147.895 4.56056 148.477 4.56056C149.121 4.56056 149.902 4.62245 150.423 5.20469C150.991 5.83241 150.944 6.75187 150.944 7.34927C150.944 8.05403 150.944 8.83456 150.408 9.43322C149.872 10.0306 149.152 10.1064 148.477 10.1064C147.834 10.1064 147.053 10.0306 146.532 9.43322C146.027 8.85098 146.012 8.02371 146.012 7.34927ZM155.602 11.3934V5.29689C155.602 5.09734 155.585 4.94452 155.724 4.80559C155.8 4.72981 155.939 4.65276 156.092 4.65276H160.596V3.27357H154.943C154.605 3.27357 154.223 3.3203 153.978 3.70299C153.81 3.96316 153.81 4.28523 153.81 4.6073V11.3934H155.602V11.3934ZM165.009 3.18263C164.042 3.18263 162.618 3.21294 161.73 4.04021C160.795 4.91294 160.688 6.44496 160.688 7.36443C160.688 8.19169 160.765 9.72372 161.73 10.6129C162.618 11.4262 164.042 11.4881 165.009 11.4881C165.942 11.4881 167.413 11.4262 168.286 10.6129C168.884 10.0458 169.328 9.01896 169.328 7.30254C169.328 6.44496 169.221 4.91294 168.286 4.04021C167.398 3.21294 165.972 3.18263 165.009 3.18263V3.18263ZM162.542 7.34927C162.542 6.82765 162.542 5.78694 163.047 5.20469C163.552 4.62245 164.426 4.56056 165.009 4.56056C165.651 4.56056 166.433 4.62245 166.954 5.20469C167.521 5.83241 167.474 6.75187 167.474 7.34927C167.474 8.05403 167.474 8.83456 166.938 9.43322C166.402 10.0306 165.682 10.1064 165.009 10.1064C164.364 10.1064 163.583 10.0306 163.062 9.43322C162.557 8.85098 162.542 8.02371 162.542 7.34927ZM178.29 11.3934V4.4229C178.29 3.21294 177.356 3.18263 177.111 3.18263C176.743 3.18263 176.329 3.27357 176.008 3.7333L172.392 9.04927C172.331 9.14147 172.27 9.26398 172.177 9.26398C172.055 9.26398 172.055 9.1882 172.055 9.04927L172.132 3.27357H170.34V10.3363C170.34 10.7657 170.462 11.4881 171.519 11.4881C172.132 11.4881 172.392 11.2709 172.684 10.8415L176.253 5.6177C176.376 5.43456 176.436 5.40299 176.468 5.40299C176.59 5.40299 176.559 5.49519 176.559 5.6177L176.498 11.3934H178.29V11.3934ZM174.338 1.80343C173.985 1.80343 173.587 1.74281 173.281 1.4359C173.112 1.26792 172.959 0.976166 172.897 0.776611H171.504C171.672 1.35886 172.009 2.00299 172.377 2.32379C172.974 2.86056 173.786 2.92245 174.338 2.92245C174.889 2.92245 175.701 2.86056 176.299 2.32379C176.666 2.00299 177.003 1.35886 177.171 0.776611H175.777C175.716 0.976166 175.564 1.26792 175.396 1.4359C175.089 1.74281 174.691 1.80343 174.338 1.80343V1.80343Z" fill="#DD062A"/>
</svg>
