<?xml version="1.0" encoding="UTF-8"?>
<!DOCTYPE svg PUBLIC "-//W3C//DTD SVG 1.0//EN" "http://www.w3.org/TR/2001/REC-SVG-20010904/DTD/svg10.dtd">
<!-- Creator: CorelDRAW -->
<svg xmlns="http://www.w3.org/2000/svg" xml:space="preserve" width="100%" height="100%" version="1.0" style="shape-rendering:geometricPrecision; text-rendering:geometricPrecision; image-rendering:optimizeQuality; fill-rule:evenodd; clip-rule:evenodd"
viewBox="0 0 5324.58 689.56"
 xmlns:xlink="http://www.w3.org/1999/xlink"
 xmlns:xodm="http://www.corel.com/coreldraw/odm/2003">
 <defs>
  <style type="text/css">
   <![CDATA[
    .fil0 {fill:#434242}
    .fil1 {fill:#B12622}
    .fil2 {fill:#FEFEFE;fill-rule:nonzero}
   ]]>
  </style>
 </defs>
 <g id="Слой_x0020_1">
  <metadata id="CorelCorpID_0Corel-Layer"/>
  <path class="fil0" d="M337.96 125.13c6.56,13.49 12.68,27.11 18.3,40.92 5.63,13.72 10.82,27.73 15.54,42.07 2.46,6.94 4.98,13.99 7.27,21.21 2.44,7.17 4.55,14.19 6.72,21.2 2.18,7.36 4.28,14.68 6.23,21.8 1.91,7.18 3.77,14.22 5.47,21.18 6.32,26.24 11.79,52.09 16.52,77.45 4.76,25.44 8.33,50.67 10.88,75.61 2.9,24.95 5.17,48.63 6.88,71.02 1.71,22.32 2.88,43.5 3.53,63.54l-127.34 0c-0.04,-0.33 -0.1,-0.77 -0.16,-1.18 -0.05,-0.41 -0.1,-0.78 -0.16,-1.24 -0.04,-0.34 -0.13,-1.03 -0.24,-1.83 -0.11,-0.83 -0.19,-1.47 -0.24,-1.83 -0.11,-0.83 -0.23,-1.78 -0.36,-2.76 -0.14,-1.06 -0.11,-1.94 0.18,-2.82 -0.04,-0.36 -0.1,-0.8 -0.16,-1.23 -0.16,-1.22 -0.33,-2.56 -0.52,-3.98 -0.18,-1.39 -0.22,-2.99 0,-4.59 -0.21,-1.65 -0.35,-3.48 -0.41,-5.49 -0.08,-2.09 -0.12,-4.36 -0.01,-6.79 -0.27,-2.09 -0.39,-3.92 -0.4,-5.55 -0.06,-1.65 0.08,-3.27 0.27,-4.92 -0.22,-1.65 -0.34,-3.15 -0.35,-4.59 0.06,-1.42 0.14,-2.97 0.3,-4.6 -0.43,-0.41 -0.72,-0.85 -0.77,-1.24 -0.05,-0.41 0.12,-0.85 0.45,-1.26l-0.09 -0.64c-0.05,-0.37 -0.08,-0.65 -0.11,-0.88 -0.04,-0.23 -0.07,-0.49 -0.13,-0.93 -0.15,-1.19 -0.34,-2.58 -0.53,-4.02 -0.18,-1.4 -0.16,-2.97 0.02,-4.54 -0.17,-1.29 -0.37,-2.79 -0.62,-4.67 -0.24,-1.86 -0.29,-3.59 -0.08,-5.22l-126.17 0c2.55,-8.17 5.28,-16.3 8.26,-24.25 3.01,-7.99 6.02,-15.91 9,-23.68 1.5,-4.07 2.95,-8.07 4.43,-11.99 1.52,-3.87 3,-7.85 4.49,-11.95 1.54,-3.69 3.12,-7.51 4.81,-11.4 1.72,-3.92 3.33,-7.87 4.76,-12l77.9 0c-0.37,-2.81 -0.87,-5.67 -1.43,-8.56 -0.56,-2.92 -1.07,-5.81 -1.43,-8.59 -0.33,-2.51 -0.73,-5.16 -1.36,-8.03 -0.55,-2.83 -1.06,-5.75 -1.43,-8.56 -1.14,-5.75 -2.13,-11.2 -3.06,-16.33 -0.85,-5.11 -2.02,-10.35 -3.55,-15.63 -1.95,-8.65 -3.99,-16.7 -6.21,-24.33 -2.21,-7.53 -4.29,-14.47 -6.33,-20.56 -2.38,-6.17 -4.19,-11.43 -5.33,-15.66 -1.23,-4.36 -2.1,-7.33 -2.75,-8.98 -7.52,13.16 -15.01,26.57 -22.45,40.3 -7.47,13.72 -14.48,27.73 -21.05,42.12 -6.96,14.35 -13.72,28.67 -20.3,42.98 -6.52,14.37 -12.72,28.74 -18.52,43.01 -4.85,11.92 -9.69,23.66 -14.36,35.37 -4.67,11.68 -9.05,23.47 -13.15,35.32 -3.73,11.53 -7.44,22.96 -11.15,34.46 -3.74,11.46 -7.08,22.7 -10.09,33.74l-127.37 0c3.94,-13.02 8.13,-26.31 12.56,-39.62 4.54,-13.29 9.49,-26.88 14.9,-40.84 5.02,-13.9 10.29,-28.02 15.91,-42.13 5.59,-14.13 11.27,-28.17 17.07,-42.1 11.64,-27.83 23.76,-55.18 36.25,-82.01 12.64,-26.86 25.9,-53.22 39.84,-79.02 13.52,-25.77 26.93,-49.61 40.46,-71.23 13.41,-21.75 26.59,-41.43 39.58,-59.05l121.39 0zm423.79 0c21.34,0 39.61,1.96 54.82,5.83 15.19,3.9 27.34,9.75 36.41,17.52 9.07,7.82 16.69,15.92 22.79,24.27 6.2,8.44 10.46,17.37 12.91,26.76 0.95,4.07 1.8,8.1 2.49,11.97 0.72,3.92 1.12,7.74 1.14,11.4 0.18,3.66 0.1,7.25 -0.08,10.73 -0.1,3.48 -0.39,6.84 -0.75,10.14 -1.65,11.51 -4.84,22.16 -9.4,31.96 -4.51,9.83 -10.53,18.45 -18.07,25.83 -7.42,7.38 -15.09,13.82 -22.75,19.32 -7.74,5.57 -15.56,10.22 -23.53,13.85l-0.65 0 -0.5 0.65 -0.59 0 -0.47 1.24c16.12,6.14 29.13,13.36 39.05,21.77 10.01,8.44 16.94,17.98 20.67,28.58 4.26,10.63 6.97,21.62 8.3,32.9 1.27,11.24 1.12,22.83 -0.6,34.75 -1.91,15.94 -7.05,31.21 -15.38,45.76 -8.35,14.55 -19.53,28.35 -33.47,41.48 -14.42,13.08 -32.54,22.94 -54.46,29.52 -21.87,6.5 -47.72,9.77 -77.5,9.77l-230.59 0 59.57 -456 230.64 0zm-102 170.27l46.53 0c1.17,0 2.38,0 3.6,0 1.22,0 2.41,0 3.62,0 0.76,0 1.55,0 2.11,0 0.58,0 1.29,-0.23 2.05,-0.6 0.4,0 0.99,0 1.82,0 0.79,0 1.55,0 2.39,0 2.8,-0.46 5.46,-0.82 8.01,-1.29 2.56,-0.38 5.19,-0.98 7.92,-1.8 2.28,-0.83 4.7,-1.86 7.1,-3.1 2.5,-1.24 5.05,-2.45 7.7,-3.71 4.52,-2.4 8.19,-6.12 11.19,-11.07 3,-4.9 4.86,-10.63 5.59,-17.21 1.05,-7.27 0.59,-13.46 -1.53,-18.39 -2.04,-4.9 -5.59,-8.39 -10.73,-10.47 -5.43,-2.02 -10.9,-3.67 -16.33,-4.88 -5.36,-1.26 -11.34,-2.06 -17.86,-2.45 -0.73,0 -1.57,0 -2.43,0 -0.76,0 -1.54,0 -2.38,0 -0.81,0 -1.57,0 -2.38,0 -0.79,0 -1.62,0 -2.44,0l-67 0 -35.15 265.48 70.05 0c9.6,0 18.23,-0.72 25.67,-2.14 7.44,-1.44 13.85,-3.56 19.07,-6.45 4.79,-3.3 8.93,-6.5 12.32,-9.59 3.41,-3.02 6.36,-6.4 8.65,-10.14 0.98,-1.6 1.91,-3.25 2.66,-4.88 0.83,-1.6 1.55,-3.22 2.04,-4.92 0.62,-1.58 1.1,-3.15 1.22,-4.6 0.24,-1.39 0.47,-2.73 0.73,-4.02 1.04,-7.38 0.98,-13.75 -0.13,-19.32 -1.13,-5.52 -3.38,-9.88 -6.61,-13.26 -3.15,-3.2 -6.92,-5.99 -11.04,-8.26 -4.15,-2.27 -8.28,-4 -12.45,-5.21 -2.95,-0.85 -5.7,-1.34 -8.33,-1.52 -2.64,-0.26 -5.22,-0.36 -7.57,-0.36 -1.25,0 -2.49,0 -3.65,0 -1.19,0 -2.43,-0.18 -3.76,-0.6 -0.76,0 -1.69,0 -2.68,0 -0.99,0 -1.95,0 -2.71,0 -0.41,0 -0.81,0 -1.17,0l-0.63 0 -45.29 0 12.21 -95.24zm626.66 -170.27l-13.15 102.01 -106.82 0 -46.5 353.99 -127.39 0 46.47 -353.99 -106.87 0 13.18 -102.01 341.08 0zm-10.48 228c5.36,-38.9 15.44,-73.24 30.29,-102.96 14.74,-29.69 34.58,-54.61 59.29,-74.66 25.11,-20.45 52.17,-35.75 81.21,-45.76 29.06,-10.06 60.14,-15.04 93.13,-15.04 32.62,0 61.93,4.98 88.01,15.04 26.05,10.01 48.95,25.31 68.51,45.76 19.9,20.05 33.69,44.97 41.22,74.66 7.53,29.72 8.57,64.06 3.24,102.96 -4.94,38.96 -15.06,73.17 -30.54,102.68 -15.47,29.46 -35.75,54.48 -60.77,74.99 -24.76,20.05 -51.56,35.01 -80.47,44.87 -28.9,9.8 -59.64,14.75 -92.23,14.75 -33.05,0 -62.64,-4.95 -88.89,-14.75 -26.23,-9.86 -49.39,-24.82 -69.31,-44.87 -19.54,-20.51 -32.84,-45.53 -39.71,-74.99 -6.89,-29.51 -7.89,-63.72 -2.98,-102.68zm131.05 0c-2.52,18.04 -2.86,34.96 -1.17,50.72 1.65,15.84 5.62,30.42 11.81,43.94 6.22,13.54 15.26,23.7 27.21,30.44 11.96,6.73 27.18,10.11 45.71,10.11 18.14,0 34.2,-3.38 48.21,-10.11 14.02,-6.74 25.73,-16.9 35.23,-30.44 9.45,-13.52 17.21,-28.1 23.19,-43.94 5.96,-15.76 10.2,-32.68 12.64,-50.72 2.09,-18.03 2.28,-34.9 0.56,-50.69 -1.64,-15.76 -5.59,-30.44 -11.8,-43.91 -5.78,-13.52 -14.75,-23.68 -26.92,-30.52 -12.16,-6.68 -27.27,-10.06 -45.42,-10.06 -18.5,0 -34.78,3.38 -48.8,10.06 -13.98,6.84 -25.69,17 -35.25,30.52 -9.45,13.47 -17.15,28.15 -23.19,43.91 -5.91,15.79 -10,32.66 -12.01,50.69zm650.41 -228.57c6.58,13.44 12.7,27.01 18.3,40.69 5.6,13.7 10.78,27.63 15.42,41.92 2.59,6.96 4.95,13.98 7.29,21.13 2.38,7.17 4.54,14.13 6.75,21.13 2.11,7.32 4.15,14.62 6.1,21.72 1.96,7.19 3.77,14.21 5.52,21.15 6.19,26.11 11.7,51.8 16.4,77.14 4.79,25.25 8.37,50.35 10.86,75.3 2.81,24.87 5.13,48.45 6.86,70.69 1.75,22.21 2.88,43.34 3.54,63.36l-126.94 0c-0.05,-0.42 -0.11,-0.85 -0.17,-1.27 -0.05,-0.38 -0.1,-0.77 -0.15,-1.16 -0.06,-0.46 -0.14,-1.06 -0.24,-1.83 -0.11,-0.88 -0.19,-1.47 -0.25,-1.88 -0.1,-0.8 -0.22,-1.73 -0.35,-2.71 -0.14,-1.06 -0.04,-1.99 0.27,-2.76 -0.06,-0.47 -0.11,-0.83 -0.17,-1.29 -0.16,-1.19 -0.33,-2.53 -0.52,-3.95 -0.19,-1.44 -0.19,-2.97 0.04,-4.54 -0.22,-1.68 -0.41,-3.48 -0.48,-5.55 -0.05,-2.09 -0.06,-4.28 0.02,-6.75 -0.26,-1.99 -0.37,-3.85 -0.41,-5.47 0,-1.71 0.05,-3.28 0.26,-4.93 -0.21,-1.65 -0.31,-3.15 -0.37,-4.54 0.06,-1.47 0.17,-2.99 0.38,-4.65 -0.48,-0.41 -0.76,-0.8 -0.82,-1.21 -0.05,-0.41 0.12,-0.82 0.5,-1.21l-0.08 -0.65c-0.05,-0.36 -0.1,-0.72 -0.12,-0.9 -0.02,-0.18 -0.07,-0.51 -0.12,-0.93 -0.16,-1.24 -0.34,-2.55 -0.53,-4 -0.17,-1.34 -0.21,-2.96 -0.04,-4.56 -0.16,-1.19 -0.36,-2.76 -0.6,-4.57 -0.24,-1.83 -0.27,-3.61 -0.08,-5.24l-125.7 0c2.56,-8.15 5.3,-16.2 8.28,-24.17 2.96,-7.97 5.94,-15.76 8.92,-23.55 1.46,-4.08 2.91,-8.08 4.48,-11.97 1.47,-3.85 2.92,-7.82 4.41,-11.92 1.55,-3.66 3.16,-7.43 4.8,-11.33 1.75,-3.87 3.32,-7.86 4.82,-11.94l77.52 0c-0.38,-2.84 -0.85,-5.68 -1.44,-8.59 -0.59,-2.81 -1.05,-5.7 -1.42,-8.54 -0.33,-2.48 -0.75,-5.11 -1.36,-8 -0.55,-2.83 -1,-5.67 -1.37,-8.51 -1.19,-5.78 -2.2,-11.12 -3.13,-16.28 -0.79,-5.08 -2,-10.24 -3.49,-15.58 -1.96,-8.54 -3.99,-16.64 -6.22,-24.17 -2.16,-7.56 -4.25,-14.4 -6.27,-20.51 -2.4,-6.12 -4.2,-11.33 -5.38,-15.64 -1.14,-4.25 -2.04,-7.25 -2.66,-8.9 -7.47,13.16 -14.94,26.5 -22.35,40.15 -7.47,13.72 -14.42,27.7 -20.95,41.89 -6.96,14.32 -13.7,28.61 -20.28,42.9 -6.49,14.29 -12.67,28.56 -18.39,42.85 -4.86,11.84 -9.65,23.58 -14.33,35.24 -4.66,11.56 -9.07,23.35 -13.14,35.19 -3.66,11.43 -7.36,22.81 -11.08,34.24 -3.72,11.42 -7.03,22.67 -10.07,33.69l-126.83 0c3.91,-13.06 8.08,-26.21 12.55,-39.47 4.49,-13.26 9.39,-26.89 14.79,-40.71 5.01,-13.93 10.24,-27.94 15.85,-41.98 5.52,-14.08 11.21,-28.04 16.99,-41.92 11.61,-27.76 23.69,-55 36.19,-81.7 12.53,-26.78 25.71,-52.96 39.56,-78.66 13.47,-25.72 26.91,-49.43 40.28,-71.07 13.38,-21.62 26.52,-41.17 39.47,-58.72l120.88 0zm424.08 101.62c-3.53,0 -7.57,0.08 -11.93,0.29 -4.41,0.2 -9.39,0.67 -14.87,1.54 -5.52,0.42 -11.08,1.5 -16.7,3.33 -5.58,1.88 -11.2,4 -16.91,6.45 -9.39,4.52 -18.98,11.04 -28.7,19.58 -9.67,8.57 -19.12,19.19 -28.26,31.81 -9.2,12.69 -16.85,28.89 -23.07,48.68 -6.22,19.81 -11.15,43.39 -14.78,70.71 -0.22,4.1 -0.76,8.49 -1.56,13.19 -0.8,4.69 -1.44,9.46 -2.06,14.39 -0.04,2.43 -0.22,4.9 -0.48,7.33 -0.31,2.5 -0.67,5.13 -1.06,7.94 -0.55,8.18 -1.09,16.41 -1.58,24.82 -0.49,8.41 -1.04,16.61 -1.53,24.79 -0.68,6.97 -1.33,13.78 -1.82,20.51 -0.5,6.79 -0.69,13.6 -0.6,20.49 -0.4,6.55 -0.58,12.89 -0.82,18.98 -0.18,6.17 -0.32,12.05 -0.38,17.78l-128.1 0c-0.17,-22.89 -0.03,-43.39 0.67,-61.56 0.59,-18.11 1.4,-33.95 2.46,-47.41 1.5,-13.47 2.62,-25.41 3.74,-35.81 1.01,-10.42 1.85,-19.07 2.58,-26 5.76,-44.53 14.43,-82.87 26.03,-115.12 11.62,-32.24 25.93,-58.35 42.92,-78.32 17.06,-19.99 34.3,-36.55 51.83,-49.66 17.5,-13.03 35.28,-22.6 53.43,-28.71 6.46,-2.12 12.97,-3.9 19.35,-5.5 6.37,-1.65 12.72,-2.89 19.04,-3.74 6.32,-0.75 12.44,-1.42 18.39,-1.83 5.96,-0.33 11.63,-0.57 16.75,-0.57l193.08 0 -59.37 454.23 -126.89 0 46.28 -352.61 -15.08 0zm354.1 -101.62l-46.26 352.56 38.47 0c0.41,0 0.69,0 0.91,0 0.21,0 0.51,0 0.92,0 0.43,0 0.78,0 1.21,0 0.79,0 1.47,0 2.08,0 0.61,0 1.09,0 1.5,0 11.63,0 22.98,-0.98 34.16,-3.05 11.19,-2.06 21.86,-5.08 32.2,-9.13 10.39,-3.71 18.68,-10.42 25.02,-20.2 6.32,-9.8 10.46,-22.65 12.36,-38.59 1.18,-9.39 0.89,-18.29 -0.81,-26.65 -1.68,-8.36 -5,-16.41 -10.05,-24.15 -4.62,-7.4 -11.48,-12.97 -20.6,-16.82 -9.11,-3.89 -20.49,-5.88 -34.18,-5.88 -3.52,0 -6.93,0.13 -10.11,0.36 -3.2,0.18 -6.35,0.7 -9.43,1.55 -2.77,0.36 -5.58,1.08 -8.44,2.14 -2.88,0.98 -5.85,2.14 -8.91,3.33 -0.29,0.46 -0.79,0.72 -1.35,0.93 -0.61,0.18 -1.1,0.31 -1.5,0.31 -0.36,0.38 -0.64,0.72 -1.07,0.9 -0.36,0.21 -0.75,0.33 -1.13,0.33l13.07 -101.67c0.79,-0.38 1.54,-0.64 2.32,-0.64 0.84,0 1.6,-0.15 2.32,-0.52 0.43,0 0.81,0 1.21,0 0.41,0 0.78,-0.25 1.13,-0.67 1.22,0 2.42,-0.07 3.56,-0.28 1.19,-0.23 2.39,-0.52 3.51,-0.93 1.14,-0.36 2.21,-0.7 3.16,-0.95 1.03,-0.13 2.05,-0.47 3.23,-0.88 1.2,0 2.37,-0.1 3.56,-0.31 1.14,-0.18 2.32,-0.49 3.48,-0.93 3.87,-0.8 7.66,-1.29 11.23,-1.5 3.57,-0.23 7.13,-0.51 10.67,-0.95 3.55,-0.36 7.44,-0.7 11.64,-0.93 4.18,-0.15 8.22,-0.28 12.28,-0.28 27.67,0 51.65,4.1 71.95,12.23 20.36,8.17 37.18,20.63 50.61,37.38 13.02,16.33 22.03,34.77 27.12,55.36 5.14,20.61 5.96,43.6 2.47,68.91 -3.2,24.43 -8.74,45.92 -16.54,64.26 -7.8,18.39 -17.9,33.48 -30.36,45.3 -12.44,12.2 -25.24,22.55 -38.36,30.93 -13.14,8.36 -26.46,14.78 -39.89,19.27 -10.74,3.66 -20.77,6.43 -30.21,8.26 -9.39,1.83 -18.61,3.17 -27.71,3.97 -8.76,0.41 -16.31,0.85 -22.67,1.24 -6.41,0.41 -11.73,0.62 -16.16,0.62l-197.85 0 59.33 -454.23 126.91 0zm515.51 101.62c-1.27,0 -2.59,0 -4.21,0 -1.62,0 -3.04,0 -4.2,0 -1.58,0.36 -3.17,0.59 -4.82,0.59 -1.54,0 -3.34,0 -5.37,0 -2.03,0 -3.89,0.08 -5.66,0.29 -1.8,0.23 -3.64,0.51 -5.61,0.95 -1.92,0.42 -3.8,0.75 -5.58,0.91 -1.74,0.23 -3.63,0.49 -5.58,0.92 -7,1.66 -13.82,3.98 -20.44,7 -6.62,3.07 -12.99,6.86 -19.19,11.37 -6.25,4.88 -11.23,11.12 -15,18.68 -3.82,7.56 -6.45,16.67 -7.9,27.22 -0.31,0.8 -0.48,1.62 -0.54,2.5 -0.12,0.77 -0.09,1.57 0.01,2.4 -0.22,1.21 -0.33,2.24 -0.23,3.07 0.11,0.82 0.22,1.62 0.33,2.48 -0.2,1.6 -0.29,3.35 -0.18,5.16 0.03,1.83 0.37,3.81 0.99,5.83 1.21,5.72 3.43,11.24 6.71,16.53 3.33,5.29 7.91,10.42 13.74,15.27 5.44,4.93 13.12,8.59 23.12,11.07 9.95,2.43 22.1,3.46 36.49,3.02 2.43,0 5.09,0 8.08,0 3.02,0 5.96,-0.18 8.69,-0.59 3.2,0 6.26,-0.21 9.22,-0.65 2.99,-0.39 6.22,-0.82 9.78,-1.19l-13.73 101.65c-1.47,0.8 -4.08,2.32 -7.87,4.54 -3.63,2.27 -8.64,5.24 -15.03,8.87 -5.9,3.67 -12.27,8.03 -19.03,12.9 -6.76,4.85 -13.76,10.61 -20.89,17.11 -4.98,4.92 -10,10.14 -15.1,15.66 -5.11,5.49 -10.04,11.3 -14.82,17.41 -5.25,6.11 -10.12,12.61 -14.6,19.61 -4.49,6.94 -8.41,14.26 -11.83,22.03l-134.69 0c1.9,-3.69 3.65,-7.15 5.24,-10.43 1.55,-3.3 3.38,-6.32 5.39,-9.18 3.58,-6.5 7.18,-12.61 10.87,-18.32 3.6,-5.72 7.34,-11.04 11.07,-15.99 5.88,-7.33 11.55,-14.32 17.1,-21.05 5.55,-6.79 11.14,-12.8 16.86,-18.06 6.44,-6.17 12.78,-11.74 19.15,-16.87 6.35,-5.11 12.44,-9.68 18.33,-13.78 5.96,-3.69 11.48,-6.99 16.72,-10.08 5.2,-3.1 10.08,-5.86 14.52,-8.29l0.24 -3.01c-0.89,0 -1.65,0 -2.43,0 -0.76,0 -1.6,0 -2.36,0 -1.68,-0.44 -3.37,-0.78 -5.01,-0.96 -1.6,-0.18 -3.24,-0.49 -4.86,-0.88 -2.93,-0.87 -5.65,-1.57 -8.16,-2.14 -2.47,-0.67 -4.94,-1.16 -7.38,-1.55 -12.17,-3.71 -23.6,-9.15 -34.31,-16.22 -10.75,-7.17 -20.84,-16.02 -30.27,-26.63 -9.02,-10.65 -15.15,-23.68 -18.35,-39.18 -3.28,-15.53 -3.61,-33.26 -1,-53.28 3.22,-24.5 8.68,-45.84 16.55,-63.97 7.79,-18.11 17.97,-32.97 30.54,-44.38 12.48,-11.84 25.4,-21.74 38.77,-29.69 13.4,-7.95 27.31,-13.96 41.54,-18.06 8.86,-2.81 17.64,-5.21 26.42,-7.04 8.81,-1.86 17.38,-2.97 25.74,-3.38 7.9,-0.83 15.16,-1.29 21.74,-1.52 6.59,-0.21 12.43,-0.29 17.65,-0.29l208.09 0 -59.32 454.23 -126.89 0 46.25 -352.61 -53.5 0zm392.55 -101.62l-59.38 454.23 -126.89 0 59.35 -454.23 126.92 0zm273.01 0l-59.38 454.23 -126.83 0 29.48 -224.11 -122.73 0 13.05 -102.18 122.71 0 16.83 -127.94 126.87 0zm373.77 98.53c-4.14,-1.19 -8.42,-2.33 -12.73,-3.31 -4.4,-1.05 -9.02,-1.96 -13.97,-2.78 -4.88,-0.88 -10.09,-1.52 -15.54,-2.14 -5.56,-0.65 -11.1,-0.93 -16.7,-0.93 -22.48,0 -42.74,3.14 -60.99,9.49 -18.18,6.3 -34.08,15.82 -47.7,28.46 -13.55,12.64 -24.47,27.08 -32.76,43.47 -8.29,16.33 -13.86,34.67 -16.78,55.07 -2.67,19.64 -2.95,36.77 -0.76,51.52 2.1,14.6 6.42,26.86 12.93,36.64 6.49,9.82 13.47,18.05 21,24.79 7.5,6.73 15.91,11.97 25.22,15.63 4.65,1.65 9.33,3.15 14.11,4.62 4.82,1.39 9.69,2.58 14.61,3.35 4.46,0.42 8.82,0.78 13.11,1.21 4.23,0.39 8.14,0.62 11.79,0.62 2.43,0 4.89,0 7.57,0 2.56,0 5.19,-0.23 7.98,-0.62 2.43,0 4.96,-0.23 7.73,-0.59 2.75,-0.44 5.49,-0.82 8.25,-1.24 3.19,-0.41 6.49,-0.93 10.01,-1.54 3.57,-0.62 7.07,-1.35 10.56,-2.15 1.57,-0.43 3.16,-0.82 4.94,-1.18 1.74,-0.47 3.36,-0.83 4.95,-1.27 1.52,-0.38 3.17,-0.95 4.92,-1.52 1.69,-0.62 3.38,-1.11 4.89,-1.57l-13.07 101.67c-7.11,0.82 -14.33,1.85 -21.57,3.02 -7.29,1.21 -14.81,2.27 -22.73,3.14 -7.9,0.78 -16.48,1.45 -25.59,2.12 -9.17,0.59 -18.94,0.88 -29.31,0.88 -40.55,0 -74.63,-5.4 -102.31,-16.23 -27.68,-10.84 -48.79,-27.22 -63.29,-49.28 -14.55,-22 -25.12,-45.32 -31.73,-69.75 -6.64,-24.49 -9.13,-50.21 -7.48,-77.14 0.19,-2.06 0.32,-4.15 0.44,-6.11 0.11,-2.07 0.24,-4.13 0.41,-6.14 0.54,-2.04 0.82,-4.18 0.93,-6.43 0.11,-2.24 0.21,-4.38 0.37,-6.45 4.64,-34.67 14.33,-66.24 29,-94.57 14.78,-28.33 34.32,-53.56 58.64,-75.59 24.39,-22.08 52.61,-38.57 84.67,-49.56 31.96,-11.09 67.41,-16.53 106.34,-16.53 8.03,0 15.67,0.26 22.95,0.9 7.32,0.57 14.44,1.29 21.35,2.19 6.89,0.78 13.59,1.78 19.93,3.02 6.39,1.16 12.49,2.63 18.3,4.28l-12.89 98.53z"/>
  <path class="fil1" d="M4617.14 0l663.55 0c27.11,0 46.69,22.17 43.55,49.25l-68.61 591.06c-3.14,27.08 -27.88,49.25 -54.98,49.25l-663.55 0c-27.11,0 -46.69,-22.17 -43.55,-49.25l68.6 -591.06c3.15,-27.08 27.88,-49.25 54.99,-49.25z"/>
  <path class="fil2" d="M5081.81 391.02l22.43 -161.48 -142.03 161.48 119.6 0zm167.5 85.58l-63.93 0 -15.52 111.71 -115.46 0 15.52 -111.71 -208.1 0 12.32 -88.74 242.61 -275.8 119.28 0 -38.76 278.96 63.93 0 -11.89 85.58zm-309.54 -270.25l-255.22 380.66 -132.32 0 265.02 -385.45 -225.82 0 12.43 -89.5 349.01 0 -13.1 94.29z"/>
 </g>
</svg>
