<svg width="179" height="34" viewBox="0 0 179 34" fill="none" xmlns="http://www.w3.org/2000/svg">
<path fill-rule="evenodd" clip-rule="evenodd" d="M13.6795 0.435736C13.9447 0.971248 14.1922 1.51181 14.4196 2.05996C14.6469 2.60557 14.8566 3.16129 15.0473 3.73091C15.1471 4.00624 15.2481 4.28663 15.3416 4.57333C15.4401 4.8575 15.526 5.13663 15.6131 5.41575C15.7015 5.7075 15.7862 5.99799 15.8645 6.28091C15.9415 6.56508 16.0173 6.84547 16.0855 7.12207C16.3406 8.16404 16.5629 9.19086 16.7536 10.1975C16.9468 11.2079 17.0908 12.2094 17.1931 13.1996C17.3106 14.1911 17.4028 15.1308 17.471 16.0199C17.5405 16.9065 17.5885 17.7477 17.615 18.5434H12.467C12.4645 18.5308 12.4619 18.5131 12.4607 18.4967C12.4581 18.4802 12.4556 18.4663 12.4531 18.4474C12.4518 18.4348 12.448 18.407 12.4443 18.3741C12.4392 18.3413 12.4367 18.316 12.4341 18.3022C12.4304 18.2693 12.4253 18.2314 12.419 18.1923C12.4139 18.1506 12.4152 18.1152 12.4266 18.0811C12.4253 18.066 12.4228 18.0483 12.4203 18.0319C12.4139 17.9839 12.4076 17.9296 12.4 17.874C12.3925 17.8184 12.3912 17.7553 12.4 17.6909C12.3912 17.6265 12.3849 17.5532 12.3824 17.4736C12.3798 17.3903 12.3786 17.3006 12.3824 17.2033C12.371 17.1212 12.3672 17.048 12.3659 16.9836C12.3634 16.9179 12.3697 16.8535 12.3773 16.7878C12.3685 16.7221 12.3634 16.6628 12.3634 16.6059C12.3659 16.5491 12.3685 16.4872 12.376 16.4228C12.3584 16.4064 12.3457 16.3887 12.3445 16.3736C12.3419 16.3571 12.3495 16.3407 12.3622 16.323L12.3584 16.2978C12.3571 16.2839 12.3558 16.2725 12.3546 16.2637C12.3533 16.2536 12.3508 16.2435 12.3495 16.2258C12.3432 16.179 12.3356 16.1235 12.3281 16.0666C12.3205 16.0111 12.3217 15.9492 12.3281 15.886C12.3217 15.8355 12.3129 15.7762 12.3028 15.7004C12.294 15.6271 12.2914 15.5589 12.3003 15.4945H7.19901C7.30257 15.1686 7.41245 14.8466 7.5337 14.5308C7.65495 14.2138 7.77746 13.8993 7.89744 13.5899C7.95807 13.4282 8.01617 13.2704 8.07679 13.1137C8.13741 12.9609 8.19804 12.803 8.2574 12.6401C8.32055 12.4936 8.3837 12.3421 8.4519 12.1867C8.52137 12.0314 8.58704 11.8747 8.64514 11.7106H11.7938C11.7786 11.5994 11.7584 11.4857 11.7357 11.3708C11.713 11.2546 11.6928 11.1397 11.6776 11.0298C11.665 10.93 11.6486 10.8239 11.6233 10.7103C11.6006 10.5978 11.5804 10.4817 11.5652 10.3705C11.5197 10.1419 11.4793 9.92593 11.4414 9.72259C11.4073 9.51924 11.3606 9.31085 11.2987 9.10119C11.2191 8.75765 11.137 8.43811 11.0474 8.13499C10.9577 7.83566 10.8743 7.56033 10.791 7.31909C10.695 7.07407 10.6217 6.86441 10.5763 6.69643C10.5258 6.5234 10.4904 6.40594 10.4651 6.34027C10.1607 6.86315 9.85762 7.39614 9.55703 7.94049C9.25517 8.48611 8.97226 9.04183 8.70577 9.61397C8.42538 10.1836 8.15131 10.7519 7.88608 11.3203C7.62211 11.8912 7.37204 12.462 7.13712 13.0279C6.94135 13.5015 6.74559 13.9675 6.55614 14.4323C6.36795 14.8971 6.19113 15.3644 6.02441 15.8355C5.87412 16.2927 5.72382 16.7474 5.57352 17.2033C5.42322 17.658 5.28808 18.1051 5.16684 18.5434H0.0175781C0.176716 18.0268 0.345959 17.4989 0.525305 16.9697C0.70844 16.443 0.907994 15.9025 1.12776 15.348C1.32984 14.7961 1.54328 14.2353 1.77062 13.6758C1.9967 13.1137 2.22657 12.5568 2.46022 12.0036C2.93132 10.8984 3.42137 9.81226 3.92657 8.74629C4.43682 7.68031 4.97233 6.63328 5.5369 5.60899C6.08251 4.58596 6.6256 3.63871 7.17248 2.77987C7.71431 1.91724 8.2473 1.13544 8.77144 0.435736H13.6795ZM30.8108 0.435736C31.6734 0.435736 32.4123 0.512779 33.0274 0.666865C33.6412 0.822214 34.1325 1.05461 34.4988 1.36278C34.8663 1.67348 35.1745 1.99428 35.4208 2.32645C35.6709 2.66114 35.8439 3.01605 35.9424 3.38863C35.9803 3.5503 36.0156 3.7107 36.0434 3.86478C36.0725 4.02013 36.0876 4.17169 36.0889 4.31694C36.0965 4.46218 36.0927 4.6049 36.0864 4.74383C36.0813 4.8815 36.07 5.01412 36.0561 5.14547C35.9891 5.60268 35.8603 6.02578 35.6759 6.41478C35.4928 6.80505 35.2503 7.14733 34.9446 7.44034C34.6453 7.73336 34.3346 7.98975 34.0252 8.20825C33.7132 8.42927 33.3962 8.61367 33.0741 8.75765H33.0476L33.0274 8.78418H33.0034L32.9844 8.83343C33.6362 9.07719 34.1628 9.36389 34.5632 9.69733C34.9686 10.032 35.2477 10.4109 35.3993 10.8328C35.5711 11.2546 35.681 11.6916 35.734 12.1387C35.7858 12.5858 35.7795 13.0455 35.71 13.5192C35.633 14.1519 35.4258 14.7582 35.0886 15.3366C34.7514 15.9138 34.2992 16.462 33.7359 16.9836C33.1524 17.5027 32.4199 17.8942 31.5345 18.1556C30.6492 18.4133 29.6047 18.5434 28.401 18.5434H19.0788L21.4873 0.435736H30.8108ZM26.6884 7.19658H28.569C28.6157 7.19658 28.665 7.19658 28.7142 7.19658C28.7635 7.19658 28.8115 7.19658 28.8607 7.19658C28.8911 7.19658 28.9239 7.19658 28.9454 7.19658C28.9694 7.19658 28.9984 7.18774 29.0287 7.17259C29.0451 7.17259 29.0691 7.17259 29.102 7.17259C29.1348 7.17259 29.1651 7.17259 29.1992 7.17259C29.3116 7.1549 29.4203 7.14101 29.5226 7.12207C29.6261 7.10691 29.7322 7.08291 29.8434 7.05007C29.9356 7.01724 30.0328 6.97682 30.1301 6.92756C30.2311 6.87831 30.3347 6.83031 30.4408 6.77979C30.6239 6.68507 30.7717 6.5373 30.8929 6.34027C31.0154 6.14577 31.0899 5.91843 31.119 5.65698C31.1619 5.36776 31.143 5.12273 31.0584 4.92697C30.975 4.73247 30.8323 4.59354 30.6239 4.51018C30.4041 4.43061 30.1831 4.36493 29.9646 4.31694C29.7474 4.26642 29.5049 4.23484 29.2422 4.21969C29.2119 4.21969 29.179 4.21969 29.1437 4.21969C29.1133 4.21969 29.0818 4.21969 29.0477 4.21969C29.0148 4.21969 28.9833 4.21969 28.9517 4.21969C28.9188 4.21969 28.886 4.21969 28.8532 4.21969H26.144L24.7232 14.762H27.5548C27.9438 14.762 28.2911 14.7342 28.593 14.6773C28.8936 14.6205 29.1525 14.5359 29.3634 14.421C29.5567 14.2896 29.7246 14.1633 29.861 14.0408C29.9987 13.9208 30.1187 13.7857 30.2109 13.6379C30.2513 13.5735 30.2879 13.5091 30.3182 13.4434C30.3523 13.3802 30.3814 13.3158 30.4016 13.2489C30.4269 13.1857 30.4458 13.1238 30.4509 13.0658C30.461 13.0102 30.4698 12.9571 30.4799 12.9066C30.5216 12.6136 30.5203 12.3597 30.4749 12.1387C30.4294 11.9189 30.3385 11.7459 30.2071 11.612C30.0795 11.4857 29.928 11.3746 29.7613 11.2849C29.5933 11.194 29.4266 11.1258 29.2586 11.0778C29.1386 11.0437 29.0275 11.0247 28.9214 11.0172C28.814 11.0071 28.7104 11.0033 28.6145 11.0033C28.5652 11.0033 28.5147 11.0033 28.468 11.0033C28.42 11.0033 28.3694 10.9957 28.3164 10.9793C28.2848 10.9793 28.2469 10.9793 28.2078 10.9793C28.1674 10.9793 28.1282 10.9793 28.0979 10.9793C28.0815 10.9793 28.0651 10.9793 28.0512 10.9793H28.0246H26.1945L26.6884 7.19658ZM52.0204 0.435736L51.4887 4.48618H47.1705L45.2911 18.5434H40.1419L42.02 4.48618H37.6992L38.2322 0.435736H52.0204ZM51.5973 9.48893C51.8133 7.94428 52.2212 6.5815 52.8211 5.40059C53.4173 4.22221 54.2193 3.23202 55.2183 2.43633C56.2338 1.62422 57.3275 1.01672 58.5009 0.618871C59.6755 0.219762 60.9321 0.021471 62.2659 0.021471C63.5844 0.021471 64.7691 0.219762 65.8237 0.618871C66.8771 1.01672 67.8029 1.62422 68.5935 2.43633C69.398 3.23202 69.955 4.22221 70.2594 5.40059C70.5638 6.5815 70.6067 7.94428 70.3908 9.48893C70.1912 11.0361 69.782 12.3951 69.1555 13.5672C68.5304 14.7367 67.7107 15.7307 66.699 16.5453C65.6987 17.341 64.6151 17.9346 63.4468 18.3262C62.2785 18.7152 61.0357 18.9122 59.7184 18.9122C58.3821 18.9122 57.1861 18.7152 56.1239 18.3262C55.0642 17.9346 54.1284 17.341 53.3226 16.5453C52.5332 15.7307 51.9951 14.7367 51.7173 13.5672C51.4394 12.3951 51.399 11.0361 51.5973 9.48893ZM56.8943 9.48893C56.7933 10.2051 56.7794 10.8782 56.8476 11.5034C56.9145 12.1324 57.0749 12.7121 57.325 13.2489C57.5763 13.7857 57.9414 14.1898 58.4251 14.4576C58.9088 14.7241 59.5239 14.8592 60.2729 14.8592C61.0067 14.8592 61.6546 14.7241 62.2217 14.4576C62.7888 14.1898 63.2624 13.7857 63.6463 13.2489C64.0278 12.7121 64.3422 12.1324 64.5835 11.5034C64.8247 10.8782 64.9952 10.2051 65.0937 9.48893C65.1784 8.77407 65.1859 8.10342 65.1165 7.47697C65.0508 6.85052 64.8904 6.26701 64.6403 5.73276C64.4067 5.19599 64.0442 4.79183 63.5516 4.52028C63.0603 4.25505 62.449 4.12117 61.7152 4.12117C60.9675 4.12117 60.3095 4.25505 59.7424 4.52028C59.1778 4.79183 58.7042 5.19599 58.3177 5.73276C57.935 6.26701 57.6243 6.85052 57.3806 7.47697C57.1419 8.10342 56.9764 8.77407 56.8943 9.48893ZM83.1875 0.413002C83.454 0.945988 83.7015 1.48529 83.9276 2.02838C84.1537 2.57273 84.3633 3.12593 84.5503 3.69302C84.6551 3.96961 84.7511 4.24874 84.8458 4.53165C84.9418 4.81709 85.0289 5.09368 85.1186 5.37155C85.2032 5.66204 85.2866 5.95253 85.3649 6.23418C85.4445 6.51961 85.5177 6.79874 85.5885 7.07407C85.8385 8.111 86.0608 9.1315 86.2515 10.1369C86.4448 11.1397 86.5888 12.1362 86.6898 13.1276C86.8035 14.1153 86.8969 15.0512 86.9677 15.934C87.0384 16.8169 87.0839 17.6555 87.1104 18.4499H81.9788C81.9763 18.4348 81.975 18.4171 81.9725 18.4007C81.97 18.3855 81.9687 18.3691 81.9662 18.3539C81.9636 18.3363 81.9599 18.3123 81.9561 18.2819C81.9523 18.2466 81.9485 18.2226 81.946 18.2062C81.9422 18.1746 81.9371 18.138 81.9321 18.0988C81.927 18.0571 81.9308 18.0205 81.9434 17.9889C81.9409 17.9712 81.9384 17.9574 81.9359 17.9384C81.9295 17.8917 81.9232 17.8374 81.9156 17.7818C81.9068 17.7237 81.9081 17.6643 81.9169 17.6012C81.9081 17.5343 81.9005 17.4635 81.8967 17.3814C81.8954 17.2981 81.8954 17.2109 81.898 17.1124C81.8879 17.0341 81.8828 16.9596 81.8815 16.8952C81.8815 16.8282 81.8841 16.7651 81.8917 16.6994C81.8841 16.6337 81.879 16.5744 81.8778 16.5188C81.8803 16.4607 81.8841 16.4001 81.8929 16.3344C81.8727 16.318 81.8613 16.3028 81.8601 16.2864C81.8576 16.27 81.8639 16.2536 81.8803 16.2384L81.8765 16.2132C81.874 16.1993 81.8727 16.1841 81.8714 16.1778C81.8702 16.1702 81.8689 16.1563 81.8664 16.1399C81.8601 16.0906 81.8525 16.0389 81.8449 15.982C81.8386 15.9277 81.8361 15.8633 81.8437 15.8001C81.8373 15.7534 81.8285 15.6903 81.8197 15.6183C81.8096 15.5463 81.8083 15.4756 81.8159 15.4111H76.7348C76.8384 15.0866 76.9483 14.767 77.0695 14.4513C77.1882 14.1343 77.3095 13.8248 77.4295 13.5154C77.4888 13.3537 77.5482 13.1946 77.6113 13.0405C77.6707 12.8877 77.7288 12.7298 77.7894 12.5669C77.8513 12.4216 77.917 12.2726 77.9839 12.1172C78.0534 11.9632 78.1178 11.8053 78.1784 11.6423H81.3119C81.2968 11.5299 81.2778 11.4175 81.2538 11.3013C81.2298 11.1902 81.2109 11.0753 81.1957 10.9629C81.1831 10.8643 81.1654 10.7595 81.1414 10.6446C81.1187 10.5322 81.101 10.4198 81.0859 10.3074C81.0379 10.0775 80.9974 9.86531 80.9596 9.6607C80.928 9.45862 80.8787 9.25401 80.8181 9.04183C80.7385 8.70334 80.6577 8.38128 80.5668 8.08195C80.4796 7.78135 80.395 7.50981 80.3129 7.26731C80.2169 7.02481 80.1437 6.81768 80.0957 6.64718C80.0502 6.47794 80.0136 6.35921 79.9883 6.29354C79.6865 6.81516 79.3846 7.34562 79.0853 7.88744C78.7834 8.4318 78.5018 8.98752 78.2378 9.55082C77.9561 10.1192 77.6846 10.6875 77.4181 11.2546C77.1554 11.8217 76.9066 12.3888 76.6742 12.9559C76.4784 13.427 76.2852 13.893 76.0957 14.3553C75.9076 14.815 75.7295 15.2823 75.564 15.7534C75.4162 16.2068 75.2672 16.659 75.1169 17.1124C74.9666 17.5658 74.8327 18.0129 74.709 18.4499H69.5824C69.7403 17.9321 69.9083 17.4092 70.0889 16.8825C70.2708 16.3559 70.4691 15.8153 70.6876 15.2659C70.8896 14.7127 71.1018 14.157 71.3279 13.6C71.5515 13.0405 71.7813 12.486 72.015 11.9354C72.4848 10.8328 72.9723 9.75037 73.4788 8.69071C73.984 7.62727 74.517 6.58782 75.0778 5.56731C75.6221 4.54554 76.1652 3.60461 76.7058 2.7445C77.2463 1.88566 77.7781 1.10892 78.3009 0.413002H83.1875ZM100.331 4.44829C100.189 4.44829 100.025 4.45082 99.849 4.45966C99.6709 4.46724 99.4701 4.48618 99.2478 4.52028C99.0243 4.53796 98.7994 4.58091 98.5734 4.6529C98.3473 4.72741 98.12 4.81204 97.8888 4.90929C97.5099 5.08863 97.1222 5.34755 96.7294 5.6873C96.3379 6.02704 95.9564 6.44889 95.5864 6.9503C95.2151 7.45423 94.9056 8.0971 94.6543 8.88269C94.4029 9.66954 94.2034 10.6067 94.0569 11.6916C94.048 11.8545 94.0253 12.0276 93.9937 12.2145C93.9609 12.4014 93.9344 12.5909 93.9104 12.7866C93.9079 12.8826 93.9015 12.9811 93.8902 13.0771C93.8775 13.1769 93.8636 13.2817 93.8472 13.3929C93.8258 13.7175 93.8043 14.0446 93.7841 14.378C93.7639 14.7127 93.7424 15.0386 93.7222 15.3632C93.6944 15.6397 93.6679 15.91 93.6489 16.1778C93.6287 16.4468 93.6199 16.7171 93.6249 16.9912C93.6085 17.2513 93.6009 17.5027 93.5908 17.7452C93.5833 17.9889 93.5782 18.2226 93.5757 18.4499H88.3974C88.3898 17.5418 88.3961 16.7272 88.4239 16.006C88.4479 15.2874 88.4807 14.6584 88.5237 14.1229C88.5843 13.5886 88.6298 13.1137 88.6752 12.7007C88.7156 12.2877 88.7497 11.9442 88.7801 11.6689C89.0125 9.90067 89.3623 8.37749 89.8309 7.09807C90.302 5.81739 90.8792 4.78046 91.5662 3.9873C92.2558 3.19287 92.953 2.53611 93.6616 2.01575C94.3688 1.49792 95.0875 1.11776 95.8213 0.87526C96.0827 0.790639 96.3454 0.719911 96.6044 0.656761C96.862 0.591085 97.1184 0.541828 97.3735 0.507727C97.6286 0.478678 97.8762 0.452155 98.1174 0.435736C98.3587 0.421843 98.5873 0.413002 98.7944 0.413002H106.6L104.2 18.4499H99.0697L100.94 4.44829H100.331ZM114.646 0.413002L112.776 14.4134H114.331C114.347 14.4134 114.358 14.4134 114.368 14.4134C114.376 14.4134 114.389 14.4134 114.405 14.4134C114.423 14.4134 114.437 14.4134 114.454 14.4134C114.486 14.4134 114.514 14.4134 114.538 14.4134C114.563 14.4134 114.582 14.4134 114.598 14.4134C115.068 14.4134 115.528 14.3742 115.98 14.2921C116.432 14.21 116.863 14.09 117.281 13.9296C117.702 13.7819 118.036 13.5154 118.293 13.1276C118.548 12.7386 118.716 12.2284 118.793 11.5944C118.84 11.2218 118.828 10.8681 118.76 10.536C118.692 10.2051 118.558 9.88551 118.353 9.57734C118.166 9.28306 117.888 9.06204 117.52 8.90921C117.152 8.75513 116.692 8.67556 116.139 8.67556C115.996 8.67556 115.859 8.68187 115.73 8.69071C115.601 8.69703 115.474 8.7185 115.349 8.75134C115.237 8.76649 115.122 8.79554 115.008 8.83722C114.891 8.87638 114.771 8.92184 114.648 8.96857C114.635 8.98752 114.616 8.99762 114.593 9.00646C114.568 9.01278 114.549 9.01783 114.533 9.01783C114.518 9.03425 114.506 9.04688 114.488 9.05446C114.475 9.06204 114.458 9.06709 114.443 9.06709L114.972 5.03054C115.004 5.01412 115.034 5.00401 115.066 5.00401C115.1 5.00401 115.13 4.9977 115.159 4.9838C115.177 4.9838 115.192 4.9838 115.208 4.9838C115.225 4.9838 115.24 4.9737 115.254 4.95728C115.303 4.95728 115.352 4.95476 115.398 4.94591C115.446 4.93707 115.495 4.92571 115.539 4.90929C115.586 4.89539 115.629 4.8815 115.668 4.8714C115.709 4.86635 115.75 4.85245 115.798 4.83603C115.846 4.83603 115.894 4.83224 115.942 4.82467C115.988 4.81709 116.036 4.80446 116.082 4.78678C116.239 4.7552 116.392 4.73626 116.537 4.72742C116.681 4.71857 116.825 4.70721 116.968 4.68953C117.112 4.67563 117.268 4.66174 117.439 4.6529C117.608 4.64658 117.771 4.64153 117.935 4.64153C119.053 4.64153 120.023 4.80446 120.844 5.12779C121.666 5.45238 122.347 5.94747 122.889 6.61181C123.415 7.261 123.78 7.99227 123.985 8.8107C124.193 9.62912 124.226 10.541 124.086 11.5464C123.956 12.5163 123.732 13.3701 123.417 14.0989C123.102 14.8289 122.693 15.4288 122.189 15.8974C121.686 16.3824 121.17 16.7929 120.639 17.1263C120.108 17.4585 119.57 17.7123 119.026 17.8917C118.592 18.0369 118.187 18.1468 117.805 18.2188C117.425 18.2921 117.052 18.3451 116.685 18.3767C116.331 18.3931 116.026 18.4108 115.768 18.4259C115.509 18.4423 115.294 18.4499 115.115 18.4499H107.118L109.515 0.413002H114.646ZM135.486 4.44829C135.434 4.44829 135.381 4.44829 135.315 4.44829C135.25 4.44829 135.193 4.44829 135.145 4.44829C135.082 4.46218 135.017 4.47229 134.95 4.47229C134.888 4.47229 134.815 4.47229 134.733 4.47229C134.651 4.47229 134.576 4.47481 134.505 4.48239C134.433 4.4925 134.358 4.50386 134.278 4.52028C134.2 4.53796 134.124 4.5506 134.052 4.55691C133.982 4.56575 133.906 4.57585 133.826 4.59354C133.543 4.65921 133.268 4.75141 133 4.8714C132.733 4.99265 132.475 5.14421 132.225 5.32355C131.972 5.51679 131.77 5.76434 131.619 6.06493C131.463 6.36427 131.357 6.72675 131.299 7.14606C131.286 7.17764 131.28 7.21048 131.278 7.24458C131.272 7.27615 131.274 7.30773 131.278 7.34056C131.269 7.38856 131.264 7.42898 131.269 7.46181C131.272 7.49465 131.278 7.52623 131.281 7.56033C131.274 7.62348 131.27 7.69421 131.274 7.76493C131.276 7.83819 131.289 7.91649 131.314 7.99733C131.363 8.22467 131.453 8.44316 131.586 8.65409C131.721 8.86374 131.905 9.06709 132.141 9.26033C132.361 9.45609 132.672 9.60134 133.076 9.69985C133.478 9.79584 133.969 9.83626 134.551 9.81984C134.648 9.81984 134.757 9.81984 134.877 9.81984C135 9.81984 135.118 9.81226 135.228 9.79584C135.358 9.79584 135.482 9.78826 135.601 9.77058C135.722 9.75542 135.853 9.73774 135.996 9.72259L135.442 13.7591C135.382 13.7907 135.276 13.8513 135.123 13.9397C134.977 14.0294 134.775 14.1481 134.516 14.2921C134.277 14.4374 134.02 14.6104 133.747 14.8049C133.473 14.9969 133.191 15.2255 132.902 15.4831C132.701 15.6789 132.498 15.886 132.292 16.1058C132.086 16.323 131.886 16.5542 131.693 16.7967C131.481 17.0404 131.284 17.2981 131.102 17.5759C130.921 17.8513 130.762 18.1418 130.625 18.4499H125.18C125.256 18.3034 125.326 18.167 125.391 18.0369C125.454 17.9056 125.528 17.7856 125.609 17.6719C125.753 17.4143 125.9 17.1705 126.049 16.9444C126.194 16.7171 126.346 16.5062 126.496 16.3091C126.733 16.0186 126.963 15.7408 127.188 15.473C127.411 15.204 127.638 14.9653 127.869 14.7569C128.129 14.5119 128.385 14.2896 128.643 14.0863C128.899 13.8829 129.146 13.7023 129.384 13.5394C129.624 13.3929 129.848 13.2615 130.06 13.139C130.27 13.0152 130.468 12.9066 130.647 12.8094L130.656 12.6894C130.621 12.6894 130.59 12.6894 130.559 12.6894C130.527 12.6894 130.493 12.6894 130.463 12.6894C130.395 12.673 130.326 12.6591 130.261 12.6515C130.195 12.6452 130.129 12.6325 130.064 12.6174C129.945 12.582 129.835 12.5542 129.734 12.5328C129.634 12.505 129.535 12.486 129.436 12.4709C128.944 12.3231 128.481 12.1071 128.048 11.8267C127.614 11.5413 127.207 11.1902 126.825 10.7696C126.46 10.3465 126.213 9.82868 126.083 9.2136C125.95 8.59599 125.938 7.8925 126.044 7.09807C126.172 6.12429 126.394 5.27682 126.712 4.55691C127.026 3.837 127.438 3.24718 127.946 2.79502C128.451 2.32392 128.973 1.93113 129.514 1.61538C130.055 1.29963 130.618 1.06092 131.193 0.897994C131.552 0.78685 131.907 0.692125 132.261 0.618871C132.618 0.544354 132.964 0.501412 133.302 0.484993C133.62 0.452155 133.915 0.43321 134.18 0.424369C134.446 0.415527 134.683 0.413002 134.895 0.413002H143.306L140.908 18.4499H135.779L137.648 4.44829H135.486ZM151.354 0.413002L148.955 18.4499H143.824L146.224 0.413002H151.354ZM162.39 0.413002L159.991 18.4499H154.863L156.055 9.55082H151.094L151.621 5.49279H156.582L157.263 0.413002H162.39ZM177.501 4.32578C177.333 4.27779 177.16 4.23358 176.986 4.19443C176.809 4.15149 176.621 4.11612 176.421 4.08328C176.224 4.04918 176.013 4.02266 175.793 3.99866C175.568 3.9734 175.345 3.96204 175.118 3.96204C174.209 3.96204 173.39 4.08707 172.652 4.33841C171.917 4.58848 171.274 4.96612 170.724 5.4688C170.177 5.97021 169.735 6.54361 169.4 7.19532C169.064 7.84324 168.839 8.57199 168.722 9.38158C168.613 10.1621 168.602 10.8416 168.691 11.4276C168.776 12.0074 168.95 12.4949 169.213 12.8826C169.476 13.2729 169.759 13.6 170.062 13.8665C170.365 14.1343 170.706 14.3426 171.081 14.4879C171.269 14.5536 171.459 14.6129 171.652 14.671C171.846 14.7266 172.043 14.7733 172.243 14.8049C172.424 14.8213 172.599 14.8352 172.772 14.8529C172.944 14.8681 173.102 14.8769 173.25 14.8769C173.348 14.8769 173.447 14.8769 173.555 14.8769C173.659 14.8769 173.765 14.8681 173.879 14.8529C173.976 14.8529 174.078 14.8428 174.191 14.8289C174.302 14.8112 174.413 14.7961 174.524 14.7796C174.653 14.7632 174.787 14.743 174.928 14.7178C175.073 14.6938 175.215 14.6647 175.355 14.6331C175.419 14.6155 175.484 14.6003 175.556 14.5864C175.625 14.5675 175.691 14.5536 175.755 14.5359C175.817 14.5207 175.884 14.498 175.955 14.4753C176.023 14.4513 176.091 14.4311 176.152 14.4134L175.624 18.4499C175.336 18.4828 175.044 18.5244 174.751 18.5699C174.457 18.6179 174.153 18.6608 173.833 18.695C173.514 18.7265 173.166 18.753 172.799 18.7796C172.427 18.8036 172.032 18.8137 171.614 18.8137C169.975 18.8137 168.597 18.6002 167.478 18.1695C166.359 17.7389 165.505 17.0897 164.919 16.2132C164.33 15.3392 163.903 14.4134 163.637 13.4434C163.368 12.4709 163.267 11.4491 163.334 10.3793C163.341 10.2973 163.346 10.2152 163.351 10.1369C163.357 10.0548 163.362 9.97266 163.368 9.89309C163.391 9.81226 163.402 9.72764 163.406 9.63796C163.411 9.54955 163.415 9.46367 163.421 9.38158C163.608 8.0049 163.999 6.75074 164.593 5.62667C165.19 4.50134 165.981 3.49978 166.964 2.62452C167.95 1.74799 169.091 1.0925 170.386 0.656761C171.678 0.215973 173.112 0 174.686 0C175.01 0 175.318 0.010104 175.613 0.035364C175.909 0.0580981 176.196 0.0871471 176.477 0.122511C176.754 0.154086 177.025 0.193239 177.282 0.242496C177.54 0.289227 177.786 0.347325 178.021 0.413002L177.501 4.32578Z" fill="#303030"/>
<path d="M7.46055 31.3934V23.2736H5.66835V26.522H1.7922V23.2736H0V31.3934H1.7922V27.9012H5.66835V31.3934H7.46055ZM9.06961 23.2736V24.6528H13.0683C13.3436 24.6528 13.696 24.6982 13.941 25.0051C14.1406 25.2502 14.1709 25.5268 14.1709 25.7718V26.3376H10.6471C10.2189 26.3376 9.66701 26.3692 9.16181 26.8125C8.54799 27.3493 8.47221 28.0692 8.47221 28.7891C8.47221 29.3865 8.51768 30.4285 9.17571 30.9956C9.6367 31.3934 10.2025 31.3934 10.6471 31.3934H14.5233C14.9059 31.3934 15.3505 31.3631 15.641 31.0713C15.9328 30.7808 15.9631 30.3211 15.9631 30.0306V25.8173C15.9631 24.9129 15.7029 24.2549 15.3657 23.9025C14.9981 23.5199 14.3692 23.2736 13.6808 23.2736H9.06961V23.2736ZM14.1709 27.7168V29.586C14.1709 29.7086 14.1709 29.8159 14.0484 29.9233C13.9259 30.0142 13.7566 30.0142 13.6493 30.0142H11.1523C10.9224 30.0142 10.6938 29.8917 10.5701 29.7704C10.3566 29.5393 10.3263 29.1112 10.3263 28.8661C10.3263 28.2839 10.4627 28.0692 10.5246 27.9921C10.7241 27.732 11.0614 27.7168 11.1839 27.7168H14.1709V27.7168ZM24.0362 31.3934V30.0142H21.1262C20.3747 30.0142 19.4869 29.9384 19.0877 29.1566C18.873 28.7272 18.8276 27.9467 18.8276 27.4718C18.8276 27.2268 18.8427 26.3692 18.9652 25.9398C19.1648 25.2502 19.747 24.6528 20.957 24.6528H23.853V23.2736H20.3747C18.9198 23.2736 18.2302 23.8103 17.8929 24.1476C16.9899 25.0822 16.9735 26.4765 16.9735 27.4415C16.9735 28.5895 17.0354 29.6012 17.7098 30.3982C18.4449 31.2709 19.5172 31.3934 20.1297 31.3934H24.0362V31.3934ZM24.2787 31.3934H26.1201L28.6171 25.1277C28.6474 25.0519 28.6929 24.8978 28.7699 24.8978C28.847 24.8978 28.8924 25.0519 28.924 25.1277L31.421 31.3934H33.2586L29.9647 23.8558C29.75 23.3809 29.2612 23.1826 28.7699 23.1826C28.2799 23.1826 27.7898 23.3809 27.5751 23.8558L24.2787 31.3934V31.3934ZM34.101 23.2736V24.6528H38.0997C38.3763 24.6528 38.7274 24.6982 38.9724 25.0051C39.172 25.2502 39.2023 25.5268 39.2023 25.7718V26.3376H35.6785C35.2504 26.3376 34.6984 26.3692 34.1932 26.8125C33.5807 27.3493 33.5036 28.0692 33.5036 28.7891C33.5036 29.3865 33.5504 30.4285 34.2084 30.9956C34.6681 31.3934 35.2352 31.3934 35.6785 31.3934H39.5547C39.9374 31.3934 40.3819 31.3631 40.6737 31.0713C40.9642 30.7808 40.9945 30.3211 40.9945 30.0306V25.8173C40.9945 24.9129 40.7343 24.2549 40.3984 23.9025C40.0308 23.5199 39.4019 23.2736 38.7123 23.2736H34.101V23.2736ZM39.2023 27.7168V29.586C39.2023 29.7086 39.2023 29.8159 39.0798 29.9233C38.9573 30.0142 38.7893 30.0142 38.6819 30.0142H36.185C35.9551 30.0142 35.7253 29.8917 35.6028 29.7704C35.388 29.5393 35.3577 29.1112 35.3577 28.8661C35.3577 28.2839 35.4954 28.0692 35.5573 27.9921C35.7556 27.732 36.0928 27.7168 36.2153 27.7168H39.2023V27.7168ZM48.6395 31.3934V23.2736H46.9091V31.3934H48.6395ZM54.2459 31.3934L51.1819 27.8242C51.0606 27.6865 50.8459 27.3644 50.8459 27.1964C50.8459 27.1194 50.8762 26.9514 51.1819 26.5978L53.9554 23.2736H51.8715L49.5741 26.1545C49.2987 26.5068 49.007 26.9047 49.007 27.2571C49.007 27.6246 49.2836 27.9467 49.4819 28.1765L52.1317 31.3934H54.2459ZM41.2989 31.3934H43.4157L46.0655 28.1765C46.265 27.9467 46.5403 27.6246 46.5403 27.2571C46.5403 26.9047 46.2499 26.5068 45.9745 26.1545L43.6607 23.2736H41.5742L44.3655 26.5978C44.488 26.7367 44.7027 27.0588 44.7027 27.1964C44.7027 27.3493 44.4728 27.6865 44.3655 27.8242L41.2989 31.3934ZM54.5225 30.0142H53.7837V31.3934H62.9328V30.0142H62.2129L59.6692 23.9796C59.5013 23.5805 59.2259 23.1826 58.3671 23.1826C57.5398 23.1826 57.2342 23.535 57.0498 23.9796L54.5225 30.0142ZM58.1991 24.9748C58.2294 24.8826 58.3065 24.7601 58.3671 24.7601C58.4593 24.7601 58.4896 24.8978 58.5212 24.9748L60.4662 30.0142H56.268L58.1991 24.9748ZM63.7753 23.2736V24.6528H67.7739C68.0493 24.6528 68.4016 24.6982 68.6467 25.0051C68.8462 25.2502 68.8765 25.5268 68.8765 25.7718V26.3376H65.3528C64.9246 26.3376 64.3727 26.3692 63.8675 26.8125C63.2549 27.3493 63.1779 28.0692 63.1779 28.7891C63.1779 29.3865 63.2233 30.4285 63.8826 30.9956C64.3424 31.3934 64.9082 31.3934 65.3528 31.3934H69.2289C69.6116 31.3934 70.0562 31.3631 70.3479 31.0713C70.6384 30.7808 70.6687 30.3211 70.6687 30.0306V25.8173C70.6687 24.9129 70.4085 24.2549 70.0713 23.9025C69.7038 23.5199 69.0761 23.2736 68.3865 23.2736H63.7753V23.2736ZM68.8765 27.7168V29.586C68.8765 29.7086 68.8765 29.8159 68.754 29.9233C68.6315 30.0142 68.4623 30.0142 68.3549 30.0142H65.8592C65.6293 30.0142 65.3995 29.8917 65.277 29.7704C65.0623 29.5393 65.032 29.1112 65.032 28.8661C65.032 28.2839 65.1684 28.0692 65.2302 27.9921C65.4298 27.732 65.767 27.7168 65.8895 27.7168H68.8765ZM79.8457 31.3934V24.4229C79.8457 23.2129 78.9111 23.1826 78.666 23.1826C78.2985 23.1826 77.8843 23.2736 77.5635 23.7333L73.9475 29.0493C73.8856 29.1415 73.825 29.264 73.7328 29.264C73.6103 29.264 73.6103 29.1882 73.6103 29.0493L73.6873 23.2736H71.8951V30.3363C71.8951 30.7657 72.0163 31.4881 73.0735 31.4881C73.6873 31.4881 73.9475 31.2709 74.238 30.8415L77.8072 25.6177C77.931 25.4346 77.9916 25.403 78.0219 25.403C78.1457 25.403 78.1141 25.4952 78.1141 25.6177L78.0535 31.3934H79.8457V31.3934ZM75.8925 21.8034C75.5401 21.8034 75.1423 21.7428 74.8354 21.4359C74.6674 21.2679 74.5146 20.9762 74.4527 20.7766H73.0596C73.2276 21.3589 73.5648 22.003 73.9323 22.3238C74.5297 22.8606 75.3418 22.9225 75.8925 22.9225C76.4444 22.9225 77.2565 22.8606 77.8539 22.3238C78.2215 22.003 78.5587 21.3589 78.7267 20.7766H77.3323C77.2717 20.9762 77.1189 21.2679 76.9496 21.4359C76.644 21.7428 76.2461 21.8034 75.8925 21.8034ZM85.2993 31.3934V24.6528H88.347V23.2736H80.4583V24.6528H83.5071V31.3934H85.2993ZM96.314 31.3934V30.0142H92.3456C91.6876 30.0142 90.9374 29.9233 90.7062 29.0493C90.6456 28.8042 90.6002 28.2839 90.6002 27.9315H95.3175C95.6395 27.9315 95.9464 27.8696 96.1915 27.6246C96.5287 27.2874 96.5742 26.8125 96.5742 26.3995C96.5742 25.3727 96.3746 24.3623 95.4248 23.7649C94.6746 23.29 93.6945 23.2433 92.7435 23.2433C91.9781 23.2433 90.6002 23.2433 89.711 24.0099C88.8218 24.7753 88.7461 25.8943 88.7461 27.4099C88.7461 28.4834 88.7915 29.6012 89.3283 30.3666C90.0015 31.3176 90.9828 31.3934 91.8101 31.3934H96.314V31.3934ZM90.6002 26.5523C90.6153 26.0155 90.6002 25.5722 90.9677 25.1592C91.4577 24.6073 92.1928 24.6225 92.6677 24.6225C93.1729 24.6225 93.7551 24.6528 94.1997 24.99C94.4599 25.1895 94.7201 25.5722 94.7201 26.0774C94.7201 26.2921 94.6746 26.5523 94.3222 26.5523H90.6002ZM104.434 31.3934V30.0142H101.523C100.772 30.0142 99.8832 29.9384 99.4854 29.1566C99.2707 28.7272 99.2252 27.9467 99.2252 27.4718C99.2252 27.2268 99.2403 26.3692 99.3629 25.9398C99.5624 25.2502 100.143 24.6528 101.355 24.6528H104.249V23.2736H100.772C99.3174 23.2736 98.6265 23.8103 98.2906 24.1476C97.3863 25.0822 97.3711 26.4765 97.3711 27.4415C97.3711 28.5895 97.4317 29.6012 98.1062 30.3982C98.8412 31.2709 99.9135 31.3934 100.527 31.3934H104.434V31.3934ZM105.444 23.2736V30.1519C105.444 30.4739 105.444 30.8112 105.751 31.1016C106.042 31.3782 106.379 31.3934 106.654 31.3934H110.775C111.282 31.3934 111.879 31.3782 112.339 30.964C112.92 30.4436 112.95 29.4938 112.95 28.9583C112.95 28.3142 112.905 27.5337 112.415 26.9653C111.97 26.4601 111.404 26.3528 110.898 26.3528H107.236V23.2736H105.444V23.2736ZM107.236 27.732H110.148C110.347 27.732 110.669 27.7471 110.883 27.9921C111.113 28.2372 111.097 28.6211 111.097 28.851C111.097 29.1415 111.082 29.5242 110.883 29.754C110.669 29.999 110.347 30.0142 110.087 30.0142H107.743C107.604 30.0142 107.451 29.999 107.344 29.8917C107.221 29.7704 107.236 29.5709 107.236 29.4484V27.732V27.732ZM117.502 30.0142H116.763V31.3934H125.912V30.0142H125.193L122.649 23.9796C122.481 23.5805 122.204 23.1826 121.347 23.1826C120.519 23.1826 120.212 23.535 120.029 23.9796L117.502 30.0142ZM121.177 24.9748C121.209 24.8826 121.285 24.7601 121.347 24.7601C121.439 24.7601 121.469 24.8978 121.499 24.9748L123.446 30.0142H119.248L121.177 24.9748ZM130.477 23.1826C129.512 23.1826 128.087 23.2129 127.199 24.0402C126.264 24.9129 126.156 26.445 126.156 27.3644C126.156 28.1917 126.233 29.7237 127.199 30.6129C128.087 31.4262 129.512 31.4881 130.477 31.4881C131.412 31.4881 132.883 31.4262 133.756 30.6129C134.353 30.0458 134.796 29.019 134.796 27.3025C134.796 26.445 134.69 24.9129 133.756 24.0402C132.867 23.2129 131.442 23.1826 130.477 23.1826ZM128.01 27.3493C128.01 26.8277 128.01 25.7869 128.517 25.2047C129.022 24.6225 129.895 24.5606 130.477 24.5606C131.121 24.5606 131.902 24.6225 132.422 25.2047C132.989 25.8324 132.944 26.7519 132.944 27.3493C132.944 28.054 132.944 28.8346 132.407 29.4332C131.871 30.0306 131.151 30.1064 130.477 30.1064C129.834 30.1064 129.052 30.0306 128.532 29.4332C128.025 28.851 128.01 28.0237 128.01 27.3493V27.3493ZM137.601 31.3934H139.869C140.696 31.3934 141.951 31.3328 142.718 30.2289C143.3 29.4029 143.361 28.2372 143.361 27.1649C143.361 26.277 143.33 25.0203 142.503 24.1627C141.721 23.3506 140.634 23.2736 140.114 23.2736H137.279C136.973 23.2736 136.575 23.3051 136.268 23.535C136.068 23.6878 135.808 23.9935 135.808 24.5303V34.0002H137.601V31.3934V31.3934ZM137.601 30.0142V25.0355C137.601 24.9445 137.632 24.8523 137.723 24.7601C137.785 24.7146 137.892 24.6528 137.969 24.6528H139.73C140.527 24.6528 141.063 25.0519 141.293 25.5722C141.384 25.7869 141.508 26.2164 141.508 27.319C141.508 28.5289 141.339 29.019 141.171 29.264C140.971 29.586 140.527 30.0142 139.639 30.0142H137.601V30.0142ZM148.477 23.1826C147.512 23.1826 146.088 23.2129 145.2 24.0402C144.265 24.9129 144.158 26.445 144.158 27.3644C144.158 28.1917 144.234 29.7237 145.2 30.6129C146.088 31.4262 147.512 31.4881 148.477 31.4881C149.412 31.4881 150.883 31.4262 151.756 30.6129C152.353 30.0458 152.798 29.019 152.798 27.3025C152.798 26.445 152.691 24.9129 151.756 24.0402C150.867 23.2129 149.442 23.1826 148.477 23.1826V23.1826ZM146.012 27.3493C146.012 26.8277 146.012 25.7869 146.517 25.2047C147.022 24.6225 147.895 24.5606 148.477 24.5606C149.121 24.5606 149.902 24.6225 150.423 25.2047C150.991 25.8324 150.944 26.7519 150.944 27.3493C150.944 28.054 150.944 28.8346 150.408 29.4332C149.872 30.0306 149.152 30.1064 148.477 30.1064C147.834 30.1064 147.053 30.0306 146.532 29.4332C146.027 28.851 146.012 28.0237 146.012 27.3493ZM155.602 31.3934V25.2969C155.602 25.0973 155.585 24.9445 155.724 24.8056C155.8 24.7298 155.939 24.6528 156.092 24.6528H160.596V23.2736H154.943C154.605 23.2736 154.223 23.3203 153.978 23.703C153.81 23.9632 153.81 24.2852 153.81 24.6073V31.3934H155.602V31.3934ZM165.009 23.1826C164.042 23.1826 162.618 23.2129 161.73 24.0402C160.795 24.9129 160.688 26.445 160.688 27.3644C160.688 28.1917 160.765 29.7237 161.73 30.6129C162.618 31.4262 164.042 31.4881 165.009 31.4881C165.942 31.4881 167.413 31.4262 168.286 30.6129C168.884 30.0458 169.328 29.019 169.328 27.3025C169.328 26.445 169.221 24.9129 168.286 24.0402C167.398 23.2129 165.972 23.1826 165.009 23.1826V23.1826ZM162.542 27.3493C162.542 26.8277 162.542 25.7869 163.047 25.2047C163.552 24.6225 164.426 24.5606 165.009 24.5606C165.651 24.5606 166.433 24.6225 166.954 25.2047C167.521 25.8324 167.474 26.7519 167.474 27.3493C167.474 28.054 167.474 28.8346 166.938 29.4332C166.402 30.0306 165.682 30.1064 165.009 30.1064C164.364 30.1064 163.583 30.0306 163.062 29.4332C162.557 28.851 162.542 28.0237 162.542 27.3493ZM178.29 31.3934V24.4229C178.29 23.2129 177.356 23.1826 177.111 23.1826C176.743 23.1826 176.329 23.2736 176.008 23.7333L172.392 29.0493C172.331 29.1415 172.27 29.264 172.177 29.264C172.055 29.264 172.055 29.1882 172.055 29.0493L172.132 23.2736H170.34V30.3363C170.34 30.7657 170.462 31.4881 171.519 31.4881C172.132 31.4881 172.392 31.2709 172.684 30.8415L176.253 25.6177C176.376 25.4346 176.436 25.403 176.468 25.403C176.59 25.403 176.559 25.4952 176.559 25.6177L176.498 31.3934H178.29V31.3934ZM174.338 21.8034C173.985 21.8034 173.587 21.7428 173.281 21.4359C173.112 21.2679 172.959 20.9762 172.897 20.7766H171.504C171.672 21.3589 172.009 22.003 172.377 22.3238C172.974 22.8606 173.786 22.9225 174.338 22.9225C174.889 22.9225 175.701 22.8606 176.299 22.3238C176.666 22.003 177.003 21.3589 177.171 20.7766H175.777C175.716 20.9762 175.564 21.2679 175.396 21.4359C175.089 21.7428 174.691 21.8034 174.338 21.8034V21.8034Z" fill="#DD062A"/>
</svg>
