<svg xmlns="http://www.w3.org/2000/svg" xml:space="preserve" width="100%" height="100%" version="1.1" style="shape-rendering:geometricPrecision; text-rendering:geometricPrecision; image-rendering:optimizeQuality; fill-rule:evenodd; clip-rule:evenodd"
viewBox="0 0 4656.67 555.62"
 xmlns:xlink="http://www.w3.org/1999/xlink"
 xmlns:xodm="http://www.corel.com/coreldraw/odm/2003">
 <defs>
  <style type="text/css">
   <![CDATA[
    .fil0 {fill:#434242}
    .fil1 {fill:#B12622}
    .fil2 {fill:#FEFEFE;fill-rule:nonzero}
   ]]>
  </style>
 </defs>
 <g id="Слой_x0020_1">
  <metadata id="CorelCorpID_0Corel-Layer"/>
  <path class="fil0" d="M319.18 110.48c6.2,12.9 11.99,25.94 17.29,39.14 5.32,13.13 10.22,26.53 14.68,40.25 2.32,6.64 4.7,13.38 6.87,20.29 2.3,6.86 4.29,13.58 6.34,20.29 2.06,7.03 4.05,14.04 5.89,20.85 1.8,6.87 3.56,13.6 5.16,20.27 5.97,25.1 11.14,49.83 15.6,74.09 4.5,24.33 7.87,48.47 10.28,72.34 2.73,23.86 4.88,46.52 6.49,67.94 1.62,21.35 2.72,41.61 3.34,60.79l-120.27 0c-0.04,-0.32 -0.09,-0.74 -0.14,-1.13 -0.05,-0.4 -0.1,-0.75 -0.16,-1.19 -0.04,-0.32 -0.12,-0.99 -0.22,-1.75 -0.11,-0.79 -0.19,-1.41 -0.23,-1.75 -0.1,-0.79 -0.22,-1.71 -0.34,-2.64 -0.14,-1.02 -0.1,-1.86 0.17,-2.7 -0.04,-0.34 -0.1,-0.76 -0.15,-1.18 -0.15,-1.16 -0.32,-2.44 -0.49,-3.8 -0.18,-1.33 -0.21,-2.86 0,-4.39 -0.2,-1.58 -0.34,-3.34 -0.39,-5.26 -0.07,-2 -0.11,-4.17 -0.01,-6.49 -0.26,-2 -0.37,-3.75 -0.38,-5.31 -0.06,-1.58 0.08,-3.13 0.25,-4.71 -0.2,-1.58 -0.32,-3.01 -0.33,-4.4 0.07,-1.35 0.14,-2.83 0.29,-4.39 -0.41,-0.39 -0.68,-0.81 -0.72,-1.18 -0.05,-0.4 0.11,-0.82 0.41,-1.21l-0.08 -0.62c-0.04,-0.34 -0.08,-0.62 -0.11,-0.84 -0.02,-0.22 -0.06,-0.47 -0.11,-0.89 -0.15,-1.13 -0.32,-2.47 -0.5,-3.85 -0.17,-1.33 -0.15,-2.84 0.01,-4.34 -0.16,-1.23 -0.35,-2.67 -0.58,-4.47 -0.23,-1.78 -0.28,-3.43 -0.07,-4.98l-119.17 0c2.41,-7.83 4.99,-15.6 7.81,-23.2 2.84,-7.65 5.68,-15.23 8.5,-22.66 1.41,-3.9 2.78,-7.73 4.18,-11.48 1.44,-3.7 2.83,-7.5 4.24,-11.42 1.46,-3.53 2.95,-7.19 4.54,-10.91 1.62,-3.75 3.14,-7.53 4.5,-11.48l73.57 0c-0.35,-2.69 -0.82,-5.43 -1.35,-8.19 -0.53,-2.79 -1.01,-5.56 -1.35,-8.22 -0.31,-2.4 -0.69,-4.94 -1.29,-7.68 -0.52,-2.71 -1,-5.5 -1.35,-8.19 -1.07,-5.5 -2.01,-10.71 -2.89,-15.62 -0.8,-4.89 -1.9,-9.9 -3.35,-14.96 -1.84,-8.27 -3.77,-15.97 -5.87,-23.27 -2.08,-7.21 -4.04,-13.85 -5.97,-19.67 -2.25,-5.9 -3.96,-10.94 -5.03,-14.99 -1.17,-4.17 -1.99,-7 -2.6,-8.58 -7.11,12.58 -14.18,25.42 -21.21,38.55 -7.05,13.13 -13.67,26.53 -19.87,40.3 -6.58,13.72 -12.96,27.42 -19.18,41.12 -6.16,13.74 -12.01,27.49 -17.49,41.14 -4.58,11.4 -9.15,22.63 -13.56,33.84 -4.41,11.18 -8.55,22.46 -12.42,33.79 -3.52,11.03 -7.03,21.96 -10.53,32.97 -3.53,10.96 -6.69,21.72 -9.53,32.28l-120.29 0c3.72,-12.46 7.67,-25.17 11.86,-37.91 4.29,-12.71 8.96,-25.72 14.08,-39.07 4.73,-13.3 9.71,-26.8 15.02,-40.3 5.28,-13.53 10.64,-26.95 16.12,-40.28 11,-26.63 22.44,-52.79 34.24,-78.46 11.93,-25.69 24.46,-50.92 37.62,-75.6 12.77,-24.65 25.44,-47.46 38.21,-68.14 12.67,-20.81 25.11,-39.64 37.38,-56.49l114.64 0zm400.25 0c20.15,0 37.41,1.87 51.77,5.57 14.34,3.73 25.82,9.33 34.39,16.76 8.56,7.48 15.76,15.23 21.52,23.23 5.85,8.07 9.88,16.61 12.2,25.59 0.89,3.9 1.7,7.75 2.34,11.45 0.68,3.75 1.06,7.41 1.08,10.91 0.17,3.51 0.09,6.94 -0.08,10.27 -0.09,3.33 -0.37,6.54 -0.7,9.7 -1.56,11.01 -4.57,21.2 -8.88,30.58 -4.26,9.4 -9.94,17.64 -17.07,24.7 -7.01,7.06 -14.25,13.23 -21.49,18.49 -7.3,5.33 -14.69,9.77 -22.21,13.25l-0.62 0 -0.47 0.62 -0.55 0 -0.45 1.18c15.22,5.88 27.51,12.79 36.88,20.83 9.45,8.07 16,17.21 19.52,27.35 4.02,10.17 6.58,20.68 7.84,31.47 1.2,10.76 1.06,21.84 -0.57,33.24 -1.8,15.25 -6.66,29.87 -14.52,43.79 -7.89,13.92 -18.45,27.12 -31.61,39.68 -13.62,12.51 -30.73,21.94 -51.43,28.24 -20.67,6.22 -45.08,9.35 -73.2,9.35l-217.77 0 56.26 -436.25 217.82 0zm-96.33 162.89l43.94 0c1.1,0 2.25,0 3.4,0 1.15,0 2.27,0 3.42,0 0.72,0 1.46,0 1.99,0 0.55,0 1.21,-0.22 1.94,-0.57 0.38,0 0.93,0 1.72,0 0.74,0 1.46,0 2.25,0 2.65,-0.44 5.16,-0.79 7.57,-1.23 2.42,-0.37 4.9,-0.94 7.48,-1.73 2.15,-0.79 4.44,-1.78 6.7,-2.96 2.36,-1.19 4.77,-2.35 7.27,-3.56 4.27,-2.29 7.74,-5.85 10.57,-10.58 2.84,-4.69 4.59,-10.17 5.28,-16.47 0.99,-6.96 0.56,-12.88 -1.44,-17.59 -1.93,-4.69 -5.28,-8.02 -10.14,-10.02 -5.13,-1.93 -10.29,-3.51 -15.42,-4.67 -5.06,-1.21 -10.71,-1.97 -16.86,-2.34 -0.7,0 -1.49,0 -2.3,0 -0.72,0 -1.46,0 -2.25,0 -0.77,0 -1.48,0 -2.25,0 -0.74,0 -1.53,0 -2.3,0l-63.28 0 -33.19 253.98 66.15 0c9.07,0 17.22,-0.69 24.24,-2.04 7.03,-1.39 13.09,-3.41 18.02,-6.17 4.52,-3.16 8.43,-6.22 11.63,-9.19 3.22,-2.88 6.01,-6.12 8.17,-9.69 0.93,-1.53 1.8,-3.11 2.51,-4.67 0.78,-1.53 1.47,-3.08 1.93,-4.71 0.59,-1.51 1.04,-3.01 1.15,-4.4 0.23,-1.33 0.45,-2.61 0.7,-3.85 0.97,-7.06 0.92,-13.15 -0.13,-18.48 -1.07,-5.28 -3.19,-9.46 -6.24,-12.69 -2.98,-3.06 -6.54,-5.72 -10.43,-7.9 -3.92,-2.17 -7.82,-3.82 -11.75,-4.98 -2.79,-0.82 -5.39,-1.28 -7.88,-1.46 -2.49,-0.24 -4.92,-0.34 -7.15,-0.34 -1.17,0 -2.34,0 -3.45,0 -1.12,0 -2.29,-0.18 -3.54,-0.57 -0.72,0 -1.6,0 -2.54,0 -0.93,0 -1.84,0 -2.56,0 -0.38,0 -0.76,0 -1.1,0l-0.6 0 -42.77 0 11.54 -91.12zm591.83 -162.89l-12.42 97.58 -100.88 0 -43.91 338.67 -120.32 0 43.89 -338.67 -100.93 0 12.44 -97.58 322.13 0zm-9.9 218.12c5.06,-37.21 14.58,-70.06 28.6,-98.5 13.93,-28.4 32.67,-52.25 56,-71.42 23.72,-19.57 49.27,-34.21 76.7,-43.79 27.45,-9.62 56.79,-14.38 87.96,-14.38 30.8,0 58.49,4.76 83.12,14.38 24.6,9.58 46.22,24.22 64.7,43.79 18.79,19.17 31.81,43.02 38.92,71.42 7.12,28.44 8.1,61.29 3.07,98.5 -4.67,37.27 -14.23,70 -28.85,98.23 -14.61,28.19 -33.76,52.13 -57.39,71.75 -23.39,19.18 -48.69,33.49 -76,42.92 -27.29,9.38 -56.33,14.12 -87.11,14.12 -31.21,0 -59.15,-4.74 -83.94,-14.12 -24.78,-9.43 -46.65,-23.74 -65.46,-42.92 -18.46,-19.62 -31.02,-43.56 -37.5,-71.75 -6.51,-28.23 -7.46,-60.96 -2.82,-98.23zm123.77 0c-2.38,17.26 -2.7,33.45 -1.1,48.53 1.56,15.15 5.3,29.09 11.15,42.03 5.87,12.95 14.41,22.68 25.7,29.12 11.3,6.44 25.67,9.67 43.16,9.67 17.14,0 32.3,-3.23 45.54,-9.67 13.24,-6.44 24.3,-16.17 33.27,-29.12 8.92,-12.94 16.26,-26.88 21.9,-42.03 5.63,-15.08 9.63,-31.27 11.94,-48.53 1.97,-17.25 2.15,-33.39 0.53,-48.49 -1.55,-15.08 -5.29,-29.13 -11.15,-42.01 -5.46,-12.93 -13.92,-22.66 -25.42,-29.2 -11.48,-6.39 -25.76,-9.62 -42.9,-9.62 -17.47,0 -32.85,3.23 -46.09,9.62 -13.2,6.54 -24.26,16.27 -33.28,29.2 -8.93,12.88 -16.21,26.93 -21.91,42.01 -5.58,15.1 -9.44,31.24 -11.34,48.49zm614.26 -218.67c6.22,12.86 12,25.84 17.28,38.93 5.3,13.1 10.18,26.43 14.57,40.1 2.44,6.66 4.68,13.38 6.88,20.21 2.25,6.87 4.29,13.53 6.38,20.22 1.99,7.01 3.92,13.99 5.76,20.78 1.85,6.88 3.56,13.6 5.21,20.24 5.85,24.97 11.05,49.56 15.49,73.79 4.52,24.16 7.9,48.18 10.26,72.04 2.66,23.8 4.84,46.35 6.48,67.63 1.65,21.25 2.72,41.46 3.34,60.61l-119.88 0c-0.06,-0.39 -0.11,-0.81 -0.16,-1.2 -0.05,-0.38 -0.1,-0.75 -0.15,-1.12 -0.05,-0.44 -0.13,-1.01 -0.22,-1.75 -0.11,-0.84 -0.19,-1.4 -0.24,-1.8 -0.1,-0.76 -0.21,-1.65 -0.33,-2.59 -0.13,-1.01 -0.03,-1.9 0.25,-2.64 -0.06,-0.45 -0.1,-0.79 -0.16,-1.24 -0.15,-1.13 -0.31,-2.41 -0.49,-3.77 -0.18,-1.38 -0.17,-2.84 0.04,-4.35 -0.21,-1.6 -0.39,-3.33 -0.45,-5.3 -0.05,-2 -0.06,-4.1 0.02,-6.47 -0.25,-1.9 -0.36,-3.68 -0.39,-5.23 0,-1.63 0.05,-3.14 0.25,-4.71 -0.21,-1.58 -0.3,-3.02 -0.35,-4.35 0.06,-1.41 0.15,-2.86 0.36,-4.44 -0.46,-0.4 -0.72,-0.77 -0.78,-1.16 -0.05,-0.4 0.12,-0.79 0.48,-1.16l-0.08 -0.62c-0.05,-0.34 -0.09,-0.69 -0.12,-0.86 -0.02,-0.17 -0.06,-0.5 -0.11,-0.89 -0.16,-1.18 -0.32,-2.44 -0.5,-3.83 -0.16,-1.28 -0.2,-2.83 -0.04,-4.36 -0.15,-1.14 -0.34,-2.64 -0.57,-4.37 -0.22,-1.75 -0.25,-3.46 -0.07,-5.01l-118.71 0c2.41,-7.8 5,-15.5 7.81,-23.13 2.8,-7.62 5.61,-15.08 8.42,-22.53 1.39,-3.9 2.76,-7.73 4.24,-11.45 1.39,-3.68 2.76,-7.48 4.17,-11.41 1.46,-3.5 2.98,-7.1 4.53,-10.83 1.65,-3.7 3.14,-7.53 4.55,-11.43l73.21 0c-0.35,-2.71 -0.8,-5.43 -1.35,-8.22 -0.57,-2.69 -1,-5.45 -1.35,-8.17 -0.31,-2.37 -0.71,-4.88 -1.28,-7.65 -0.52,-2.71 -0.95,-5.43 -1.3,-8.14 -1.12,-5.53 -2.07,-10.64 -2.95,-15.57 -0.75,-4.87 -1.9,-9.8 -3.3,-14.91 -1.85,-8.17 -3.77,-15.92 -5.87,-23.13 -2.04,-7.23 -4.02,-13.77 -5.93,-19.62 -2.26,-5.85 -3.96,-10.83 -5.07,-14.95 -1.08,-4.08 -1.93,-6.94 -2.52,-8.52 -7.05,12.59 -14.11,25.35 -21.1,38.4 -7.06,13.13 -13.63,26.51 -19.79,40.08 -6.57,13.7 -12.94,27.38 -19.16,41.05 -6.12,13.67 -11.96,27.32 -17.37,40.99 -4.58,11.33 -9.11,22.56 -13.52,33.72 -4.41,11.05 -8.57,22.33 -12.41,33.66 -3.47,10.93 -6.96,21.82 -10.47,32.75 -3.51,10.94 -6.64,21.7 -9.51,32.23l-119.79 0c3.7,-12.48 7.64,-25.07 11.86,-37.76 4.24,-12.68 8.87,-25.71 13.97,-38.94 4.73,-13.33 9.67,-26.73 14.97,-40.16 5.21,-13.47 10.59,-26.83 16.04,-40.1 10.97,-26.56 22.37,-52.62 34.19,-78.17 11.82,-25.62 24.27,-50.67 37.36,-75.25 12.72,-24.6 25.4,-47.29 38.03,-67.99 12.64,-20.69 25.05,-39.39 37.28,-56.18l114.16 0zm400.51 97.22c-3.32,0 -7.14,0.07 -11.26,0.27 -4.16,0.2 -8.87,0.64 -14.05,1.48 -5.21,0.4 -10.46,1.43 -15.76,3.19 -5.27,1.8 -10.59,3.82 -15.98,6.17 -8.87,4.32 -17.92,10.56 -27.1,18.73 -9.14,8.19 -18.06,18.36 -26.69,30.43 -8.69,12.14 -15.92,27.64 -21.79,46.57 -5.87,18.96 -10.53,41.52 -13.96,67.65 -0.21,3.93 -0.72,8.12 -1.47,12.61 -0.76,4.5 -1.37,9.06 -1.95,13.78 -0.03,2.32 -0.21,4.69 -0.45,7 -0.29,2.4 -0.64,4.92 -1,7.61 -0.52,7.82 -1.03,15.69 -1.49,23.74 -0.47,8.05 -0.98,15.89 -1.45,23.72 -0.64,6.66 -1.26,13.18 -1.71,19.62 -0.48,6.49 -0.66,13 -0.57,19.59 -0.39,6.27 -0.56,12.34 -0.78,18.17 -0.17,5.9 -0.3,11.53 -0.36,17l-120.98 0c-0.16,-21.89 -0.03,-41.51 0.64,-58.88 0.55,-17.33 1.31,-32.48 2.32,-45.37 1.42,-12.88 2.47,-24.31 3.53,-34.25 0.95,-9.97 1.75,-18.24 2.44,-24.88 5.43,-42.6 13.62,-79.27 24.58,-110.13 10.98,-30.85 24.49,-55.82 40.53,-74.93 16.12,-19.12 32.4,-34.97 48.96,-47.51 16.52,-12.46 33.31,-21.62 50.45,-27.47 6.11,-2.02 12.25,-3.72 18.28,-5.25 6.01,-1.58 12.01,-2.77 17.98,-3.58 5.97,-0.72 11.75,-1.36 17.37,-1.75 5.63,-0.32 10.99,-0.55 15.82,-0.55l182.35 0 -56.07 434.55 -119.84 0 43.7 -337.33 -14.24 0zm334.43 -97.22l-43.69 337.29 36.33 0c0.39,0 0.65,0 0.86,0 0.2,0 0.48,0 0.87,0 0.4,0 0.74,0 1.14,0 0.75,0 1.39,0 1.97,0 0.57,0 1.03,0 1.41,0 10.99,0 21.71,-0.94 32.27,-2.91 10.56,-1.98 20.64,-4.87 30.41,-8.74 9.8,-3.55 17.64,-9.97 23.63,-19.33 5.96,-9.37 9.87,-21.67 11.67,-36.92 1.11,-8.98 0.84,-17.5 -0.77,-25.49 -1.59,-8 -4.72,-15.7 -9.48,-23.1 -4.37,-7.09 -10.85,-12.42 -19.47,-16.1 -8.6,-3.72 -19.35,-5.62 -32.27,-5.62 -3.33,0 -6.55,0.12 -9.56,0.34 -3.01,0.18 -5.99,0.67 -8.9,1.48 -2.61,0.35 -5.27,1.04 -7.97,2.05 -2.72,0.94 -5.52,2.05 -8.41,3.19 -0.28,0.44 -0.75,0.69 -1.28,0.88 -0.57,0.18 -1.04,0.3 -1.42,0.3 -0.33,0.37 -0.6,0.69 -1.01,0.86 -0.33,0.2 -0.7,0.33 -1.06,0.33l12.34 -97.27c0.74,-0.37 1.45,-0.62 2.19,-0.62 0.79,0 1.52,-0.15 2.19,-0.49 0.41,0 0.77,0 1.15,0 0.38,0 0.73,-0.25 1.06,-0.64 1.15,0 2.29,-0.08 3.37,-0.27 1.12,-0.23 2.25,-0.5 3.3,-0.89 1.08,-0.35 2.1,-0.67 3,-0.92 0.96,-0.12 1.93,-0.44 3.05,-0.84 1.12,0 2.23,-0.09 3.36,-0.29 1.08,-0.17 2.19,-0.47 3.28,-0.89 3.66,-0.77 7.24,-1.23 10.61,-1.43 3.37,-0.22 6.73,-0.5 10.08,-0.91 3.35,-0.35 7.02,-0.67 10.99,-0.89 3.95,-0.15 7.76,-0.27 11.59,-0.27 26.14,0 48.79,3.92 67.96,11.69 19.23,7.83 35.11,19.75 47.79,35.77 12.3,15.62 20.81,33.27 25.62,52.96 4.85,19.72 5.63,41.71 2.33,65.92 -3.02,23.37 -8.25,43.93 -15.62,61.48 -7.36,17.6 -16.91,32.04 -28.67,43.34 -11.75,11.67 -23.84,21.57 -36.23,29.59 -12.41,8 -24.99,14.14 -37.67,18.44 -10.15,3.5 -19.62,6.14 -28.53,7.9 -8.87,1.75 -17.58,3.03 -26.17,3.8 -8.28,0.39 -15.41,0.81 -21.41,1.18 -6.06,0.4 -11.08,0.59 -15.27,0.59l-186.85 0 56.03 -434.55 119.86 0zm486.86 97.22c-1.2,0 -2.44,0 -3.97,0 -1.54,0 -2.88,0 -3.98,0 -1.48,0.35 -2.99,0.57 -4.54,0.57 -1.46,0 -3.16,0 -5.08,0 -1.91,0 -3.67,0.07 -5.35,0.27 -1.69,0.22 -3.43,0.49 -5.29,0.91 -1.81,0.4 -3.59,0.72 -5.27,0.87 -1.65,0.22 -3.43,0.47 -5.27,0.89 -6.62,1.57 -13.05,3.8 -19.31,6.68 -6.25,2.94 -12.26,6.57 -18.12,10.89 -5.9,4.66 -10.61,10.64 -14.17,17.87 -3.61,7.23 -6.09,15.94 -7.46,26.03 -0.28,0.77 -0.44,1.56 -0.5,2.4 -0.12,0.74 -0.1,1.5 0.01,2.29 -0.21,1.16 -0.32,2.15 -0.22,2.94 0.1,0.79 0.2,1.56 0.31,2.37 -0.19,1.53 -0.28,3.21 -0.18,4.94 0.04,1.75 0.36,3.65 0.94,5.57 1.15,5.48 3.24,10.76 6.34,15.82 3.15,5.06 7.47,9.98 12.98,14.62 5.13,4.71 12.39,8.21 21.84,10.58 9.39,2.32 20.86,3.31 34.45,2.89 2.3,0 4.81,0 7.64,0 2.84,0 5.62,-0.17 8.2,-0.57 3.02,0 5.91,-0.19 8.71,-0.61 2.82,-0.37 5.88,-0.79 9.23,-1.14l-12.96 97.24c-1.39,0.77 -3.86,2.22 -7.43,4.35 -3.43,2.17 -8.16,5.01 -14.2,8.49 -5.57,3.5 -11.59,7.67 -17.97,12.34 -6.39,4.64 -13,10.14 -19.73,16.36 -4.7,4.71 -9.44,9.7 -14.26,14.98 -4.82,5.26 -9.49,10.81 -13.99,16.66 -4.96,5.85 -9.57,12.07 -13.8,18.76 -4.23,6.64 -7.94,13.65 -11.17,21.07l-127.2 0c1.79,-3.52 3.44,-6.83 4.95,-9.97 1.46,-3.16 3.19,-6.04 5.08,-8.78 3.38,-6.22 6.79,-12.07 10.27,-17.53 3.4,-5.48 6.93,-10.56 10.46,-15.3 5.55,-7.01 10.91,-13.7 16.15,-20.14 5.24,-6.49 10.52,-12.24 15.92,-17.27 6.08,-5.9 12.07,-11.23 18.08,-16.14 6,-4.89 11.75,-9.26 17.32,-13.18 5.62,-3.53 10.84,-6.69 15.79,-9.65 4.9,-2.97 9.52,-5.61 13.72,-7.93l0.22 -2.88c-0.84,0 -1.56,0 -2.3,0 -0.72,0 -1.51,0 -2.22,0 -1.59,-0.42 -3.19,-0.74 -4.74,-0.92 -1.51,-0.17 -3.06,-0.47 -4.59,-0.84 -2.76,-0.84 -5.34,-1.5 -7.71,-2.05 -2.33,-0.64 -4.66,-1.11 -6.96,-1.48 -11.5,-3.55 -22.3,-8.76 -32.41,-15.52 -10.15,-6.86 -19.68,-15.33 -28.58,-25.47 -8.53,-10.19 -14.31,-22.66 -17.34,-37.49 -3.1,-14.86 -3.41,-31.81 -0.94,-50.97 3.04,-23.44 8.19,-43.85 15.63,-61.2 7.35,-17.33 16.97,-31.54 28.84,-42.45 11.79,-11.33 23.99,-20.81 36.62,-28.41 12.65,-7.6 25.79,-13.35 39.23,-17.28 8.37,-2.69 16.66,-4.98 24.95,-6.74 8.32,-1.77 16.41,-2.83 24.31,-3.23 7.46,-0.79 14.32,-1.23 20.54,-1.45 6.22,-0.2 11.74,-0.28 16.67,-0.28l196.52 0 -56.03 434.55 -119.84 0 43.68 -337.33 -50.52 0zm370.73 -97.22l-56.07 434.55 -119.84 0 56.05 -434.55 119.86 0zm257.84 0l-56.08 434.55 -119.78 0 27.84 -214.4 -115.91 0 12.33 -97.76 115.88 0 15.9 -122.39 119.82 0zm353 94.26c-3.91,-1.14 -7.95,-2.22 -12.02,-3.16 -4.15,-1.01 -8.53,-1.88 -13.2,-2.67 -4.61,-0.83 -9.52,-1.45 -14.67,-2.04 -5.25,-0.62 -10.48,-0.89 -15.77,-0.89 -21.23,0 -40.37,3.01 -57.6,9.08 -17.17,6.02 -32.19,15.13 -45.06,27.22 -12.79,12.1 -23.1,25.92 -30.93,41.59 -7.83,15.62 -13.1,33.17 -15.85,52.69 -2.52,18.78 -2.79,35.17 -0.71,49.29 1.98,13.97 6.06,25.69 12.2,35.05 6.13,9.4 12.73,17.27 19.83,23.71 7.09,6.45 15.04,11.46 23.82,14.96 4.39,1.58 8.81,3.01 13.33,4.42 4.55,1.33 9.15,2.47 13.79,3.21 4.22,0.39 8.33,0.74 12.39,1.16 3.99,0.37 7.68,0.59 11.13,0.59 2.3,0 4.62,0 7.16,0 2.41,0 4.9,-0.22 7.53,-0.59 2.3,0 4.69,-0.23 7.3,-0.57 2.6,-0.42 5.18,-0.79 7.79,-1.19 3.01,-0.39 6.13,-0.88 9.45,-1.48 3.37,-0.59 6.68,-1.28 9.98,-2.05 1.48,-0.41 2.99,-0.79 4.66,-1.13 1.65,-0.44 3.18,-0.79 4.68,-1.21 1.44,-0.37 3,-0.91 4.65,-1.46 1.6,-0.59 3.19,-1.06 4.61,-1.5l-12.34 97.26c-6.72,0.79 -13.53,1.78 -20.37,2.89 -6.89,1.16 -13.99,2.17 -21.46,3.01 -7.47,0.74 -15.57,1.39 -24.18,2.03 -8.66,0.56 -17.89,0.84 -27.68,0.84 -38.29,0 -70.48,-5.16 -96.62,-15.53 -26.14,-10.36 -46.08,-26.04 -59.78,-47.14 -13.74,-21.05 -23.72,-43.36 -29.96,-66.73 -6.27,-23.43 -8.62,-48.03 -7.06,-73.8 0.17,-1.97 0.3,-3.97 0.41,-5.85 0.1,-1.97 0.23,-3.95 0.39,-5.87 0.51,-1.95 0.77,-4 0.88,-6.15 0.1,-2.14 0.19,-4.19 0.34,-6.17 4.39,-33.17 13.54,-63.38 27.39,-90.48 13.96,-27.1 32.42,-51.23 55.39,-72.31 23.03,-21.13 49.68,-36.9 79.96,-47.41 30.19,-10.61 63.67,-15.82 100.43,-15.82 7.58,0 14.8,0.24 21.67,0.86 6.92,0.54 13.64,1.24 20.16,2.1 6.52,0.74 12.84,1.7 18.83,2.89 6.03,1.11 11.79,2.51 17.29,4.09l-12.18 94.26z"/>
  <rect class="fil1" transform="matrix(0.832756 5.19298E-17 -0.119106 1.09824 4225.22 -0.00412033)" width="100%" height="100%" rx="27.37" ry="27.37"/>
  <path class="fil2" d="M4519.13 233.64l12.57 -90.41 -79.53 90.41 66.96 0zm93.8 47.92l-35.8 0 -8.69 62.55 -64.65 0 8.69 -62.55 -116.52 0 6.9 -49.68 135.84 -154.43 66.79 0 -21.7 156.19 35.79 0 -6.65 47.92zm-173.33 -151.31l-142.9 213.13 -74.09 0 148.39 -215.81 -126.44 0 6.96 -50.12 195.42 0 -7.34 52.8z"/>
 </g>
</svg>
