<svg width="12" height="12" viewBox="0 0 12 12" fill="none" xmlns="http://www.w3.org/2000/svg">
<g id="message-circle-svgrepo-com 1" clip-path="url(#clip0_405_344)">
<g id="Group">
<path id="Vector" d="M3.75 6.5625C3.75 6.41332 3.80926 6.27024 3.91475 6.16475C4.02024 6.05926 4.16332 6 4.3125 6H6.1875C6.33668 6 6.47976 6.05926 6.58525 6.16475C6.69074 6.27024 6.75 6.41332 6.75 6.5625C6.75 6.71168 6.69074 6.85476 6.58525 6.96025C6.47976 7.06574 6.33668 7.125 6.1875 7.125H4.3125C4.16332 7.125 4.02024 7.06574 3.91475 6.96025C3.80926 6.85476 3.75 6.71168 3.75 6.5625ZM4.3125 4.125C4.23863 4.125 4.16549 4.13955 4.09724 4.16782C4.02899 4.19609 3.96699 4.23752 3.91475 4.28975C3.86252 4.34199 3.82109 4.40399 3.79282 4.47224C3.76455 4.54049 3.75 4.61363 3.75 4.6875C3.75 4.76137 3.76455 4.83451 3.79282 4.90276C3.82109 4.97101 3.86252 5.03301 3.91475 5.08525C3.96699 5.13748 4.02899 5.17891 4.09724 5.20718C4.16549 5.23545 4.23863 5.25 4.3125 5.25H7.6875C7.83668 5.25 7.97976 5.19074 8.08525 5.08525C8.19074 4.97976 8.25 4.83668 8.25 4.6875C8.25 4.53832 8.19074 4.39524 8.08525 4.28975C7.97976 4.18426 7.83668 4.125 7.6875 4.125H4.3125Z" fill="#979797"/>
<path id="Vector_2" fill-rule="evenodd" clip-rule="evenodd" d="M1.54366 11.2004L1.54516 11.1997L1.55266 11.1967L1.58042 11.1839C1.74404 11.1116 1.90855 11.0414 2.07392 10.9732C2.47968 10.8023 2.89228 10.6482 3.31066 10.5112C3.51617 10.4467 3.69017 10.4009 3.81917 10.3792C3.85592 10.3732 3.88367 10.3702 3.90391 10.3679C4.98215 10.9065 6.21686 11.0439 7.38713 10.7555C8.55739 10.467 9.58682 9.77158 10.2912 8.79355C10.9956 7.81553 11.329 6.61877 11.2318 5.41742C11.1345 4.21606 10.613 3.08851 9.76043 2.23652C8.90788 1.38454 7.77999 0.863722 6.57857 0.767265C5.37715 0.670807 4.18061 1.005 3.20305 1.71006C2.22549 2.41511 1.53072 3.445 1.24304 4.61546C0.955369 5.78591 1.09357 7.02053 1.63291 8.09841C1.6307 8.1283 1.6272 8.15808 1.62242 8.18766C1.58972 8.36014 1.54562 8.53026 1.49041 8.69691C1.36141 9.10566 1.17541 9.57441 1.02691 9.93141C0.958746 10.0947 0.888741 10.2572 0.816915 10.4189L0.804165 10.4459L0.801165 10.4534V10.4549C0.754005 10.5589 0.73963 10.6749 0.759952 10.7872C0.780273 10.8996 0.834328 11.0032 0.914928 11.0841C0.995528 11.165 1.09885 11.2195 1.21117 11.2403C1.32348 11.2611 1.43945 11.2472 1.54366 11.2004ZM6.17342 1.87491C6.77221 1.87487 7.36318 2.0109 7.90169 2.27274C8.4402 2.53457 8.91217 2.91536 9.28194 3.38634C9.65171 3.85732 9.90961 4.40617 10.0362 4.99143C10.1627 5.57669 10.1546 6.18307 10.0125 6.76474C9.87035 7.34642 9.59788 7.88818 9.21566 8.34912C8.83344 8.81005 8.35148 9.1781 7.80616 9.42546C7.26085 9.67282 6.66646 9.79303 6.06788 9.77699C5.46931 9.76096 4.8822 9.60911 4.35092 9.33291C4.22621 9.2713 4.08875 9.23996 3.94967 9.24141C3.84304 9.2416 3.73663 9.25113 3.63166 9.26991C3.42916 9.30441 3.19892 9.36741 2.97241 9.43866C2.76841 9.50241 2.55466 9.57816 2.34691 9.65616C2.42416 9.44991 2.49916 9.23841 2.56291 9.03516C2.63491 8.80866 2.69791 8.57616 2.73166 8.37141C2.74891 8.26941 2.76166 8.15916 2.75941 8.05041C2.76016 7.91156 2.72857 7.77444 2.66716 7.64991C2.35391 7.04755 2.20114 6.37464 2.22358 5.69606C2.24602 5.01749 2.44291 4.35614 2.79527 3.77579C3.14762 3.19544 3.64356 2.71565 4.23526 2.3827C4.82697 2.04975 5.49447 1.87487 6.17342 1.87491Z" fill="#979797"/>
</g>
</g>
<defs>
<clipPath id="clip0_405_344">
<rect width="12" height="12" fill="white"/>
</clipPath>
</defs>
</svg>
