<svg width="19" height="20" viewBox="0 0 19 20" fill="none" xmlns="http://www.w3.org/2000/svg">
<path id="Path 32" d="M16.6916 0H3.89987C3.3969 0.00132475 2.91472 0.200881 2.55792 0.555393C2.20113 0.909904 1.99847 1.39078 1.99392 1.89374V3.57827H0.774121C0.346581 3.57827 0 3.94939 0 4.377C0 4.8046 0.346581 5.17572 0.774121 5.17572H1.99392V9.20128H0.774121C0.346581 9.20128 0 9.5724 0 10C0 10.4276 0.346581 10.7987 0.774121 10.7987H1.99392V14.8243H0.774121C0.57076 14.8243 0.375724 14.9051 0.231926 15.0489C0.0881279 15.1927 0.00734762 15.3877 0.00734762 15.5911C0.00734762 15.7944 0.0881279 15.9895 0.231926 16.1332C0.375724 16.277 0.57076 16.3578 0.774121 16.3578H1.99392V18.0915C1.9979 18.596 2.19991 19.0787 2.55641 19.4357C2.91291 19.7927 3.39538 19.9953 3.89987 20H11.4181C11.6248 19.9961 11.8215 19.9108 11.9656 19.7626L18.3663 13.3708C18.5156 13.225 18.6021 13.0267 18.6073 12.8181V1.89374C18.6073 0.853097 17.7321 0 16.6916 0ZM3.59143 18.0915V16.3578H4.87687C5.08023 16.3578 5.27525 16.277 5.41905 16.1332C5.56285 15.9895 5.64364 15.7944 5.64364 15.5911C5.64364 15.3877 5.56285 15.1927 5.41905 15.0489C5.27525 14.9051 5.08023 14.8243 4.87687 14.8243H3.5913V10.7987H4.87687C5.30441 10.7987 5.65093 10.4275 5.65093 10C5.65093 9.57246 5.30441 9.20128 4.87687 9.20128H3.5913V5.17572H4.87687C5.30441 5.17572 5.65093 4.80454 5.65093 4.377C5.65093 3.94946 5.30441 3.57827 4.87687 3.57827H3.5913V1.89374C3.5913 1.70683 3.71271 1.53355 3.89981 1.53355H16.6916C16.8785 1.53355 17.01 1.70683 17.01 1.89374V11.6294H12.1441C11.6389 11.6354 11.1561 11.8393 10.7995 12.1973C10.4429 12.5553 10.2409 13.0389 10.2368 13.5442V18.4026H3.89987C3.85849 18.4051 3.81705 18.3987 3.77831 18.3839C3.73958 18.3691 3.70444 18.3463 3.67524 18.3168C3.64605 18.2874 3.62347 18.2521 3.60901 18.2132C3.59454 18.1744 3.58853 18.1329 3.59136 18.0915H3.59143ZM11.8342 17.7228V13.5439C11.8314 13.5021 11.8375 13.4602 11.852 13.421C11.8665 13.3817 11.8891 13.3459 11.9183 13.316C11.9475 13.286 11.9828 13.2626 12.0217 13.2472C12.0606 13.2318 12.1023 13.2248 12.1441 13.2266H16.3231L11.8342 17.7228Z" fill="#303030"/>
</svg>
