<svg width="15" height="15" viewBox="0 0 15 15" fill="none" xmlns="http://www.w3.org/2000/svg">
<path fill-rule="evenodd" clip-rule="evenodd" d="M0 7.5C0 11.6419 3.36563 15 7.5 15C11.6419 15 15 11.6344 15 7.5C15 3.35812 11.6344 0 7.5 0C3.35812 0 0 3.36563 0 7.5ZM1.875 7.5C1.875 4.39969 4.39313 1.875 7.5 1.875C10.6003 1.875 13.125 4.39313 13.125 7.5C13.125 10.6003 10.6069 13.125 7.5 13.125C4.39969 13.125 1.875 10.6069 1.875 7.5ZM11.0419 5.9325L9.71625 4.60687L6.40125 7.92188L5.07562 6.59625L3.75 7.92188L6.40125 10.5731L9.38438 7.59L11.0419 5.9325Z" fill="#DD062A"/>
</svg>
