<svg width="15" height="14" viewBox="0 0 15 14" fill="none" xmlns="http://www.w3.org/2000/svg">
<path d="M6.64956 1.3748C7.04045 0.742902 7.95955 0.742901 8.35044 1.3748L13.0512 8.97393C13.4633 9.64013 12.9841 10.5 12.2007 10.5H2.79926C2.0159 10.5 1.53672 9.64013 1.94882 8.97393L6.64956 1.3748Z" fill="#DD062A"/>
<path d="M6.65863 3.06208C7.05212 2.44868 7.94853 2.44868 8.34202 3.06208L11.5643 8.08505C11.9912 8.75061 11.5133 9.625 10.7226 9.625H4.27808C3.48735 9.625 3.00943 8.75061 3.43639 8.08505L6.65863 3.06208Z" fill="white"/>
<path d="M5.75 9C5.658 9 5.588 8.976 5.54 8.928C5.492 8.88 5.468 8.81 5.468 8.718V6.312C5.468 6.22 5.49 6.152 5.534 6.108C5.582 6.06 5.646 6.036 5.726 6.036C5.814 6.036 5.88 6.06 5.924 6.108C5.968 6.152 5.99 6.22 5.99 6.312V8.562H7.16V6.312C7.16 6.22 7.182 6.152 7.226 6.108C7.274 6.06 7.338 6.036 7.418 6.036C7.506 6.036 7.572 6.06 7.616 6.108C7.66 6.152 7.682 6.22 7.682 6.312V8.562H8.852V6.312C8.852 6.22 8.874 6.152 8.918 6.108C8.966 6.06 9.03 6.036 9.11 6.036C9.194 6.036 9.258 6.06 9.302 6.108C9.35 6.152 9.374 6.22 9.374 6.312V8.718C9.374 8.81 9.348 8.88 9.296 8.928C9.248 8.976 9.18 9 9.092 9H5.75Z" fill="black"/>
</svg>
