<svg width="12" height="12" viewBox="0 0 12 12" fill="none" xmlns="http://www.w3.org/2000/svg">
<g clip-path="url(#clip0_405_342)">
<path d="M6.5026 0.683983C6.45576 0.590871 6.38397 0.512605 6.29524 0.457916C6.20651 0.403227 6.10433 0.374268 6.0001 0.374268C5.89587 0.374268 5.79369 0.403227 5.70496 0.457916C5.61623 0.512605 5.54444 0.590871 5.4976 0.683983L3.9496 3.75448L0.483102 4.25098C0.378572 4.26589 0.280348 4.30991 0.199664 4.37802C0.118981 4.44613 0.0590953 4.53557 0.0268583 4.63611C-0.00537866 4.73666 -0.00866563 4.84425 0.0173734 4.94657C0.0434124 5.0489 0.097726 5.14183 0.174102 5.21473L2.67535 7.59973L2.08585 10.9657C2.06783 11.0689 2.07894 11.175 2.11794 11.2721C2.15695 11.3693 2.22229 11.4536 2.30662 11.5157C2.39095 11.5777 2.49092 11.615 2.59529 11.6233C2.69965 11.6316 2.80426 11.6106 2.89735 11.5627L6.0001 9.96523L9.10285 11.5627C9.19594 11.6106 9.30055 11.6316 9.40492 11.6233C9.50928 11.615 9.60925 11.5777 9.69358 11.5157C9.77792 11.4536 9.84326 11.3693 9.88226 11.2721C9.92126 11.175 9.93238 11.0689 9.91435 10.9657L9.32485 7.59898L11.8261 5.21398C11.9023 5.14104 11.9564 5.04817 11.9823 4.94595C12.0082 4.84374 12.0048 4.7363 11.9726 4.63589C11.9404 4.53549 11.8806 4.44616 11.8001 4.3781C11.7195 4.31004 11.6215 4.266 11.5171 4.25098L8.0506 3.75448L6.5026 0.683983Z" fill="#FFC10A"/>
</g>
<defs>
<clipPath id="clip0_405_342">
<rect width="12" height="12" fill="white"/>
</clipPath>
</defs>
</svg>
