<svg width="44" height="44" viewBox="0 0 44 44" fill="none" xmlns="http://www.w3.org/2000/svg">
<path d="M44 22C44 22.5304 43.7893 23.0391 43.4142 23.4142C43.0391 23.7893 42.5304 24 42 24H34.828L39.414 28.586C39.7783 28.9632 39.9799 29.4684 39.9753 29.9928C39.9708 30.5172 39.7605 31.0188 39.3896 31.3896C39.0188 31.7605 38.5172 31.9708 37.9928 31.9753C37.4684 31.9799 36.9632 31.7783 36.586 31.414L29.172 24H24V29.172L31.414 36.586C31.7783 36.9632 31.9799 37.4684 31.9753 37.9928C31.9708 38.5172 31.7605 39.0188 31.3896 39.3896C31.0188 39.7605 30.5172 39.9708 29.9928 39.9753C29.4684 39.9799 28.9632 39.7783 28.586 39.414L24 34.828V42C24 42.5304 23.7893 43.0391 23.4142 43.4142C23.0391 43.7893 22.5304 44 22 44C21.4696 44 20.9609 43.7893 20.5858 43.4142C20.2107 43.0391 20 42.5304 20 42V34.828L15.414 39.414C15.2295 39.605 15.0088 39.7574 14.7648 39.8622C14.5208 39.967 14.2584 40.0222 13.9928 40.0245C13.7272 40.0268 13.4639 39.9762 13.2181 39.8756C12.9723 39.7751 12.749 39.6266 12.5612 39.4388C12.3734 39.251 12.2249 39.0277 12.1244 38.7819C12.0238 38.5361 11.9732 38.2728 11.9755 38.0072C11.9778 37.7416 12.033 37.4792 12.1378 37.2352C12.2426 36.9912 12.395 36.7705 12.586 36.586L20 29.172V24H14.828L7.414 31.414C7.0368 31.7783 6.53159 31.9799 6.0072 31.9753C5.4828 31.9708 4.98118 31.7605 4.61036 31.3896C4.23955 31.0188 4.02921 30.5172 4.02465 29.9928C4.0201 29.4684 4.22168 28.9632 4.586 28.586L9.172 24H2C1.46957 24 0.960859 23.7893 0.585786 23.4142C0.210714 23.0391 0 22.5304 0 22C0 21.4696 0.210714 20.9609 0.585786 20.5858C0.960859 20.2107 1.46957 20 2 20H9.172L4.586 15.414C4.39498 15.2295 4.24262 15.0088 4.1378 14.7648C4.03298 14.5208 3.97781 14.2584 3.9755 13.9928C3.97319 13.7272 4.0238 13.4639 4.12436 13.2181C4.22492 12.9723 4.37342 12.749 4.56121 12.5612C4.749 12.3734 4.9723 12.2249 5.21809 12.1244C5.46388 12.0238 5.72724 11.9732 5.9928 11.9755C6.25836 11.9778 6.5208 12.033 6.76481 12.1378C7.00882 12.2426 7.22951 12.395 7.414 12.586L14.828 20H20V14.828L12.586 7.414C12.395 7.22951 12.2426 7.00882 12.1378 6.76481C12.033 6.5208 11.9778 6.25836 11.9755 5.9928C11.9732 5.72724 12.0238 5.46388 12.1244 5.21809C12.2249 4.9723 12.3734 4.749 12.5612 4.56121C12.749 4.37342 12.9723 4.22492 13.2181 4.12436C13.4639 4.0238 13.7272 3.97319 13.9928 3.9755C14.2584 3.97781 14.5208 4.03298 14.7648 4.1378C15.0088 4.24262 15.2295 4.39498 15.414 4.586L20 9.172V2C20 1.46957 20.2107 0.960859 20.5858 0.585786C20.9609 0.210714 21.4696 0 22 0C22.5304 0 23.0391 0.210714 23.4142 0.585786C23.7893 0.960859 24 1.46957 24 2V9.172L28.586 4.586C28.7705 4.39498 28.9912 4.24262 29.2352 4.1378C29.4792 4.03298 29.7416 3.97781 30.0072 3.9755C30.2728 3.97319 30.5361 4.0238 30.7819 4.12436C31.0277 4.22492 31.251 4.37342 31.4388 4.56121C31.6266 4.749 31.7751 4.9723 31.8756 5.21809C31.9762 5.46388 32.0268 5.72724 32.0245 5.9928C32.0222 6.25836 31.967 6.5208 31.8622 6.76481C31.7574 7.00882 31.605 7.22951 31.414 7.414L24 14.828V20H29.172L36.586 12.586C36.7705 12.395 36.9912 12.2426 37.2352 12.1378C37.4792 12.033 37.7416 11.9778 38.0072 11.9755C38.2728 11.9732 38.5361 12.0238 38.7819 12.1244C39.0277 12.2249 39.251 12.3734 39.4388 12.5612C39.6266 12.749 39.7751 12.9723 39.8756 13.2181C39.9762 13.4639 40.0268 13.7272 40.0245 13.9928C40.0222 14.2584 39.967 14.5208 39.8622 14.7648C39.7574 15.0088 39.605 15.2295 39.414 15.414L34.828 20H42C42.5304 20 43.0391 20.2107 43.4142 20.5858C43.7893 20.9609 44 21.4696 44 22Z" fill="#3059A8"/>
</svg>
