<svg width="12" height="12" viewBox="0 0 12 12" fill="none" xmlns="http://www.w3.org/2000/svg">
<g id="Group 33918">
<path id="Vector" d="M5.99707 2.42676V6.00019" stroke="#037EDD" stroke-miterlimit="10" stroke-linecap="round" stroke-linejoin="round"/>
<path id="Vector_2" d="M7.41863 1L5.99751 2.42671L4.58301 1" stroke="#037EDD" stroke-miterlimit="10" stroke-linecap="round" stroke-linejoin="round"/>
<path id="Vector_3" d="M2.93555 4.21338L5.9959 6.0001" stroke="#037EDD" stroke-miterlimit="10" stroke-linecap="round" stroke-linejoin="round"/>
<path id="Vector_4" d="M2.41451 2.26025L2.93668 4.21364L1 4.74032" stroke="#037EDD" stroke-miterlimit="10" stroke-linecap="round" stroke-linejoin="round"/>
<path id="Vector_5" d="M2.93555 7.78672L5.9959 6" stroke="#037EDD" stroke-miterlimit="10" stroke-linecap="round" stroke-linejoin="round"/>
<path id="Vector_6" d="M1 7.26025L2.93668 7.78694L2.41451 9.74032" stroke="#037EDD" stroke-miterlimit="10" stroke-linecap="round" stroke-linejoin="round"/>
<path id="Vector_7" d="M5.99707 9.57343V6" stroke="#037EDD" stroke-miterlimit="10" stroke-linecap="round" stroke-linejoin="round"/>
<path id="Vector_8" d="M4.58301 10.9999L5.99751 9.57324L7.41863 10.9999" stroke="#037EDD" stroke-miterlimit="10" stroke-linecap="round" stroke-linejoin="round"/>
<path id="Vector_9" d="M9.06404 7.78672L5.99707 6" stroke="#037EDD" stroke-miterlimit="10" stroke-linecap="round" stroke-linejoin="round"/>
<path id="Vector_10" d="M9.58663 9.74032L9.06445 7.78694L11.0011 7.26025" stroke="#037EDD" stroke-miterlimit="10" stroke-linecap="round" stroke-linejoin="round"/>
<path id="Vector_11" d="M9.06404 4.21338L5.99707 6.0001" stroke="#037EDD" stroke-miterlimit="10" stroke-linecap="round" stroke-linejoin="round"/>
<path id="Vector_12" d="M11.0011 4.74032L9.06445 4.21364L9.58663 2.26025" stroke="#037EDD" stroke-miterlimit="10" stroke-linecap="round" stroke-linejoin="round"/>
</g>
</svg>
