<svg width="20" height="19" viewBox="0 0 20 19" fill="none" xmlns="http://www.w3.org/2000/svg">
<path d="M10.8377 0.516192C10.7596 0.361006 10.64 0.230562 10.4921 0.139414C10.3442 0.0482665 10.1739 0 10.0002 0C9.82645 0 9.65615 0.0482665 9.50827 0.139414C9.36039 0.230562 9.24074 0.361006 9.16267 0.516192L6.58267 5.63369L0.805169 6.46119C0.630954 6.48603 0.467247 6.5594 0.332774 6.67292C0.198301 6.78643 0.0984922 6.9355 0.0447639 7.10307C-0.00896444 7.27065 -0.0144427 7.44996 0.0289557 7.62051C0.072354 7.79105 0.162877 7.94593 0.290169 8.06744L4.45892 12.0424L3.47642 17.6524C3.44638 17.8243 3.4649 18.0012 3.5299 18.1631C3.59491 18.325 3.70381 18.4656 3.84437 18.569C3.98492 18.6724 4.15154 18.7345 4.32548 18.7484C4.49942 18.7623 4.67377 18.7273 4.82892 18.6474L10.0002 15.9849L15.1714 18.6474C15.3266 18.7273 15.5009 18.7623 15.6749 18.7484C15.8488 18.7345 16.0154 18.6724 16.156 18.569C16.2965 18.4656 16.4054 18.325 16.4704 18.1631C16.5354 18.0012 16.554 17.8243 16.5239 17.6524L15.5414 12.0412L19.7102 8.06619C19.8371 7.94463 19.9273 7.78984 19.9705 7.61948C20.0136 7.44912 20.0081 7.27005 19.9544 7.10271C19.9007 6.93537 19.801 6.78649 19.6668 6.67306C19.5325 6.55963 19.3691 6.48621 19.1952 6.46119L13.4177 5.63369L10.8377 0.516192Z" fill="#FFC10A"/>
</svg>
