<svg width="44" height="44" viewBox="0 0 44 44" fill="none" xmlns="http://www.w3.org/2000/svg">
<path d="M22 34C24.3734 34 26.6935 33.2962 28.6668 31.9776C30.6402 30.6591 32.1783 28.7849 33.0866 26.5922C33.9948 24.3995 34.2324 21.9867 33.7694 19.6589C33.3064 17.3311 32.1635 15.1929 30.4853 13.5147C28.8071 11.8365 26.6689 10.6936 24.3411 10.2306C22.0133 9.76755 19.6005 10.0052 17.4078 10.9134C15.2151 11.8217 13.3409 13.3598 12.0224 15.3332C10.7038 17.3065 10 19.6266 10 22C10.0032 25.1816 11.2685 28.232 13.5182 30.4818C15.768 32.7315 18.8184 33.9968 22 34ZM22 14C23.5823 14 25.129 14.4692 26.4446 15.3482C27.7602 16.2273 28.7855 17.4767 29.391 18.9385C29.9965 20.4003 30.155 22.0089 29.8463 23.5607C29.5376 25.1126 28.7757 26.538 27.6569 27.6569C26.538 28.7757 25.1126 29.5376 23.5607 29.8463C22.0089 30.155 20.4003 29.9965 18.9385 29.391C17.4767 28.7855 16.2273 27.7602 15.3482 26.4446C14.4692 25.129 14 23.5823 14 22C14 19.8783 14.8429 17.8434 16.3431 16.3431C17.8434 14.8429 19.8783 14 22 14ZM20 4V2C20 1.46957 20.2107 0.960859 20.5858 0.585786C20.9609 0.210714 21.4696 0 22 0C22.5304 0 23.0391 0.210714 23.4142 0.585786C23.7893 0.960859 24 1.46957 24 2V4C24 4.53043 23.7893 5.03914 23.4142 5.41421C23.0391 5.78929 22.5304 6 22 6C21.4696 6 20.9609 5.78929 20.5858 5.41421C20.2107 5.03914 20 4.53043 20 4ZM22 38C22.5304 38 23.0391 38.2107 23.4142 38.5858C23.7893 38.9609 24 39.4696 24 40V42C24 42.5304 23.7893 43.0391 23.4142 43.4142C23.0391 43.7893 22.5304 44 22 44C21.4696 44 20.9609 43.7893 20.5858 43.4142C20.2107 43.0391 20 42.5304 20 42V40C20 39.4696 20.2107 38.9609 20.5858 38.5858C20.9609 38.2107 21.4696 38 22 38ZM33.314 10.686C32.9391 10.3109 32.7284 9.80233 32.7284 9.272C32.7284 8.74167 32.9391 8.23306 33.314 7.858L34.728 6.444C35.1052 6.07968 35.6104 5.8781 36.1348 5.88265C36.6592 5.88721 37.1608 6.09755 37.5316 6.46836C37.9025 6.83918 38.1128 7.3408 38.1173 7.8652C38.1219 8.38959 37.9203 8.8948 37.556 9.272L36.142 10.686C35.7669 11.0609 35.2583 11.2716 34.728 11.2716C34.1977 11.2716 33.6891 11.0609 33.314 10.686ZM10.686 33.314C11.0609 33.6891 11.2716 34.1977 11.2716 34.728C11.2716 35.2583 11.0609 35.7669 10.686 36.142L9.272 37.556C8.8948 37.9203 8.38959 38.1219 7.8652 38.1173C7.3408 38.1128 6.83918 37.9025 6.46836 37.5316C6.09755 37.1608 5.88721 36.6592 5.88265 36.1348C5.8781 35.6104 6.07968 35.1052 6.444 34.728L7.858 33.314C8.23306 32.9391 8.74167 32.7284 9.272 32.7284C9.80233 32.7284 10.3109 32.9391 10.686 33.314ZM44 22C44 22.5304 43.7893 23.0391 43.4142 23.4142C43.0391 23.7893 42.5304 24 42 24H40C39.4696 24 38.9609 23.7893 38.5858 23.4142C38.2107 23.0391 38 22.5304 38 22C38 21.4696 38.2107 20.9609 38.5858 20.5858C38.9609 20.2107 39.4696 20 40 20H42C42.5304 20 43.0391 20.2107 43.4142 20.5858C43.7893 20.9609 44 21.4696 44 22ZM0 22C0 21.4696 0.210714 20.9609 0.585786 20.5858C0.960859 20.2107 1.46957 20 2 20H4C4.53043 20 5.03914 20.2107 5.41421 20.5858C5.78929 20.9609 6 21.4696 6 22C6 22.5304 5.78929 23.0391 5.41421 23.4142C5.03914 23.7893 4.53043 24 4 24H2C1.46957 24 0.960859 23.7893 0.585786 23.4142C0.210714 23.0391 0 22.5304 0 22ZM36.142 33.314L37.556 34.728C37.747 34.9125 37.8994 35.1332 38.0042 35.3772C38.109 35.6212 38.1642 35.8836 38.1665 36.1492C38.1688 36.4148 38.1182 36.6781 38.0176 36.9239C37.9171 37.1697 37.7686 37.393 37.5808 37.5808C37.393 37.7686 37.1697 37.9171 36.9239 38.0176C36.6781 38.1182 36.4148 38.1688 36.1492 38.1665C35.8836 38.1642 35.6212 38.109 35.3772 38.0042C35.1332 37.8994 34.9125 37.747 34.728 37.556L33.314 36.142C32.9497 35.7648 32.7481 35.2596 32.7527 34.7352C32.7572 34.2108 32.9675 33.7092 33.3384 33.3384C33.7092 32.9675 34.2108 32.7572 34.7352 32.7527C35.2596 32.7481 35.7648 32.9497 36.142 33.314ZM6.444 9.272C6.07968 8.8948 5.8781 8.38959 5.88265 7.8652C5.88721 7.3408 6.09755 6.83918 6.46836 6.46836C6.83918 6.09755 7.3408 5.88721 7.8652 5.88265C8.38959 5.8781 8.8948 6.07968 9.272 6.444L10.686 7.858C10.877 8.04249 11.0294 8.26318 11.1342 8.50719C11.239 8.7512 11.2942 9.01364 11.2965 9.2792C11.2988 9.54476 11.2482 9.80812 11.1476 10.0539C11.0471 10.2997 10.8986 10.523 10.7108 10.7108C10.523 10.8986 10.2997 11.0471 10.0539 11.1476C9.80812 11.2482 9.54476 11.2988 9.2792 11.2965C9.01364 11.2942 8.7512 11.239 8.50719 11.1342C8.26318 11.0294 8.04249 10.877 7.858 10.686L6.444 9.272Z" fill="#FFC10A"/>
</svg>
