<svg width="36" height="36" viewBox="0 0 36 36" fill="none" xmlns="http://www.w3.org/2000/svg">
<g id="iconfinder_social-56_1591869 (1)">
<path id="&#208;&#173;&#208;&#187;&#208;&#187;&#208;&#184;&#208;&#191;&#209;&#129; 132" d="M17.8819 35.6426C27.7578 35.6426 35.7638 27.664 35.7638 17.8219C35.7638 7.97982 27.7578 0.0012207 17.8819 0.0012207C8.006 0.0012207 0 7.97982 0 17.8219C0 27.664 8.006 35.6426 17.8819 35.6426Z" fill="#139BD0"/>
<path id="&#208;&#154;&#208;&#190;&#208;&#189;&#209;&#130;&#209;&#131;&#209;&#128; 1316" fill-rule="evenodd" clip-rule="evenodd" d="M18.4124 22.0132C17.7257 22.6792 17.0452 23.337 16.3687 23.9959C16.2627 24.1108 16.1325 24.201 15.9875 24.2599C15.8425 24.3189 15.6862 24.3452 15.5298 24.337C15.4304 24.3404 15.3329 24.3091 15.2542 24.2485C15.1754 24.1879 15.1204 24.1018 15.0986 24.0051C14.5815 22.4073 14.0573 20.8136 13.5444 19.2189C13.5285 19.1509 13.4937 19.0886 13.4441 19.0392C13.3944 18.9899 13.3318 18.9555 13.2634 18.9399C12.046 18.5692 10.8311 18.1914 9.61854 17.8065C9.42883 17.7503 9.24817 17.6673 9.08208 17.5601C9.02478 17.5311 8.97575 17.4881 8.93952 17.4352C8.9033 17.3823 8.88105 17.3211 8.87484 17.2574C8.86862 17.1936 8.87864 17.1293 8.90397 17.0705C8.9293 17.0116 8.96912 16.96 9.01975 16.9206C9.22916 16.7341 9.46899 16.5846 9.72889 16.4786C11.2167 15.8911 12.7116 15.3228 14.2055 14.7475L25.5743 10.3748C25.7114 10.2944 25.8692 10.256 26.028 10.2643C26.1869 10.2726 26.3398 10.3272 26.4677 10.4214C26.5956 10.5156 26.693 10.6452 26.7476 10.794C26.8022 10.9429 26.8117 11.1045 26.775 11.2587C26.7091 11.7554 26.6153 12.248 26.4939 12.7342C25.671 16.6039 24.8464 20.4756 24.0201 24.3493C23.8239 25.2658 23.1761 25.5081 22.4169 24.9501C21.1457 24.0166 19.8749 23.0814 18.6045 22.1446C18.5442 22.1039 18.4808 22.0621 18.4124 22.0132ZM15.5584 23.1894L15.6013 23.1782C15.6096 23.143 15.6158 23.1072 15.6197 23.0713C15.7015 22.1935 15.7873 21.3167 15.8588 20.4369C15.8627 20.3474 15.8852 20.2597 15.925 20.1794C15.9647 20.0991 16.0209 20.028 16.0897 19.9705C17.2614 18.9263 18.4294 17.8785 19.5936 16.8269C20.8879 15.666 22.1785 14.5038 23.4653 13.3401C23.5361 13.2517 23.5927 13.1527 23.6328 13.0469C23.515 13.0156 23.3927 13.0043 23.2711 13.0133C23.1193 13.0613 22.9756 13.1321 22.845 13.223C19.9962 15.0112 17.1449 16.8004 14.2913 18.5906C14.2572 18.604 14.2263 18.6245 14.2007 18.6508C14.1752 18.677 14.1556 18.7085 14.1433 18.7429C14.131 18.7774 14.1263 18.8141 14.1294 18.8505C14.1326 18.887 14.1435 18.9223 14.1616 18.9542C14.3721 19.556 14.5631 20.1639 14.7614 20.7698L15.5584 23.1894Z" fill="white"/>
</g>
</svg>
