<svg width="36" height="36" viewBox="0 0 36 36" fill="none" xmlns="http://www.w3.org/2000/svg">
<g id="Layer 1">
<path id="&#208;&#173;&#208;&#187;&#208;&#187;&#208;&#184;&#208;&#191;&#209;&#129; 133" d="M17.9971 35.6429C27.8731 35.6429 35.8791 27.6643 35.8791 17.8222C35.8791 7.98006 27.8731 0.00146484 17.9971 0.00146484C8.12124 0.00146484 0.115234 7.98006 0.115234 17.8222C0.115234 27.6643 8.12124 35.6429 17.9971 35.6429Z" fill="#7D3DAF"/>
<g id="&#208;&#161;&#208;&#179;&#209;&#128;&#209;&#131;&#208;&#191;&#208;&#191;&#208;&#184;&#209;&#128;&#208;&#190;&#208;&#178;&#208;&#176;&#209;&#130;&#209;&#140; 1122">
<path id="&#208;&#154;&#208;&#190;&#208;&#189;&#209;&#130;&#209;&#131;&#209;&#128; 1319" d="M27.3985 13.0056C27.0634 11.9862 26.4831 11.064 25.7081 10.3195C24.9331 9.57506 23.9871 9.03096 22.9525 8.73472C19.8766 8.14637 16.7165 8.14637 13.6406 8.73472C12.5883 9.01268 11.6214 9.54593 10.8262 10.2869C10.031 11.0278 9.43223 11.9535 9.08331 12.9811C8.5139 15.5555 8.5139 18.2225 9.08331 20.7968C9.40605 21.7758 9.95368 22.6661 10.6826 23.397C11.4115 24.1278 12.3016 24.679 13.282 25.0065V27.087C13.2824 27.2537 13.3328 27.4164 13.4267 27.5544C13.5206 27.6924 13.6536 27.7993 13.8088 27.8614C13.964 27.9235 14.1343 27.9381 14.2979 27.9032C14.4614 27.8682 14.6108 27.7854 14.7268 27.6654L16.8389 25.4872H18.2021C19.7647 25.486 21.3238 25.3377 22.8585 25.0442C23.893 24.748 24.8391 24.2039 25.6141 23.4594C26.3891 22.715 26.9694 21.7928 27.3045 20.7734C27.8979 18.2212 27.9299 15.5713 27.3985 13.0056ZM25.7309 20.3905C25.4726 21.0964 25.0556 21.734 24.5118 22.2546C23.9681 22.7751 23.312 23.1647 22.5939 23.3935C20.966 23.7015 19.3096 23.8336 17.6533 23.7876C17.6396 23.7818 17.6248 23.7788 17.6099 23.7788C17.595 23.7788 17.5802 23.7818 17.5665 23.7876L16.0082 25.4607L14.3661 27.1348C14.3386 27.161 14.3041 27.1786 14.2668 27.1856C14.2294 27.1927 14.1908 27.1888 14.1556 27.1745C14.1204 27.1602 14.0901 27.1361 14.0684 27.105C14.0466 27.0739 14.0343 27.0373 14.033 26.9994V23.5656C14.0307 23.5385 14.0194 23.5128 14.0009 23.4927C13.9824 23.4727 13.9578 23.4592 13.9308 23.4546C13.2127 23.2258 12.5566 22.8362 12.0129 22.3157C11.4691 21.7951 11.0521 21.1575 10.7938 20.4516C10.281 18.1243 10.281 15.7137 10.7938 13.3864C11.0518 12.6795 11.4689 12.0409 12.013 11.5197C12.5572 10.9984 13.2139 10.6083 13.9329 10.3793C16.7889 9.83517 19.7225 9.83517 22.5785 10.3793C23.2967 10.6081 23.9528 10.9977 24.4965 11.5183C25.0403 12.0388 25.4572 12.6764 25.7155 13.3824C26.2329 15.7087 26.2371 18.1193 25.7278 20.4475L25.7309 20.3905Z" fill="white"/>
<path id="&#208;&#154;&#208;&#190;&#208;&#189;&#209;&#130;&#209;&#131;&#209;&#128; 1320" d="M22.4403 19.8475C22.1833 19.6328 21.9152 19.4316 21.6372 19.2447C21.3531 19.0481 21.0813 18.8506 20.785 18.6663C20.6548 18.5694 20.4968 18.5171 20.3343 18.5171C20.1719 18.5171 20.0139 18.5694 19.8837 18.6663C19.6119 18.8883 19.475 19.319 19.0928 19.3679C18.8683 19.3737 18.6465 19.3184 18.4511 19.208C17.8642 18.9501 17.3399 18.5693 16.9138 18.0916C16.4876 17.6138 16.1696 17.0503 15.9814 16.4392C15.9434 16.3627 15.9236 16.2786 15.9236 16.1933C15.9236 16.1079 15.9434 16.0238 15.9814 15.9473C16.0348 15.8671 16.1015 15.7965 16.1786 15.7386L16.4381 15.542C16.608 15.4247 16.726 15.2466 16.7675 15.0448C16.809 14.843 16.7708 14.633 16.6609 14.4585C16.3077 13.8585 15.8922 13.297 15.4214 12.7834C15.3353 12.6651 15.2096 12.5814 15.0669 12.5476C14.9242 12.5138 14.7741 12.532 14.6438 12.5991C14.2749 12.7707 13.9465 13.0182 13.6802 13.3251C13.5106 13.4764 13.3862 13.6714 13.3207 13.8886C13.2553 14.1059 13.2513 14.3369 13.3093 14.5563C13.5065 15.0359 13.7048 15.5166 13.9224 15.982C14.3932 16.969 14.9957 17.888 15.7137 18.7141C17.0131 20.0997 18.6147 21.1693 20.3946 21.8404C20.5673 21.9147 20.7533 21.9514 20.9382 22.0125C21.1074 21.9748 21.2727 21.9212 21.4318 21.8526C21.9387 21.5774 22.3418 21.1453 22.5803 20.6214C22.649 20.4959 22.6726 20.3507 22.6471 20.2099C22.6217 20.0691 22.5487 19.9413 22.4403 19.8475Z" fill="white"/>
<path id="&#208;&#154;&#208;&#190;&#208;&#189;&#209;&#130;&#209;&#131;&#209;&#128; 1321" d="M18.2666 12.0319H18.1307C18.0905 12.0316 18.0506 12.0398 18.0139 12.0561C17.9771 12.0723 17.9442 12.0961 17.9173 12.1259C17.8905 12.1558 17.8703 12.191 17.8581 12.2292C17.8459 12.2674 17.842 12.3077 17.8466 12.3475C17.8466 12.5563 18.0939 12.5563 18.2666 12.5818C18.5281 12.5841 18.7886 12.6131 19.0442 12.6683C19.891 12.8254 20.6675 13.242 21.2654 13.8599C21.8633 14.4778 22.2527 15.2663 22.3794 16.1154C22.3794 16.4351 22.4407 16.7681 22.4663 17.1001C22.4918 17.432 22.5685 17.4198 22.7503 17.4198C22.7895 17.4187 22.828 17.4092 22.8631 17.3918C22.8983 17.3745 22.9292 17.3498 22.9539 17.3194C22.9785 17.289 22.9963 17.2537 23.006 17.2159C23.0156 17.178 23.017 17.1385 23.0099 17.1001C23.0277 16.6859 22.986 16.2713 22.8862 15.8689C22.6882 14.7917 22.1177 13.8178 21.274 13.1162C20.4302 12.4147 19.3665 12.0299 18.2676 12.0288L18.2666 12.0319Z" fill="white"/>
<path id="&#208;&#154;&#208;&#190;&#208;&#189;&#209;&#130;&#209;&#131;&#209;&#128; 1322" d="M21.242 16.5358C21.2302 16.6094 21.2302 16.6843 21.242 16.7578C21.259 16.8097 21.292 16.8549 21.3363 16.887C21.3806 16.9191 21.434 16.9363 21.4888 16.9363C21.5435 16.9363 21.5969 16.9191 21.6412 16.887C21.6856 16.8549 21.7186 16.8097 21.7355 16.7578C21.7395 16.7046 21.7395 16.6512 21.7355 16.598C21.7355 16.4381 21.7355 16.3149 21.7355 16.2039V16.0572C21.6761 15.5549 21.4924 15.0751 21.201 14.661C20.9096 14.2469 20.5195 13.9114 20.0659 13.6845C19.5943 13.4443 19.0757 13.3098 18.5464 13.2904C18.476 13.2856 18.4064 13.3088 18.3532 13.355C18.2999 13.4012 18.2672 13.4666 18.2624 13.5369C18.2575 13.6071 18.2808 13.6764 18.3272 13.7294C18.3735 13.7825 18.4392 13.8151 18.5096 13.82L18.9541 13.8943C19.258 13.9416 19.5534 14.0329 19.8309 14.1652C20.2892 14.3904 20.6714 14.7444 20.9303 15.1835C21.1452 15.6021 21.2507 16.0679 21.2369 16.5379L21.242 16.5358Z" fill="white"/>
<path id="&#208;&#154;&#208;&#190;&#208;&#189;&#209;&#130;&#209;&#131;&#209;&#128; 1323" d="M20.5506 16.3527C20.5621 16.2791 20.5621 16.2042 20.5506 16.1307C20.5523 15.9212 20.5123 15.7134 20.4329 15.5194C20.3536 15.3254 20.2365 15.1489 20.0884 15.0002C19.9403 14.8515 19.7642 14.7334 19.5701 14.6529C19.376 14.5724 19.1679 14.5309 18.9576 14.5309C18.8897 14.5264 18.8225 14.5463 18.7681 14.5871C18.7137 14.6278 18.6758 14.6867 18.6613 14.7529C18.6545 14.7867 18.6546 14.8215 18.6615 14.8553C18.6684 14.8891 18.682 14.9211 18.7015 14.9496C18.721 14.978 18.746 15.0023 18.7751 15.021C18.8042 15.0397 18.8367 15.0524 18.8708 15.0584C19.0175 15.0492 19.1646 15.07 19.303 15.1195C19.4129 15.1509 19.5166 15.2008 19.6095 15.2671C19.805 15.4164 19.9409 15.6301 19.9927 15.87C20.0007 15.9931 20.0007 16.1166 19.9927 16.2396C19.9927 16.2779 20.0004 16.3157 20.0155 16.3509C20.0305 16.386 20.0525 16.4178 20.0802 16.4443C20.1079 16.4707 20.1407 16.4913 20.1766 16.5048C20.2125 16.5183 20.2507 16.5244 20.2891 16.5227C20.3459 16.5306 20.4038 16.5175 20.4516 16.4858C20.4994 16.454 20.5339 16.406 20.5486 16.3506L20.5506 16.3527Z" fill="white"/>
</g>
</g>
</svg>
