<svg width="37" height="36" viewBox="0 0 37 36" fill="none" xmlns="http://www.w3.org/2000/svg">
<g id="layer1">
<path id="rect2990 1" d="M36.4367 17.8222C36.4367 7.98006 28.4307 0.00146484 18.5548 0.00146484C8.67886 0.00146484 0.672852 7.98006 0.672852 17.8222C0.672852 27.6643 8.67886 35.6429 18.5548 35.6429C28.4307 35.6429 36.4367 27.6643 36.4367 17.8222Z" fill="#537599"/>
<path id="rect2989 7" d="M19.6292 11.3525C18.4143 11.3586 17.6408 11.3595 16.5484 11.3595C15.6349 11.3595 15.1179 11.7282 15.1066 11.9481C15.0913 12.1518 15.5573 12.3117 15.8413 12.4736C15.9971 12.6064 16.1237 12.7699 16.2132 12.9537C16.3027 13.1375 16.3532 13.3377 16.3614 13.5418V16.6987C16.3734 16.8329 16.3511 16.968 16.2966 17.0914C16.2421 17.2148 16.1572 17.3225 16.0498 17.4044C15.9338 17.4898 15.7911 17.5313 15.6472 17.5215C15.5723 17.5264 15.4972 17.5137 15.4281 17.4844C15.3591 17.455 15.2979 17.4098 15.2497 17.3524C14.047 15.8005 14.0429 15.609 12.3579 12.4828C12.2842 12.314 12.171 12.1653 12.0279 12.049C11.7844 11.8955 11.4978 11.8241 11.2104 11.8453C9.85651 11.8453 9.02066 11.8647 8.12963 11.8647C7.28663 11.8647 7.36736 12.3799 7.48078 12.6141C8.49136 14.7139 9.51727 16.719 10.6965 18.7547C11.7129 20.8446 13.3878 22.5455 15.4653 23.5978C16.2254 23.9274 17.0469 24.0927 17.8758 24.0825H20.0594C20.3404 24.0825 20.8064 23.8616 20.8064 23.5652V21.9359C20.8064 21.4685 21.2733 21.2994 21.5288 21.1844C21.6677 21.1433 21.8159 21.1449 21.9539 21.1891C22.0919 21.2332 22.2133 21.3179 22.3023 21.4319C23.5234 22.7323 23.3844 22.5907 24.4972 23.7557C24.6055 23.8928 24.7461 24.0012 24.9065 24.0712C25.067 24.1411 25.2422 24.1706 25.4168 24.1569C28.6254 24.1569 28.6284 24.163 29.3938 24.1569C29.6043 24.1569 29.9169 23.8402 29.9854 23.718C30.0847 23.5477 30.1342 23.353 30.1282 23.1561C30.1223 22.9592 30.0611 22.768 29.9517 22.604C28.8277 21.3331 27.6751 20.1701 26.5735 19.0153C26.4848 18.9277 26.4314 18.8107 26.4233 18.6864C26.4332 18.5505 26.4858 18.4212 26.5735 18.3168C27.8089 16.608 28.8297 15.16 29.9394 13.3636C30.0655 13.2051 30.1535 13.0198 30.1965 12.8221C30.2395 12.6244 30.2365 12.4195 30.1877 12.2231C30.1324 12.113 30.0496 12.0189 29.9472 11.9499C29.8449 11.8809 29.7264 11.8392 29.6032 11.829C28.1206 11.8208 27.4799 11.8005 25.8981 11.8025C25.426 11.8025 25.0071 11.7669 24.7486 12.3341C24.0454 14.0591 23.0981 15.6749 21.9355 17.1324C21.7684 17.3099 21.542 17.4204 21.2989 17.443C21.236 17.442 21.1739 17.4286 21.1162 17.4035C21.0585 17.3784 21.0063 17.3422 20.9627 17.297C20.9191 17.2517 20.885 17.1983 20.8622 17.1398C20.8394 17.0814 20.8284 17.019 20.8299 16.9563C20.8053 15.3036 20.8299 13.8931 20.8176 12.272C20.8354 12.127 20.8096 11.9802 20.7436 11.8499C20.6775 11.7196 20.5742 11.6116 20.4467 11.5398C20.1977 11.4004 19.9145 11.3333 19.6292 11.3463V11.3525Z" fill="white"/>
</g>
</svg>
