<svg width="37" height="36" viewBox="0 0 37 36" fill="none" xmlns="http://www.w3.org/2000/svg">
<g id="flat">
<g id="whatsapp">
<path id="&#208;&#154;&#208;&#190;&#208;&#189;&#209;&#130;&#209;&#131;&#209;&#128; 1317" fill-rule="evenodd" clip-rule="evenodd" d="M18.3844 35.5349C21.9104 35.5349 25.3572 34.4929 28.289 32.5407C31.2207 30.5885 33.5058 27.8137 34.8551 24.5672C36.2044 21.3208 36.5575 17.7485 35.8696 14.3021C35.1817 10.8557 33.4838 7.68995 30.9905 5.20523C28.4973 2.7205 25.3207 1.02839 21.8624 0.342855C18.4042 -0.342677 14.8196 0.00916279 11.562 1.35388C8.30441 2.69861 5.5201 4.97581 3.56116 7.89753C1.60222 10.8193 0.556641 14.2543 0.556641 17.7682C0.556641 22.4802 2.43492 26.9993 5.77827 30.3312C9.12162 33.6631 13.6562 35.5349 18.3844 35.5349Z" fill="#57BB63"/>
<path id="&#208;&#154;&#208;&#190;&#208;&#189;&#209;&#130;&#209;&#131;&#209;&#128; 1318" fill-rule="evenodd" clip-rule="evenodd" d="M18.4258 27.3738C16.7876 27.3757 15.1755 26.9645 13.7397 26.1783L8.37207 27.8779L10.1214 22.7343C9.20873 21.2446 8.7261 19.5328 8.72664 17.7873C8.71166 15.8732 9.26754 13.9977 10.3237 12.399C11.3799 10.8002 12.8889 9.55005 14.6591 8.80723C16.4293 8.06441 18.3811 7.86235 20.2667 8.22668C22.1524 8.59101 23.8869 9.50532 25.2503 10.8536C26.6137 12.2019 27.5446 13.9234 27.9247 15.7997C28.3048 17.676 28.1172 19.6226 27.3855 21.3925C26.6538 23.1623 25.4111 24.6757 23.815 25.7406C22.2189 26.8055 20.3414 27.3739 18.4207 27.3738H18.4258ZM18.4258 9.72724C16.2733 9.72155 14.2064 10.5669 12.6785 12.0779C11.1507 13.5889 10.2865 15.6422 10.2757 17.7873C10.2749 19.4869 10.8187 21.1423 11.8279 22.5123L10.8061 25.5052L13.9379 24.5133C14.991 25.2195 16.1956 25.6694 17.4549 25.827C18.7142 25.9846 19.9931 25.8454 21.1886 25.4206C22.3841 24.9958 23.4628 24.2973 24.338 23.3812C25.2132 22.4652 25.8605 21.3572 26.2276 20.1464C26.5948 18.9356 26.6716 17.6558 26.452 16.41C26.2324 15.1642 25.7223 13.9872 24.963 12.9737C24.2037 11.9601 23.2162 11.1384 22.0801 10.5745C20.944 10.0107 19.6909 9.72046 18.4217 9.72724H18.4258ZM23.3213 19.995C23.2621 19.8932 23.1037 19.8382 22.8656 19.7211C22.6275 19.604 21.4596 19.0347 21.2419 18.9573C21.0243 18.8799 20.8649 18.8392 20.7065 19.0744C20.5481 19.3097 20.0934 19.8382 19.9534 19.9909C19.8134 20.1437 19.6765 20.1681 19.4425 20.05C18.7427 19.7745 18.0961 19.3799 17.5317 18.884C17.0122 18.4093 16.5666 17.8602 16.2095 17.2547C16.0705 17.0195 16.1952 16.8922 16.3116 16.7761C16.4281 16.66 16.5497 16.5022 16.6683 16.3688C16.7659 16.2502 16.8457 16.1181 16.9053 15.9767C16.9362 15.9125 16.9506 15.8417 16.9472 15.7706C16.9438 15.6995 16.9227 15.6304 16.8859 15.5694C16.8266 15.4523 16.3505 14.2954 16.1533 13.825C15.956 13.3545 15.7578 13.4329 15.6188 13.4329C15.4799 13.4329 15.3215 13.4136 15.1631 13.4136C15.0429 13.4167 14.9246 13.4445 14.8156 13.4951C14.7067 13.5457 14.6093 13.6181 14.5296 13.7079C14.2614 13.9587 14.0488 14.2627 13.9056 14.6003C13.7624 14.9379 13.6916 15.3017 13.6978 15.6681C13.7756 16.5553 14.1132 17.4002 14.6685 18.0979C15.6579 19.6389 17.0651 20.869 18.7272 21.6457C21.1438 22.5866 21.1438 22.273 21.5791 22.2333C21.9105 22.1694 22.2246 22.0366 22.501 21.8436C22.7775 21.6506 23.01 21.4017 23.1834 21.1131C23.339 20.7614 23.3874 20.3719 23.3224 19.993L23.3213 19.995Z" fill="white"/>
</g>
</g>
</svg>
