<svg width="21" height="22" viewBox="0 0 21 22" fill="none" xmlns="http://www.w3.org/2000/svg">
<path d="M11.3596 1.25409C11.284 1.08339 11.168 0.939897 11.0247 0.839635C10.8814 0.739372 10.7164 0.686279 10.5481 0.686279C10.3797 0.686279 10.2147 0.739372 10.0714 0.839635C9.92808 0.939897 9.81214 1.08339 9.73649 1.25409L7.23634 6.88334L1.63767 7.79359C1.46885 7.82092 1.31021 7.90162 1.1799 8.02649C1.04959 8.15135 0.952866 8.31533 0.9008 8.49966C0.848735 8.68399 0.843426 8.88124 0.885481 9.06884C0.927536 9.25643 1.01526 9.42681 1.13861 9.56047L5.17833 13.933L4.22624 20.104C4.19712 20.293 4.21507 20.4876 4.27807 20.6657C4.34106 20.8438 4.44659 20.9985 4.5828 21.1122C4.719 21.2259 4.88046 21.2943 5.04902 21.3095C5.21757 21.3248 5.38653 21.2863 5.53688 21.1985L10.5481 18.2697L15.5593 21.1985C15.7096 21.2863 15.8786 21.3248 16.0471 21.3095C16.2157 21.2943 16.3771 21.2259 16.5133 21.1122C16.6495 20.9985 16.7551 20.8438 16.8181 20.6657C16.8811 20.4876 16.899 20.293 16.8699 20.104L15.9178 13.9316L19.9575 9.55909C20.0805 9.42537 20.1679 9.2551 20.2098 9.06771C20.2516 8.88031 20.2462 8.68334 20.1942 8.49926C20.1421 8.31518 20.0456 8.15142 19.9155 8.02664C19.7854 7.90187 19.627 7.82111 19.4585 7.79359L13.8598 6.88334L11.3596 1.25409Z" fill="white"/>
</svg>
