<svg width="36" height="36" viewBox="0 0 36 36" fill="none" xmlns="http://www.w3.org/2000/svg">
<path id="iconfinder youtube circle color 107167" fill-rule="evenodd" clip-rule="evenodd" d="M23.8334 22.114C23.7666 22.107 23.6991 22.1166 23.6369 22.1418C23.5747 22.167 23.5197 22.2071 23.4768 22.2586C23.3942 22.4013 23.3585 22.5661 23.3746 22.7301V23.2606H24.2942V22.7301C24.3086 22.5652 24.27 22.4001 24.1839 22.2586C24.1426 22.2068 24.0888 22.1663 24.0274 22.141C23.9661 22.1157 23.8993 22.1064 23.8334 22.114ZM20.257 22.0956C20.3177 22.0922 20.3784 22.1027 20.4344 22.1263C20.4904 22.15 20.5402 22.1862 20.5799 22.2321C20.6619 22.3515 20.7009 22.4951 20.6903 22.6394V25.3543C20.701 25.4815 20.669 25.6086 20.5993 25.7158C20.5649 25.7549 20.5217 25.7855 20.4732 25.805C20.4248 25.8244 20.3724 25.8322 20.3204 25.8278C20.2318 25.8264 20.1448 25.8048 20.0659 25.7647C19.9736 25.7176 19.8903 25.6549 19.8197 25.5793V22.3024C19.8809 22.2367 19.9532 22.1823 20.0332 22.1415C20.1038 22.1098 20.1808 22.0952 20.258 22.0987L20.257 22.0956ZM23.3705 24.0793V25.0691C23.3552 25.2668 23.3904 25.4651 23.4727 25.6455C23.5121 25.7005 23.5653 25.7441 23.627 25.772C23.6888 25.7999 23.7568 25.811 23.8242 25.8044C23.8906 25.8117 23.9578 25.8033 24.0204 25.7797C24.0829 25.7562 24.1389 25.7182 24.1839 25.6689C24.272 25.482 24.3074 25.2746 24.2861 25.0691V24.8288H25.3528V25.0987C25.3872 25.5411 25.2472 25.9794 24.9625 26.3207C24.8074 26.4652 24.6239 26.576 24.4235 26.6462C24.2232 26.7163 24.0104 26.7442 23.7986 26.728C23.5953 26.7387 23.3919 26.7056 23.2025 26.631C23.0131 26.5563 22.8421 26.4417 22.7012 26.2952C22.4187 25.9638 22.2749 25.5369 22.2996 25.1028V22.7402C22.2923 22.5343 22.3277 22.329 22.4037 22.1373C22.4796 21.9456 22.5945 21.7716 22.7411 21.6262C22.8914 21.4818 23.0694 21.3692 23.2645 21.2952C23.4596 21.2212 23.6677 21.1872 23.8763 21.1954C24.0762 21.1819 24.2767 21.21 24.4651 21.2778C24.6535 21.3457 24.8256 21.4518 24.9707 21.5895C25.2436 21.9068 25.3805 22.3182 25.3518 22.7351V24.0763H23.3705V24.0793ZM21.5138 26.3512C21.4276 26.4519 21.3189 26.5311 21.1965 26.5826C21.0741 26.634 20.9413 26.6563 20.8088 26.6476C20.6219 26.6515 20.4366 26.6125 20.2672 26.5335C20.0953 26.4481 19.944 26.3265 19.8238 26.1771V26.5844H18.7754V19.4561H19.8238V21.7514C19.949 21.6035 20.1003 21.4796 20.2703 21.3859C20.4168 21.3051 20.5811 21.2621 20.7485 21.2606C20.8917 21.2521 21.0347 21.2781 21.1657 21.3364C21.2966 21.3947 21.4115 21.4837 21.5006 21.5956C21.6936 21.8857 21.7851 22.2311 21.7611 22.5783V25.4958C21.7805 25.8012 21.6931 26.1038 21.5138 26.3522V26.3512ZM16.9586 26.5814V26.003C16.7888 26.199 16.5858 26.3637 16.3588 26.4897C16.1753 26.5956 15.9678 26.653 15.7559 26.6567C15.6532 26.664 15.5503 26.6465 15.4558 26.6057C15.3614 26.5649 15.2782 26.5021 15.2133 26.4225C15.0785 26.2135 15.015 25.9667 15.0324 25.7188V21.3237H16.0686V25.3573C16.0611 25.452 16.0832 25.5466 16.1319 25.6282C16.1585 25.6575 16.1915 25.6803 16.2284 25.6947C16.2652 25.7092 16.305 25.715 16.3444 25.7117C16.4495 25.7018 16.5499 25.6634 16.6346 25.6007C16.7551 25.5231 16.8635 25.4285 16.9565 25.3197V21.3237H17.9926V26.5793H16.9586V26.5814ZM13.3679 20.4908V26.5793H12.1979V20.4918H10.9901V19.4561H14.5767V20.4918L13.3679 20.4908ZM18.1704 17.1608C18.1704 17.1608 25.3488 17.171 26.201 18.0193C27.0532 18.8675 27.0654 23.061 27.0654 23.0854C27.0654 23.0854 27.0583 27.3003 26.201 28.1526C25.3436 29.005 18.1704 29.0182 18.1704 29.0182C18.1704 29.0182 10.9921 28.9999 10.1389 28.1526C9.28569 27.3054 9.28262 23.118 9.28262 23.0854C9.28262 23.0529 9.28262 18.8686 10.1389 18.0193C10.9952 17.17 18.1684 17.1618 18.1684 17.1618L18.1704 17.1608ZM23.8313 14.9562H22.6614V14.3166C22.4714 14.5344 22.2441 14.7168 21.99 14.8553C21.7829 14.9715 21.5502 15.0348 21.3126 15.0397C21.1971 15.0482 21.0812 15.0292 20.9746 14.9842C20.868 14.9392 20.7737 14.8696 20.6995 14.781C20.547 14.5521 20.4751 14.2791 20.4951 14.005V9.16596H21.661V13.6059C21.6529 13.7106 21.6794 13.815 21.7366 13.9032C21.7661 13.936 21.8029 13.9615 21.8441 13.9776C21.8853 13.9937 21.9296 14 21.9737 13.9959C22.0912 13.9845 22.2037 13.9424 22.2996 13.8737C22.4351 13.7891 22.5565 13.684 22.6593 13.5621V9.16596H23.8273V14.9572L23.8313 14.9562ZM17.4889 13.9694C17.5359 14.0146 17.592 14.0495 17.6534 14.0718C17.7148 14.0941 17.7803 14.1032 17.8455 14.0987C17.9837 14.1055 18.1191 14.058 18.2226 13.9663C18.2701 13.9184 18.307 13.8612 18.3311 13.7982C18.3552 13.7353 18.3659 13.668 18.3625 13.6008V10.444C18.3641 10.3855 18.3519 10.3274 18.3271 10.2744C18.3023 10.2214 18.2654 10.1749 18.2195 10.1385C18.1127 10.0573 17.9807 10.0162 17.8465 10.0224C17.72 10.0167 17.5958 10.058 17.4981 10.1385C17.4547 10.1765 17.4203 10.2236 17.3971 10.2764C17.374 10.3292 17.3628 10.3864 17.3642 10.444V13.6008C17.3553 13.7352 17.3993 13.8678 17.4868 13.9704L17.4889 13.9694ZM16.6336 9.4185C16.9937 9.13726 17.4438 8.99546 17.9007 9.01932C18.3366 9.00225 18.7624 9.15282 19.0901 9.43989C19.2411 9.57622 19.3607 9.74363 19.4404 9.93053C19.5202 10.1174 19.5582 10.3194 19.552 10.5224V13.5132C19.5633 13.7284 19.5288 13.9435 19.4508 14.1444C19.3728 14.3454 19.253 14.5276 19.0993 14.6792C18.7527 14.9763 18.304 15.1278 17.8475 15.1018C17.3972 15.1232 16.9565 14.9666 16.6214 14.6659C16.4667 14.5129 16.3459 14.3293 16.2669 14.1269C16.1879 13.9244 16.1523 13.7077 16.1626 13.4908V10.4898C16.1534 10.2875 16.1909 10.0859 16.2722 9.90032C16.3535 9.71478 16.4765 9.55029 16.6316 9.41952L16.6336 9.4185ZM12.9816 7.1069H11.6533L13.2197 11.8472V14.9572H14.5348V11.6985L16.0675 7.10588H14.7279L13.9166 10.2433H13.8328L12.9816 7.1069ZM18.1745 35.5335C14.6484 35.5339 11.2013 34.4922 8.2693 32.5401C5.33725 30.5881 3.0519 27.8134 1.70228 24.5669C0.352656 21.3205 -0.000624329 17.7481 0.687115 14.3015C1.37486 10.8549 3.07272 7.68901 5.566 5.20412C8.05928 2.71924 11.236 1.027 14.6943 0.341416C18.1527 -0.344168 21.7374 0.00769892 24.9951 1.35252C28.2528 2.69733 31.0372 4.9747 32.9961 7.8966C34.955 10.8185 36.0004 14.2537 36.0002 17.7678C36.0002 22.4798 34.122 26.9988 30.7786 30.3307C27.4353 33.6626 22.9007 35.5345 18.1725 35.5345L18.1745 35.5335Z" fill="#CF3427"/>
</svg>
